<svg width="53" height="47" viewBox="0 0 53 47" fill="none" xmlns="http://www.w3.org/2000/svg">
<path d="M8.43031 8.6978C10.8325 8.6978 12.7787 6.74994 12.7787 4.34931C12.7787 1.9462 10.8325 0 8.43031 0C6.02709 0 4.08099 1.9462 4.08099 4.34931C4.08099 6.74994 6.02709 8.6978 8.43031 8.6978Z" fill="white"/>
<path d="M23.2047 21.9545C23.2047 21.8659 23.19 21.7813 23.1787 21.6959L29.6741 16.9817C30.0822 16.6849 30.1741 16.111 29.8773 15.702C29.7051 15.4655 29.4278 15.324 29.1351 15.324C28.9408 15.324 28.7555 15.385 28.5977 15.4988L22.0893 20.2229C21.847 20.1123 21.5811 20.0465 21.2974 20.0465H17.7595L16.9009 15.1583C16.4294 12.6935 15.4401 10.7578 13.3329 10.7578H4.39952C2.29246 10.7578 0 13.0503 0 15.1583V29.775C0 30.8286 0.85359 31.683 1.90717 31.683C2.42589 31.683 1.90717 31.683 3.2388 31.683L3.96392 44.1487C3.96392 45.2698 4.87362 46.1787 5.99469 46.1787C6.83524 46.1787 8.93433 46.1787 10.0554 46.1787C11.1765 46.1787 12.0853 45.2698 12.0853 44.1487L13.0381 19.4572H13.086L13.6316 21.8659C13.8121 23.0146 14.8006 23.8616 15.9631 23.8616H21.2977C22.3511 23.8616 23.2047 23.0081 23.2047 21.9545ZM7.04175 19.2449V12.2966H9.53917V19.2449L8.21241 20.8098L7.04175 19.2449Z" fill="white"/>
<path d="M19.7017 1.50317V17.3824H22.1991V4.00049H50.5026V27.8646H22.1991V24.8608H19.7017V30.3619H53V1.50317H19.7017Z" fill="white"/>
<path d="M32.2772 36.8153C32.2772 34.8691 30.7002 33.2927 28.7548 33.2927C26.8086 33.2927 25.2315 34.8691 25.2315 36.8153C25.2315 38.7598 26.8086 40.3377 28.7548 40.3377C30.7001 40.3377 32.2772 38.7597 32.2772 36.8153Z" fill="white"/>
<path d="M28.7547 42.2246C26.2435 42.2246 24.1104 43.8725 23.2909 46.1788H34.2185C33.3991 43.8724 31.2659 42.2246 28.7547 42.2246Z" fill="white"/>
<path d="M47.4695 36.8153C47.4695 34.8691 45.8924 33.2927 43.947 33.2927C42.0008 33.2927 40.4238 34.8691 40.4238 36.8153C40.4238 38.7598 42.0008 40.3377 43.947 40.3377C45.8924 40.3377 47.4695 38.7597 47.4695 36.8153Z" fill="white"/>
<path d="M43.947 42.2246C41.4358 42.2246 39.3027 43.8725 38.4832 46.1788H49.4108C48.5914 43.8724 46.4582 42.2246 43.947 42.2246Z" fill="white"/>
</svg>
