<svg width="58" height="43" viewBox="0 0 58 43" fill="none" xmlns="http://www.w3.org/2000/svg">
<path d="M10.6149 5.98833C10.6149 2.6734 13.2553 0 16.5767 0C19.877 0 22.5385 2.6734 22.5385 5.98833C22.5174 9.32476 19.8558 11.9767 16.5767 11.9767C13.2765 11.9767 10.6149 9.30326 10.6149 5.98833ZM43.5 31.672H32.6825V21.9624C32.6825 17.2321 28.5671 13.4086 23.9365 13.4086H9.43652C4.35278 13.4086 -0.00228229 17.8334 1.9292e-05 22.1935V39.9946C-0.00596483 41.9673 1.3812 42.9975 2.76192 43C4.1461 43.0025 5.52383 41.9724 5.52383 39.9946V22.6559H7.3651V43H25.3175V22.6559H27.1587L27.1774 34.3006C27.1652 36.3186 28.4069 37.1779 29.6905 37.2204H43.5C47.2661 37.2204 47.2661 31.672 43.5 31.672ZM38.37 27.4541C42.2811 27.4541 44.3021 28.0873 45.1719 28.4755H35.6746V16.2582H37.1999V27.4604L38.1447 27.4541H38.37ZM46.3125 16.6116C46.3125 18.4972 46.3125 28.0432 46.3125 28.0432C46.3125 28.0432 44.5574 26.5111 38.3732 26.5111H38.1385C38.1385 24.704 38.1385 15.001 38.1385 15.001C38.1385 15.001 38.4904 14.9869 39.0474 14.9869H39.049C40.9639 14.9869 45.3143 15.152 46.3125 16.6116ZM55.5299 27.4541L56.4747 27.4604V16.2582H58V28.4755H48.5025C49.3723 28.0873 51.3935 27.4541 55.3044 27.4541H55.5299ZM54.6256 14.9869H54.6273C55.1842 14.9869 55.5362 15.001 55.5362 15.001C55.5362 15.001 55.5362 24.704 55.5362 26.5111H55.3014C49.1173 26.5111 47.3621 28.0432 47.3621 28.0432C47.3621 28.0432 47.3621 18.4972 47.3621 16.6116C48.3603 15.152 52.7107 14.9869 54.6256 14.9869Z" fill="white"/>
</svg>
