<svg width="51" height="48" viewBox="0 0 51 48" fill="none" xmlns="http://www.w3.org/2000/svg">
<path d="M17.5455 39.4324C22.585 39.4324 26.0495 38.7672 26.1024 38.1259C26.3211 35.4502 22.9105 34.0537 21.5359 33.5308C21.3927 33.4759 21.2374 33.4 21.0784 33.3125L18.4358 37.0332L18.2475 34.596H16.8425L16.6542 37.0332L14.0107 33.3125C13.8476 33.4053 13.6897 33.4813 13.5542 33.5308C12.1692 34.0263 8.76895 35.453 8.9868 38.1259C9.04066 38.7672 12.5051 39.4324 17.5455 39.4324Z" fill="white"/>
<path d="M14.5325 28.1533C14.7193 29.2144 15.03 30.152 15.4412 30.6125C15.4412 31.1657 15.4412 31.5696 15.4412 31.8922C15.4412 31.9244 15.4352 31.9581 15.4261 31.9936L16.8673 32.693V33.7203H18.2231V32.6939L19.6635 31.9945C19.6543 31.9599 19.6485 31.9244 19.6485 31.8923C19.6485 31.5696 19.6485 31.1658 19.6485 30.6126C20.0597 30.1521 20.3721 29.2145 20.5579 28.1534C20.9908 27.998 21.2387 27.7479 21.5469 26.6556C21.876 25.4924 21.0528 25.5312 21.0528 25.5312C21.7194 23.3062 20.8409 21.2162 19.373 21.37C18.3597 19.5807 14.9657 21.778 13.9021 21.6251C13.9021 22.2366 14.155 22.6988 14.155 22.6988C13.7848 23.4067 13.928 24.8174 14.0318 25.5312C13.9706 25.5312 13.2262 25.5389 13.5428 26.6556C13.8516 27.7477 14.0987 27.9979 14.5325 28.1533Z" fill="white"/>
<path d="M31.8244 4.6365C31.8244 2.2263 29.7979 0.265137 27.3073 0.265137H23.6937C21.2032 0.265137 19.1766 2.2263 19.1766 4.6365V12.5049H31.8244V4.6365ZM28.2108 6.38512C28.2108 6.86843 27.8066 7.25943 27.3073 7.25943H23.6937C23.1944 7.25943 22.7903 6.86843 22.7903 6.38512V4.6365C22.7903 4.15329 23.1944 3.76218 23.6937 3.76218H27.3073C27.8066 3.76218 28.2108 4.15329 28.2108 4.6365V6.38512Z" fill="white"/>
<path d="M46.0144 10.8728H33.414V12.5527C33.414 13.5248 32.6224 14.3207 31.6555 14.3207H19.3454C18.3785 14.3207 17.5868 13.5248 17.5868 12.5527V10.8728H4.98652C2.23437 10.8728 0.000976562 13.1182 0.000976562 15.8849V42.988C0.000976562 45.7548 2.23437 48.0001 4.98652 48.0001H46.0145C48.7666 48.0001 51 45.7548 51 42.988V15.8849C50.9999 13.1182 48.7665 10.8728 46.0144 10.8728ZM45.7241 43.9341H5.27678V17.4146H45.7242V43.9341H45.7241Z" fill="white"/>
<path d="M40.3922 25.1526H29.3764V27.6005H40.3922V25.1526Z" fill="white"/>
<path d="M37.1283 32.9045H29.3764V35.3525H37.1283V32.9045Z" fill="white"/>
</svg>
