<svg width="59" height="58" viewBox="0 0 59 58" fill="none" xmlns="http://www.w3.org/2000/svg">
<path d="M15.1038 28.9706C15.1038 37.1622 21.7679 43.8263 29.9594 43.8263C38.1507 43.8263 44.8149 37.1621 44.8149 28.9706C44.8149 20.7792 38.1508 14.115 29.9594 14.115C21.768 14.115 15.1038 20.7791 15.1038 28.9706ZM25.6285 24.5236H34.2904C34.8771 24.5236 35.3524 24.9991 35.3524 25.5856C35.3524 26.1721 34.8771 26.6476 34.2904 26.6476H25.6285C25.0421 26.6476 24.5666 26.1721 24.5666 25.5856C24.5666 24.999 25.0421 24.5236 25.6285 24.5236ZM25.6285 31.2937H34.2904C34.8771 31.2937 35.3524 31.7692 35.3524 32.3557C35.3524 32.9421 34.8771 33.4177 34.2904 33.4177H25.6285C25.0421 33.4177 24.5666 32.9421 24.5666 32.3557C24.5666 31.7692 25.0421 31.2937 25.6285 31.2937Z" fill="white"/>
<path d="M31.7728 0.00137181C31.3655 -0.0238109 31.0215 0.300955 31.0215 0.709097V11.3736C31.0215 11.7377 31.2979 12.0408 31.6602 12.0769C45.0764 13.4174 51.663 29.2464 43.1036 39.7062C42.8725 39.9887 42.8901 40.3992 43.1481 40.6572L50.6847 48.1937C50.9737 48.4827 51.4471 48.4681 51.7175 48.1617C67.6924 30.0723 55.7501 1.48681 31.7728 0.00137181Z" fill="white"/>
<path d="M41.6461 42.1592C41.3879 41.901 40.9776 41.8836 40.695 42.1148C34.4443 47.2298 25.476 47.2316 19.2232 42.1146C18.9407 41.8835 18.5302 41.9009 18.272 42.1591L10.7355 49.6954C10.4464 49.9845 10.4611 50.4578 10.7675 50.7283C21.7402 60.4187 38.1661 60.4288 49.1503 50.7286C49.4566 50.4582 49.4714 49.9847 49.1823 49.6958L41.6461 42.1592Z" fill="white"/>
<path d="M16.815 39.7064C8.24362 29.2317 14.8609 13.4157 28.2587 12.0771C28.6209 12.0408 28.8974 11.7378 28.8974 11.3738V0.70934C28.8974 0.301425 28.5531 -0.0235676 28.1461 0.00161508C4.14043 1.48876 -7.7558 30.0924 8.20108 48.1619C8.47152 48.4681 8.94488 48.4829 9.23392 48.1938L16.7705 40.6573C17.0285 40.3992 17.0461 39.9888 16.815 39.7064Z" fill="white"/>
</svg>
