<svg width="55" height="55" viewBox="0 0 55 55" fill="none" xmlns="http://www.w3.org/2000/svg">
<path d="M27.5 0C22.4373 0 18.3333 4.10407 18.3333 9.16667C18.3333 13.1579 20.8841 16.5534 24.4444 17.8117V24.4444H15.2778C10.2152 24.4444 6.11111 28.5484 6.11111 33.6111V37.1883C2.55081 38.4465 0 41.8422 0 45.8333C0 50.8961 4.10407 55 9.16667 55C14.2293 55 18.3333 50.8961 18.3333 45.8333C18.3333 41.8422 15.7825 38.4465 12.2222 37.1883V33.6111C12.2222 31.9235 13.5903 30.5556 15.2778 30.5556H39.7222C41.4098 30.5556 42.7778 31.9235 42.7778 33.6111V37.1883C39.2174 38.4465 36.6667 41.8422 36.6667 45.8333C36.6667 50.8961 40.7706 55 45.8333 55C50.8961 55 55 50.8961 55 45.8333C55 41.8422 52.4492 38.4465 48.8889 37.1883V33.6111C48.8889 28.5484 44.785 24.4444 39.7222 24.4444H30.5556V17.8117C34.1159 16.5534 36.6667 13.1579 36.6667 9.16667C36.6667 4.10407 32.5628 0 27.5 0Z" fill="white"/>
</svg>
