<svg width="46" height="46" viewBox="0 0 46 46" fill="none" xmlns="http://www.w3.org/2000/svg">
<path d="M30.304 46C33.1235 46 35.5429 45.852 37.5643 45.4026C39.6116 44.9477 41.3862 44.1546 42.7703 42.7703C44.1546 41.3862 44.9477 39.6116 45.4026 37.5643C45.852 35.5429 46 33.1235 46 30.304V23.5C46 21.0147 43.9853 19 41.5 19H23.5C21.0147 19 19 21.0147 19 23.5V41.5C19 43.9853 21.0147 46 23.5 46H30.304Z" fill="white"/>
<path d="M0 30.4771C0 33.3398 0.153627 35.7962 0.619547 37.8486C1.09135 39.9272 1.91382 41.729 3.34934 43.1344C4.78485 44.5398 6.6251 45.3451 8.74802 45.807C8.95132 45.8511 9.15565 45.8926 9.36082 45.9315C11.8913 46.4101 14 44.3132 14 41.7897V23.5689C14 21.0455 11.9107 19 9.33333 19H4.66667C2.08934 19 0 21.0455 0 23.5689V30.4771Z" fill="white"/>
<path d="M16.5604 0C13.6879 0 11.2231 0.153627 9.16356 0.619547C7.07801 1.09135 5.27015 1.91382 3.8599 3.34934C2.44965 4.78485 1.64165 6.6251 1.17816 8.74802C1.1401 8.92234 1.1043 9.09722 1.07067 9.27262C0.579255 11.8362 2.72179 14 5.28775 14H41.7754C44.3074 14 46.4115 11.8913 45.9312 9.36082C45.8923 9.15565 45.8506 8.95132 45.8063 8.74802C45.3426 6.6251 44.5348 4.78485 43.1244 3.34934C41.7142 1.91382 39.9062 1.09135 37.8207 0.619547C35.7611 0.153627 33.2965 0 30.4241 0H16.5604Z" fill="white"/>
</svg>
