<svg width="245" height="240" viewBox="0 0 245 240" fill="none" xmlns="http://www.w3.org/2000/svg">
<rect x="2.70001" y="2.56201" width="239" height="234.838" rx="117.419" fill="#F28F53"/>
<rect x="2.70001" y="2.56201" width="239" height="234.838" rx="117.419" stroke="white" stroke-width="5"/>
<path d="M106.949 99.012C104.049 99.012 101.549 98.462 99.4486 97.362C97.3486 96.2287 95.7319 94.712 94.5986 92.812C93.4986 90.912 92.9486 88.812 92.9486 86.512H100.849C100.849 87.6453 101.099 88.6453 101.599 89.512C102.132 90.3453 102.865 91.012 103.799 91.512C104.732 91.9787 105.799 92.212 106.999 92.212C108.332 92.212 109.449 91.9453 110.349 91.412C111.282 90.8453 111.999 90.0953 112.499 89.162C112.999 88.1953 113.249 87.112 113.249 85.912C113.249 84.6787 112.999 83.5953 112.499 82.662C112.032 81.6953 111.332 80.9287 110.399 80.362C109.499 79.7953 108.399 79.512 107.099 79.512C105.899 79.512 104.815 79.762 103.849 80.262C102.882 80.762 102.165 81.3953 101.699 82.162H93.9986L95.8486 61.562H117.999V68.562H99.0986L102.249 66.462L101.149 78.312L99.2486 77.812C100.249 76.612 101.449 75.612 102.849 74.812C104.282 73.9787 106.149 73.562 108.449 73.562C111.115 73.562 113.382 74.112 115.249 75.212C117.149 76.2787 118.599 77.7287 119.599 79.562C120.632 81.362 121.149 83.3787 121.149 85.612V86.262C121.149 88.4953 120.599 90.5787 119.499 92.512C118.399 94.4453 116.782 96.012 114.649 97.212C112.549 98.412 109.982 99.012 106.949 99.012ZM134.176 93.412V68.262H141.276V93.412H134.176ZM125.326 84.112V77.612H150.176V84.112H125.326Z" fill="#333931"/>
<path d="M75.9632 126.462L70.1632 115.312H72.7132L77.6132 124.862L76.6632 124.587H79.6132L78.6132 124.862L83.2132 115.312H85.6132L80.1632 126.462H75.9632ZM76.8632 133.562V125.962H79.2632V133.562H76.8632ZM92.6551 134.012C91.4885 134.012 90.4801 133.812 89.6301 133.412C88.7801 133.012 88.0885 132.487 87.5551 131.837C87.0218 131.17 86.6218 130.429 86.3551 129.612C86.1051 128.795 85.9801 127.962 85.9801 127.112V126.662C85.9801 125.795 86.1051 124.954 86.3551 124.137C86.6218 123.32 87.0218 122.587 87.5551 121.937C88.0885 121.27 88.7635 120.745 89.5801 120.362C90.4135 119.962 91.3885 119.762 92.5051 119.762C93.9551 119.762 95.1468 120.079 96.0801 120.712C97.0301 121.329 97.7301 122.129 98.1801 123.112C98.6468 124.095 98.8801 125.145 98.8801 126.262V127.337H87.0301V125.537H97.1301L96.5801 126.512C96.5801 125.562 96.4301 124.745 96.1301 124.062C95.8301 123.362 95.3801 122.82 94.7801 122.437C94.1801 122.054 93.4218 121.862 92.5051 121.862C91.5551 121.862 90.7635 122.079 90.1301 122.512C89.5135 122.945 89.0468 123.537 88.7301 124.287C88.4301 125.037 88.2801 125.904 88.2801 126.887C88.2801 127.837 88.4301 128.695 88.7301 129.462C89.0468 130.212 89.5301 130.812 90.1801 131.262C90.8301 131.695 91.6551 131.912 92.6551 131.912C93.7051 131.912 94.5551 131.679 95.2051 131.212C95.8718 130.745 96.2718 130.204 96.4051 129.587H98.6551C98.4718 130.504 98.1052 131.295 97.5552 131.962C97.0051 132.629 96.3135 133.137 95.4801 133.487C94.6468 133.837 93.7051 134.012 92.6551 134.012ZM110.363 133.562V129.562H109.963V124.937C109.963 124.02 109.721 123.329 109.238 122.862C108.771 122.395 108.079 122.162 107.163 122.162C106.646 122.162 106.113 122.17 105.563 122.187C105.013 122.204 104.488 122.22 103.988 122.237C103.488 122.254 103.054 122.279 102.688 122.312V120.212C103.054 120.179 103.438 120.154 103.838 120.137C104.254 120.104 104.679 120.087 105.113 120.087C105.546 120.07 105.963 120.062 106.363 120.062C107.729 120.062 108.846 120.229 109.713 120.562C110.579 120.879 111.221 121.404 111.638 122.137C112.054 122.87 112.263 123.862 112.263 125.112V133.562H110.363ZM105.988 133.912C104.988 133.912 104.121 133.745 103.388 133.412C102.671 133.062 102.113 132.562 101.713 131.912C101.329 131.262 101.138 130.479 101.138 129.562C101.138 128.612 101.346 127.82 101.763 127.187C102.196 126.554 102.821 126.079 103.638 125.762C104.454 125.429 105.438 125.262 106.588 125.262H110.213V127.062H106.488C105.521 127.062 104.779 127.295 104.263 127.762C103.746 128.229 103.488 128.829 103.488 129.562C103.488 130.295 103.746 130.887 104.263 131.337C104.779 131.787 105.521 132.012 106.488 132.012C107.054 132.012 107.596 131.912 108.113 131.712C108.629 131.495 109.054 131.145 109.388 130.662C109.738 130.162 109.929 129.479 109.963 128.612L110.613 129.562C110.529 130.512 110.296 131.312 109.913 131.962C109.546 132.595 109.029 133.079 108.363 133.412C107.713 133.745 106.921 133.912 105.988 133.912ZM116.668 133.562V120.212H118.568V125.712H118.468C118.468 123.762 118.893 122.337 119.743 121.437C120.609 120.52 121.901 120.062 123.618 120.062H124.068V122.212H123.218C121.884 122.212 120.859 122.57 120.143 123.287C119.426 123.987 119.068 125.004 119.068 126.337V133.562H116.668ZM131.297 133.962C129.547 133.962 128.188 133.587 127.222 132.837C126.272 132.087 125.78 131.062 125.747 129.762H127.997C128.03 130.279 128.288 130.77 128.772 131.237C129.272 131.687 130.113 131.912 131.297 131.912C132.363 131.912 133.18 131.704 133.747 131.287C134.313 130.854 134.597 130.329 134.597 129.712C134.597 129.162 134.388 128.737 133.972 128.437C133.555 128.12 132.88 127.912 131.947 127.812L130.497 127.662C129.23 127.529 128.197 127.154 127.397 126.537C126.597 125.904 126.197 125.02 126.197 123.887C126.197 123.037 126.413 122.312 126.847 121.712C127.28 121.095 127.88 120.629 128.647 120.312C129.413 119.979 130.297 119.812 131.297 119.812C132.797 119.812 134.013 120.145 134.947 120.812C135.88 121.479 136.363 122.47 136.397 123.787H134.147C134.13 123.254 133.88 122.804 133.397 122.437C132.93 122.054 132.23 121.862 131.297 121.862C130.363 121.862 129.655 122.054 129.172 122.437C128.688 122.82 128.447 123.304 128.447 123.887C128.447 124.387 128.613 124.787 128.947 125.087C129.297 125.387 129.863 125.579 130.647 125.662L132.097 125.812C133.53 125.962 134.68 126.362 135.547 127.012C136.413 127.645 136.847 128.545 136.847 129.712C136.847 130.545 136.605 131.287 136.122 131.937C135.655 132.57 135.005 133.07 134.172 133.437C133.338 133.787 132.38 133.962 131.297 133.962ZM154.538 134.012C152.905 134.012 151.497 133.72 150.313 133.137C149.13 132.554 148.155 131.787 147.388 130.837C146.622 129.887 146.047 128.87 145.663 127.787C145.297 126.704 145.113 125.662 145.113 124.662V124.112C145.113 123.029 145.305 121.937 145.688 120.837C146.072 119.737 146.655 118.737 147.438 117.837C148.222 116.92 149.197 116.187 150.363 115.637C151.547 115.087 152.938 114.812 154.538 114.812C156.138 114.812 157.522 115.087 158.688 115.637C159.872 116.187 160.855 116.92 161.638 117.837C162.422 118.737 163.005 119.737 163.388 120.837C163.772 121.937 163.963 123.029 163.963 124.112V124.662C163.963 125.662 163.772 126.704 163.388 127.787C163.022 128.87 162.455 129.887 161.688 130.837C160.922 131.787 159.947 132.554 158.763 133.137C157.58 133.72 156.172 134.012 154.538 134.012ZM154.538 131.762C155.605 131.762 156.563 131.562 157.413 131.162C158.28 130.762 159.013 130.22 159.613 129.537C160.213 128.837 160.672 128.054 160.988 127.187C161.305 126.304 161.463 125.379 161.463 124.412C161.463 123.395 161.305 122.445 160.988 121.562C160.672 120.679 160.213 119.904 159.613 119.237C159.013 118.554 158.28 118.02 157.413 117.637C156.563 117.254 155.605 117.062 154.538 117.062C153.472 117.062 152.505 117.254 151.638 117.637C150.788 118.02 150.063 118.554 149.463 119.237C148.863 119.904 148.405 120.679 148.088 121.562C147.772 122.445 147.613 123.395 147.613 124.412C147.613 125.379 147.772 126.304 148.088 127.187C148.405 128.054 148.863 128.837 149.463 129.537C150.063 130.22 150.788 130.762 151.638 131.162C152.505 131.562 153.472 131.762 154.538 131.762ZM167.994 133.562V119.537C167.994 118.054 168.386 116.962 169.169 116.262C169.953 115.562 171.103 115.212 172.619 115.212H174.269V117.212H172.219C171.603 117.212 171.128 117.387 170.794 117.737C170.461 118.07 170.294 118.537 170.294 119.137V133.562H167.994ZM166.144 122.162V120.362H174.519V122.162H166.144Z" fill="#333931"/>
<path d="M47.6307 172.062V153.812H50.0807V172.062H47.6307ZM49.5807 172.062V169.862H58.4307V172.062H49.5807ZM49.5807 163.887V161.687H57.6557V163.887H49.5807ZM49.5807 156.012V153.812H58.1807V156.012H49.5807ZM60.6709 172.062L65.4459 165.037L65.3709 165.537L60.8959 158.712H63.5459L66.7709 163.737H67.1209L70.1709 158.712H72.6459L68.4209 165.362L68.4959 164.912L73.4959 172.062H70.8459L67.0959 166.637H66.7459L63.1459 172.062H60.6709ZM76.2602 177.062V158.712H78.1602V164.487L77.7102 164.437C77.7935 163.004 78.0935 161.837 78.6102 160.937C79.1435 160.02 79.8352 159.345 80.6852 158.912C81.5352 158.479 82.4602 158.262 83.4602 158.262C84.4268 158.262 85.3018 158.445 86.0852 158.812C86.8852 159.179 87.5685 159.679 88.1352 160.312C88.7018 160.945 89.1352 161.679 89.4352 162.512C89.7352 163.345 89.8852 164.229 89.8852 165.162V165.612C89.8852 166.545 89.7268 167.429 89.4102 168.262C89.0935 169.095 88.6435 169.829 88.0602 170.462C87.4935 171.095 86.8102 171.595 86.0102 171.962C85.2268 172.329 84.3602 172.512 83.4102 172.512C82.4602 172.512 81.5518 172.304 80.6852 171.887C79.8185 171.47 79.1018 170.795 78.5352 169.862C77.9685 168.929 77.6435 167.704 77.5602 166.187L78.6602 168.187V177.062H76.2602ZM83.0352 170.412C83.9352 170.412 84.7185 170.204 85.3852 169.787C86.0518 169.354 86.5685 168.762 86.9352 168.012C87.3018 167.245 87.4852 166.37 87.4852 165.387C87.4852 164.387 87.3018 163.512 86.9352 162.762C86.5685 162.012 86.0518 161.429 85.3852 161.012C84.7185 160.579 83.9352 160.362 83.0352 160.362C82.2352 160.362 81.4935 160.545 80.8102 160.912C80.1268 161.262 79.5768 161.779 79.1602 162.462C78.7602 163.129 78.5602 163.937 78.5602 164.887V166.037C78.5602 166.954 78.7685 167.737 79.1852 168.387C79.6018 169.037 80.1518 169.537 80.8352 169.887C81.5185 170.237 82.2518 170.412 83.0352 170.412ZM99.1715 172.512C98.0048 172.512 96.9965 172.312 96.1465 171.912C95.2965 171.512 94.6048 170.987 94.0715 170.337C93.5382 169.67 93.1382 168.929 92.8715 168.112C92.6215 167.295 92.4965 166.462 92.4965 165.612V165.162C92.4965 164.295 92.6215 163.454 92.8715 162.637C93.1382 161.82 93.5382 161.087 94.0715 160.437C94.6048 159.77 95.2798 159.245 96.0965 158.862C96.9298 158.462 97.9048 158.262 99.0215 158.262C100.471 158.262 101.663 158.579 102.596 159.212C103.546 159.829 104.246 160.629 104.696 161.612C105.163 162.595 105.396 163.645 105.396 164.762V165.837H93.5465V164.037H103.646L103.096 165.012C103.096 164.062 102.946 163.245 102.646 162.562C102.346 161.862 101.896 161.32 101.296 160.937C100.696 160.554 99.9382 160.362 99.0215 160.362C98.0715 160.362 97.2798 160.579 96.6465 161.012C96.0298 161.445 95.5632 162.037 95.2465 162.787C94.9465 163.537 94.7965 164.404 94.7965 165.387C94.7965 166.337 94.9465 167.195 95.2465 167.962C95.5632 168.712 96.0465 169.312 96.6965 169.762C97.3465 170.195 98.1715 170.412 99.1715 170.412C100.221 170.412 101.071 170.179 101.721 169.712C102.388 169.245 102.788 168.704 102.921 168.087H105.171C104.988 169.004 104.621 169.795 104.071 170.462C103.521 171.129 102.83 171.637 101.996 171.987C101.163 172.337 100.221 172.512 99.1715 172.512ZM108.804 172.062V158.712H110.704V164.212H110.604C110.604 162.262 111.029 160.837 111.879 159.937C112.746 159.02 114.037 158.562 115.754 158.562H116.204V160.712H115.354C114.021 160.712 112.996 161.07 112.279 161.787C111.562 162.487 111.204 163.504 111.204 164.837V172.062H108.804ZM119.708 172.062V158.712H122.108V172.062H119.708ZM117.658 160.612V158.712H122.108V160.612H117.658ZM120.383 156.562C119.85 156.562 119.45 156.42 119.183 156.137C118.933 155.854 118.808 155.495 118.808 155.062C118.808 154.629 118.933 154.27 119.183 153.987C119.45 153.704 119.85 153.562 120.383 153.562C120.916 153.562 121.308 153.704 121.558 153.987C121.825 154.27 121.958 154.629 121.958 155.062C121.958 155.495 121.825 155.854 121.558 156.137C121.308 156.42 120.916 156.562 120.383 156.562ZM132.423 172.512C131.257 172.512 130.248 172.312 129.398 171.912C128.548 171.512 127.857 170.987 127.323 170.337C126.79 169.67 126.39 168.929 126.123 168.112C125.873 167.295 125.748 166.462 125.748 165.612V165.162C125.748 164.295 125.873 163.454 126.123 162.637C126.39 161.82 126.79 161.087 127.323 160.437C127.857 159.77 128.532 159.245 129.348 158.862C130.182 158.462 131.157 158.262 132.273 158.262C133.723 158.262 134.915 158.579 135.848 159.212C136.798 159.829 137.498 160.629 137.948 161.612C138.415 162.595 138.648 163.645 138.648 164.762V165.837H126.798V164.037H136.898L136.348 165.012C136.348 164.062 136.198 163.245 135.898 162.562C135.598 161.862 135.148 161.32 134.548 160.937C133.948 160.554 133.19 160.362 132.273 160.362C131.323 160.362 130.532 160.579 129.898 161.012C129.282 161.445 128.815 162.037 128.498 162.787C128.198 163.537 128.048 164.404 128.048 165.387C128.048 166.337 128.198 167.195 128.498 167.962C128.815 168.712 129.298 169.312 129.948 169.762C130.598 170.195 131.423 170.412 132.423 170.412C133.473 170.412 134.323 170.179 134.973 169.712C135.64 169.245 136.04 168.704 136.173 168.087H138.423C138.24 169.004 137.873 169.795 137.323 170.462C136.773 171.129 136.082 171.637 135.248 171.987C134.415 172.337 133.473 172.512 132.423 172.512ZM142.056 172.062V158.712H143.956V164.437H143.656C143.656 163.12 143.831 162.012 144.181 161.112C144.548 160.195 145.098 159.504 145.831 159.037C146.564 158.554 147.489 158.312 148.606 158.312H148.706C150.389 158.312 151.631 158.837 152.431 159.887C153.248 160.937 153.656 162.454 153.656 164.437V172.062H151.256V163.937C151.256 162.904 150.964 162.079 150.381 161.462C149.798 160.829 148.998 160.512 147.981 160.512C146.931 160.512 146.081 160.837 145.431 161.487C144.781 162.137 144.456 163.004 144.456 164.087V172.062H142.056ZM163.772 172.512C162.622 172.512 161.622 172.312 160.772 171.912C159.939 171.512 159.247 170.979 158.697 170.312C158.147 169.629 157.731 168.879 157.447 168.062C157.181 167.245 157.047 166.429 157.047 165.612V165.162C157.047 164.312 157.181 163.479 157.447 162.662C157.731 161.845 158.147 161.112 158.697 160.462C159.264 159.795 159.964 159.262 160.797 158.862C161.631 158.462 162.606 158.262 163.722 158.262C164.839 158.262 165.839 158.47 166.722 158.887C167.622 159.304 168.339 159.895 168.872 160.662C169.422 161.412 169.731 162.304 169.797 163.337H167.497C167.381 162.504 166.997 161.812 166.347 161.262C165.697 160.695 164.822 160.412 163.722 160.412C162.772 160.412 161.981 160.629 161.347 161.062C160.714 161.495 160.239 162.087 159.922 162.837C159.606 163.587 159.447 164.437 159.447 165.387C159.447 166.304 159.606 167.145 159.922 167.912C160.239 168.662 160.714 169.262 161.347 169.712C161.997 170.145 162.806 170.362 163.772 170.362C164.522 170.362 165.172 170.229 165.722 169.962C166.272 169.695 166.714 169.337 167.047 168.887C167.381 168.437 167.581 167.929 167.647 167.362H169.947C169.897 168.412 169.589 169.32 169.022 170.087C168.472 170.854 167.739 171.454 166.822 171.887C165.922 172.304 164.906 172.512 163.772 172.512ZM178.883 172.512C177.717 172.512 176.708 172.312 175.858 171.912C175.008 171.512 174.317 170.987 173.783 170.337C173.25 169.67 172.85 168.929 172.583 168.112C172.333 167.295 172.208 166.462 172.208 165.612V165.162C172.208 164.295 172.333 163.454 172.583 162.637C172.85 161.82 173.25 161.087 173.783 160.437C174.317 159.77 174.992 159.245 175.808 158.862C176.642 158.462 177.617 158.262 178.733 158.262C180.183 158.262 181.375 158.579 182.308 159.212C183.258 159.829 183.958 160.629 184.408 161.612C184.875 162.595 185.108 163.645 185.108 164.762V165.837H173.258V164.037H183.358L182.808 165.012C182.808 164.062 182.658 163.245 182.358 162.562C182.058 161.862 181.608 161.32 181.008 160.937C180.408 160.554 179.65 160.362 178.733 160.362C177.783 160.362 176.992 160.579 176.358 161.012C175.742 161.445 175.275 162.037 174.958 162.787C174.658 163.537 174.508 164.404 174.508 165.387C174.508 166.337 174.658 167.195 174.958 167.962C175.275 168.712 175.758 169.312 176.408 169.762C177.058 170.195 177.883 170.412 178.883 170.412C179.933 170.412 180.783 170.179 181.433 169.712C182.1 169.245 182.5 168.704 182.633 168.087H184.883C184.7 169.004 184.333 169.795 183.783 170.462C183.233 171.129 182.542 171.637 181.708 171.987C180.875 172.337 179.933 172.512 178.883 172.512ZM192.891 172.462C191.141 172.462 189.783 172.087 188.816 171.337C187.866 170.587 187.374 169.562 187.341 168.262H189.591C189.624 168.779 189.883 169.27 190.366 169.737C190.866 170.187 191.708 170.412 192.891 170.412C193.958 170.412 194.774 170.204 195.341 169.787C195.908 169.354 196.191 168.829 196.191 168.212C196.191 167.662 195.983 167.237 195.566 166.937C195.149 166.62 194.474 166.412 193.541 166.312L192.091 166.162C190.824 166.029 189.791 165.654 188.991 165.037C188.191 164.404 187.791 163.52 187.791 162.387C187.791 161.537 188.008 160.812 188.441 160.212C188.874 159.595 189.474 159.129 190.241 158.812C191.008 158.479 191.891 158.312 192.891 158.312C194.391 158.312 195.608 158.645 196.541 159.312C197.474 159.979 197.958 160.97 197.991 162.287H195.741C195.724 161.754 195.474 161.304 194.991 160.937C194.524 160.554 193.824 160.362 192.891 160.362C191.958 160.362 191.249 160.554 190.766 160.937C190.283 161.32 190.041 161.804 190.041 162.387C190.041 162.887 190.208 163.287 190.541 163.587C190.891 163.887 191.458 164.079 192.241 164.162L193.691 164.312C195.124 164.462 196.274 164.862 197.141 165.512C198.008 166.145 198.441 167.045 198.441 168.212C198.441 169.045 198.199 169.787 197.716 170.437C197.249 171.07 196.599 171.57 195.766 171.937C194.933 172.287 193.974 172.462 192.891 172.462Z" fill="#333931"/>
</svg>
