<svg width="79" height="79" viewBox="0 0 79 79" fill="none" xmlns="http://www.w3.org/2000/svg">
<rect x="0.5" y="0.470215" width="78" height="78" rx="39" fill="white"/>
<path d="M52.04 43.4102C52.4623 42.9036 52.8 42.3125 53.0534 41.6369C53.3067 40.9614 53.4334 40.2858 53.4334 39.6102C53.4334 38.5125 53.0534 37.5836 52.2934 36.8236C51.5334 36.0636 50.6045 35.6836 49.5067 35.6836C48.4089 35.6836 47.48 36.0636 46.72 36.8236C45.96 37.5836 45.58 38.5336 45.58 39.6736C45.58 40.8136 45.8756 41.848 46.4667 42.7769L46.8467 43.4102C45.9178 43.4102 45.0734 43.7058 44.3134 44.2969C43.9756 44.2125 43.6378 44.1702 43.3 44.1702H42.6667C43.0889 43.8325 43.4267 43.4102 43.68 42.9036C44.5245 41.5525 44.9467 39.9902 44.9467 38.2169C44.9467 37.288 44.7145 36.4014 44.25 35.5569C43.7856 34.7125 43.1311 34.0369 42.2867 33.5302C41.4423 33.0236 40.5134 32.7702 39.5 32.7702C38.4867 32.7702 37.5578 33.0236 36.7134 33.5302C35.8689 34.0369 35.2145 34.7125 34.75 35.5569C34.2856 36.4014 34.0534 37.288 34.0534 38.2169C34.0534 39.9902 34.4756 41.5525 35.32 42.9036C35.5734 43.3258 35.9111 43.748 36.3334 44.1702H35.7C35.3623 44.1702 35.0245 44.2125 34.6867 44.2969C33.9267 43.7058 33.0823 43.4102 32.1534 43.4102L32.5334 42.7769C33.1245 41.848 33.42 40.8136 33.42 39.6736C33.42 38.5336 33.04 37.5836 32.28 36.8236C31.52 36.0636 30.5911 35.6836 29.4934 35.6836C28.3956 35.6836 27.4667 36.0636 26.7067 36.8236C25.9467 37.5836 25.5667 38.5125 25.5667 39.6102C25.5667 40.2858 25.6934 40.9614 25.9467 41.6369C26.2 42.3125 26.5378 42.9036 26.96 43.4102C25.7778 43.4102 24.7856 43.7902 23.9834 44.5502C23.1811 45.3102 22.78 46.2391 22.78 47.3369V51.8969C22.78 52.0658 22.8223 52.2136 22.9067 52.3402C22.9911 52.4669 23.1178 52.5302 23.2867 52.5302H29.8734V56.3302C29.8734 56.4991 29.9367 56.6258 30.0634 56.7102C30.19 56.7947 30.3378 56.8369 30.5067 56.8369H48.4934C48.6623 56.8369 48.81 56.7947 48.9367 56.7102C49.0634 56.6258 49.1267 56.4991 49.1267 56.3302V52.5302H55.7134C55.8823 52.5302 56.0089 52.4669 56.0934 52.3402C56.1778 52.2136 56.22 52.0658 56.22 51.8969V47.3369C56.22 46.2391 55.8189 45.3102 55.0167 44.5502C54.2145 43.7902 53.2223 43.4102 52.04 43.4102ZM46.72 39.6102C46.72 38.8502 46.9945 38.1958 47.5434 37.6469C48.0923 37.098 48.7467 36.8236 49.5067 36.8236C50.2667 36.8236 50.9211 37.098 51.47 37.6469C52.0189 38.1958 52.2934 38.8925 52.2934 39.7369C52.2934 40.5814 52.0823 41.3414 51.66 42.0169C51.1534 42.9458 50.4356 43.4102 49.5067 43.4102C48.5778 43.4102 47.86 42.9458 47.3534 42.0169C46.9311 41.3414 46.72 40.5391 46.72 39.6102ZM39.5 34.0369C40.6823 34.0369 41.6956 34.438 42.54 35.2402C43.3845 36.0425 43.8067 37.0347 43.8067 38.2169V38.3436C42.8778 38.2591 42.0756 38.0902 41.4 37.8369C40.5556 37.4991 39.6689 36.9925 38.74 36.3169C38.5711 36.148 38.36 36.148 38.1067 36.3169L35.1934 37.9636C35.2778 36.8658 35.7423 35.9369 36.5867 35.1769C37.4311 34.4169 38.4023 34.0369 39.5 34.0369ZM36.3334 42.2702C35.8267 41.4258 35.4889 40.4547 35.32 39.3569L38.36 37.4569C39.2889 38.1325 40.2178 38.6391 41.1467 38.9769C41.8223 39.2302 42.6667 39.4414 43.68 39.6102C43.5111 40.6236 43.1734 41.5102 42.6667 42.2702C41.9067 43.5369 40.8511 44.1702 39.5 44.1702C38.1489 44.1702 37.0934 43.5369 36.3334 42.2702ZM26.7067 39.6102C26.7067 38.8502 26.9811 38.1958 27.53 37.6469C28.0789 37.098 28.7334 36.8236 29.4934 36.8236C30.2534 36.8236 30.9078 37.098 31.4567 37.6469C32.0056 38.1958 32.28 38.8925 32.28 39.7369C32.28 40.5814 32.0689 41.3414 31.6467 42.0169C31.14 42.9458 30.4223 43.4102 29.4934 43.4102C28.5645 43.4102 27.8467 42.9458 27.34 42.0169C26.9178 41.3414 26.7067 40.5391 26.7067 39.6102ZM23.92 51.3902V47.3369C23.92 46.5769 24.2156 45.9436 24.8067 45.4369C25.3978 44.9302 26.1156 44.6769 26.96 44.6769H32.1534C32.4911 44.6769 32.7867 44.7191 33.04 44.8036C32.1111 45.2258 31.3511 45.8802 30.76 46.7669C30.1689 47.6536 29.8734 48.6036 29.8734 49.6169V51.3902H23.92ZM47.9867 55.6969H44.9467V52.0236C44.9467 51.8547 44.8834 51.7069 44.7567 51.5802C44.63 51.4536 44.4823 51.3902 44.3134 51.3902C44.1445 51.3902 44.0178 51.4536 43.9334 51.5802C43.8489 51.7069 43.8067 51.8547 43.8067 52.0236V55.6969H35.1934V52.0236C35.1934 51.8547 35.1511 51.7069 35.0667 51.5802C34.9823 51.4536 34.8556 51.3902 34.6867 51.3902C34.5178 51.3902 34.37 51.4536 34.2434 51.5802C34.1167 51.7069 34.0534 51.8547 34.0534 52.0236V55.6969H31.0134V49.6169C31.0134 48.4347 31.4778 47.4214 32.4067 46.5769C33.3356 45.7325 34.4334 45.3102 35.7 45.3102H43.3C44.5667 45.3102 45.6645 45.7325 46.5934 46.5769C47.5223 47.4214 47.9867 48.4347 47.9867 49.6169V55.6969ZM55.08 51.3902H49.1267V49.6169C49.1267 48.6036 48.8311 47.6536 48.24 46.7669C47.6489 45.8802 46.8889 45.2258 45.96 44.8036C46.2134 44.7191 46.5089 44.6769 46.8467 44.6769H52.04C52.8845 44.6769 53.6023 44.9302 54.1934 45.4369C54.7845 45.9436 55.08 46.5769 55.08 47.3369V51.3902ZM36.2067 27.1969L35.7 30.3636C35.7 30.6169 35.7845 30.8069 35.9534 30.9336C36.1223 31.0602 36.3334 31.0814 36.5867 30.9969L39.5 29.4769L42.4134 30.9969C42.6667 31.0814 42.8778 31.0602 43.0467 30.9336C43.2156 30.8069 43.3 30.6169 43.3 30.3636L42.7934 27.1969L45.0734 24.7902C45.2423 24.6214 45.2845 24.4314 45.2 24.2202C45.1156 24.0091 44.9467 23.8614 44.6934 23.7769L41.5267 23.2702L40.0067 20.3569C39.9223 20.188 39.7534 20.1036 39.5 20.1036C39.2467 20.1036 39.0778 20.188 38.9934 20.3569L37.4734 23.2702L34.3067 23.7769C34.0534 23.8614 33.8845 24.0091 33.8 24.2202C33.7156 24.4314 33.7578 24.6214 33.9267 24.7902L36.2067 27.1969ZM37.98 24.4102C38.1489 24.3258 38.2756 24.1991 38.36 24.0302L39.5 21.8769L40.64 24.0302C40.7245 24.1991 40.8511 24.3258 41.02 24.4102L43.4267 24.7902L41.78 26.5636C41.6111 26.648 41.5267 26.8169 41.5267 27.0702L41.9067 29.3502L39.7534 28.3369C39.5845 28.2525 39.4156 28.2525 39.2467 28.3369L37.0934 29.3502L37.4734 27.0702C37.4734 26.8169 37.3889 26.648 37.22 26.5636L35.5734 24.7902L37.98 24.4102ZM25.1867 28.0836L24.8067 30.3636C24.8067 30.6169 24.9123 30.8069 25.1234 30.9336C25.3345 31.0602 25.5245 31.0814 25.6934 30.9969L27.72 29.9836L29.7467 30.9969C29.9156 31.0814 30.1056 31.0602 30.3167 30.9336C30.5278 30.8069 30.6334 30.6169 30.6334 30.3636L30.2534 28.0836L31.7734 26.5636C31.9423 26.3947 32.0056 26.1836 31.9634 25.9302C31.9211 25.6769 31.7734 25.5502 31.52 25.5502L29.24 25.1702L28.2267 23.1436C28.1423 22.9747 27.9734 22.8902 27.72 22.8902C27.4667 22.8902 27.2978 22.9747 27.2134 23.1436L26.2 25.1702L23.92 25.5502C23.6667 25.5502 23.5189 25.6769 23.4767 25.9302C23.4345 26.1836 23.4978 26.3947 23.6667 26.5636L25.1867 28.0836ZM26.58 26.3102C26.8334 26.2258 27.0023 26.0991 27.0867 25.9302L27.72 24.6636L28.3534 25.9302C28.4378 26.0991 28.5645 26.2258 28.7334 26.3102L30.1267 26.5636L29.24 27.5769C29.0711 27.6614 28.9867 27.788 28.9867 27.9569L29.24 29.3502L27.9734 28.8436C27.8045 28.7591 27.6356 28.7591 27.4667 28.8436L26.2 29.3502L26.4534 27.9569C26.4534 27.788 26.3689 27.6614 26.2 27.5769L25.3134 26.5636L26.58 26.3102ZM48.7467 28.0836L48.3667 30.3636C48.3667 30.6169 48.4723 30.8069 48.6834 30.9336C48.8945 31.0602 49.0845 31.0814 49.2534 30.9969L51.28 29.9836L53.3067 30.9969C53.4756 31.0814 53.6656 31.0602 53.8767 30.9336C54.0878 30.8069 54.1934 30.6169 54.1934 30.3636L53.8134 28.0836L55.3334 26.5636C55.5023 26.3947 55.5656 26.1836 55.5234 25.9302C55.4811 25.6769 55.3334 25.5502 55.08 25.5502L52.8 25.1702L51.7867 23.1436C51.7023 22.9747 51.5334 22.8902 51.28 22.8902C51.0267 22.8902 50.8578 22.9747 50.7734 23.1436L49.76 25.1702L47.48 25.5502C47.2267 25.5502 47.0789 25.6769 47.0367 25.9302C46.9945 26.1836 47.0578 26.3947 47.2267 26.5636L48.7467 28.0836ZM50.2667 26.3102C50.4356 26.2258 50.5623 26.0991 50.6467 25.9302L51.28 24.6636L51.9134 25.9302C51.9978 26.0991 52.1667 26.2258 52.42 26.3102L53.6867 26.5636L52.8 27.5769C52.6311 27.6614 52.5467 27.788 52.5467 27.9569L52.8 29.3502L51.5334 28.8436C51.3645 28.7591 51.1956 28.7591 51.0267 28.8436L49.76 29.3502L50.0134 27.9569C50.0134 27.788 49.9289 27.6614 49.76 27.5769L48.8734 26.5636L50.2667 26.3102Z" fill="#0E2A46"/>
</svg>
