<svg width="79" height="79" viewBox="0 0 79 79" fill="none" xmlns="http://www.w3.org/2000/svg">
<rect x="0.5" y="0.470215" width="78" height="78" rx="39" fill="white"/>
<path d="M55 51.9336H24V54.0003H55V51.9336Z" stroke="black" stroke-linejoin="round"/>
<path d="M44.6666 28.1665H34.3333V51.9332H44.6666V28.1665Z" stroke="black" stroke-linejoin="round"/>
<path d="M34.3333 28.1667L39.5 23L44.6666 28.1667" stroke="black" stroke-linejoin="round"/>
<path d="M34.3333 36.4336H26.0667V51.9336" stroke="black" stroke-linejoin="round"/>
<path d="M32.2667 38.5H28.1333V47.8H32.2667V38.5Z" stroke="black" stroke-linejoin="round"/>
<path d="M26.0667 49.8667H34.3333" stroke="black" stroke-linejoin="round"/>
<path d="M28.1333 41.6001H32.2667" stroke="black" stroke-linejoin="round"/>
<path d="M28.1333 44.6997H32.2667" stroke="black" stroke-linejoin="round"/>
<path d="M30.2 38.5V47.8" stroke="black" stroke-linejoin="round"/>
<path d="M44.6667 36.4336H52.9334V51.9336" stroke="black" stroke-linejoin="round"/>
<path d="M46.7333 47.8003H50.8667V38.5003H46.7333V47.8003Z" stroke="black" stroke-linejoin="round"/>
<path d="M52.9334 49.8667H44.6667" stroke="black" stroke-linejoin="round"/>
<path d="M50.8667 41.6001H46.7333" stroke="black" stroke-linejoin="round"/>
<path d="M50.8667 44.6997H46.7333" stroke="black" stroke-linejoin="round"/>
<path d="M48.8 38.5V47.8" stroke="black" stroke-linejoin="round"/>
<path d="M39.5 36.4334C41.2121 36.4334 42.6 35.0455 42.6 33.3334C42.6 31.6213 41.2121 30.2334 39.5 30.2334C37.7879 30.2334 36.4 31.6213 36.4 33.3334C36.4 35.0455 37.7879 36.4334 39.5 36.4334Z" stroke="black" stroke-linejoin="round"/>
<path d="M36.4 51.9334V48.8334C36.4 48.0112 36.7266 47.2227 37.308 46.6414C37.8893 46.06 38.6778 45.7334 39.5 45.7334C40.3222 45.7334 41.1107 46.06 41.692 46.6414C42.2734 47.2227 42.6 48.0112 42.6 48.8334V51.9334" stroke="black" stroke-linejoin="round"/>
<path d="M42.0834 41.6001H36.9167V43.6668H42.0834V41.6001Z" stroke="black" stroke-linejoin="round"/>
<path d="M40.5333 48.8335V49.8668" stroke="black" stroke-linejoin="round"/>
<path d="M39.5 31.7832V33.3332L40.5333 34.3665" stroke="black" stroke-linejoin="round"/>
<path d="M48.8 36.4334V30.2334H52.9334V33.3334H48.8" stroke="black" stroke-linejoin="round"/>
<path d="M30.2 36.4334V30.2334H26.0667V33.3334H30.2" stroke="black" stroke-linejoin="round"/>
</svg>
