<svg width="79" height="79" viewBox="0 0 79 79" fill="none" xmlns="http://www.w3.org/2000/svg">
<rect x="0.5" y="0.470215" width="78" height="78" rx="39" fill="white"/>
<g clip-path="url(#clip0_1_683)">
<path d="M58.24 40.5199L53.0466 31.3999C52.8777 31.1466 52.6877 30.9988 52.4766 30.9566C52.2655 30.9144 52.0755 30.9355 51.9066 31.0199L50.0066 32.1599V25.0666L46.2066 20.7599L45.9533 20.6333H31.1333C30.7955 20.6333 30.5211 20.7388 30.31 20.9499C30.0988 21.161 29.9933 21.3932 29.9933 21.6466V33.4266L28.0933 32.2866C27.9244 32.2021 27.7344 32.181 27.5233 32.2233C27.3122 32.2655 27.1222 32.371 26.9533 32.5399L21.76 41.7866C21.5911 41.9555 21.5488 42.1666 21.6333 42.4199C21.7177 42.6733 21.8444 42.8421 22.0133 42.9266L26.32 45.4599C26.9955 46.051 27.5866 46.7266 28.0933 47.4866L26.7 50.0199C26.4466 50.4421 26.3411 50.9066 26.3833 51.4133C26.4255 51.9199 26.6155 52.3421 26.9533 52.6799C27.2911 53.0177 27.6922 53.2288 28.1566 53.3133C28.6211 53.3977 29.1066 53.3555 29.6133 53.1866C29.7822 53.7777 30.1833 54.221 30.8166 54.5166C31.45 54.8121 32.0622 54.791 32.6533 54.4533C32.8222 55.0444 33.1811 55.4666 33.73 55.7199C34.2788 55.9733 34.8066 56.0577 35.3133 55.9733C35.5666 55.8888 35.82 55.7621 36.0733 55.5933C36.2422 56.0155 36.5166 56.3533 36.8966 56.6066C37.2766 56.8599 37.6777 56.9866 38.1 56.9866C38.9444 56.9866 39.5777 56.6066 40 55.8466L42.0266 57.1133C42.4488 57.3666 42.9133 57.4721 43.42 57.4299C43.9266 57.3877 44.3911 57.1977 44.8133 56.8599C45.2355 56.5221 45.5311 56.121 45.7 55.6566C45.8688 55.1921 45.8688 54.7066 45.7 54.1999V53.9466H45.9533C46.6288 53.7777 47.1355 53.3766 47.4733 52.7433C47.8111 52.1099 47.8955 51.4555 47.7266 50.7799L47.6 50.6533C48.36 50.4844 48.9511 50.0621 49.3733 49.3866C49.7955 48.711 49.88 47.9933 49.6266 47.2333C50.3866 47.0644 50.9355 46.6421 51.2733 45.9666L51.5266 45.7133C51.78 45.5444 52.1177 45.2699 52.54 44.8899C52.9622 44.5099 53.2155 44.3199 53.3 44.3199C53.3844 44.3199 53.4688 44.2777 53.5533 44.1933L57.9866 41.6599C58.1555 41.5755 58.2822 41.4277 58.3666 41.2166C58.4511 41.0055 58.4088 40.7733 58.24 40.5199ZM46.46 22.6599L48.1066 24.4333H46.46V22.6599ZM31.1333 21.7733H45.1933V25.0666C45.1933 25.2355 45.2566 25.3833 45.3833 25.5099C45.51 25.6366 45.6577 25.6999 45.8266 25.6999H48.8666V32.7933L47.6 33.5533C46.3333 33.4688 44.9822 33.5533 43.5466 33.8066C41.9422 33.9755 40.6333 34.3133 39.62 34.8199L38.9866 35.0733C38.6488 35.1577 38.3533 35.2844 38.1 35.4533C35.9888 34.6933 34.0888 34.4399 32.4 34.6933L31.1333 34.0599V21.7733ZM26.4466 44.0666L22.9 42.0399L27.84 33.5533L31.3866 35.5799L26.4466 44.0666ZM29.74 51.2866L29.4866 51.6666C29.4022 51.9199 29.2122 52.0888 28.9166 52.1733C28.6211 52.2577 28.3466 52.2155 28.0933 52.0466C27.84 51.8777 27.6711 51.6666 27.5866 51.4133C27.5022 51.1599 27.5444 50.9066 27.7133 50.6533L29.8666 46.8533C29.9511 46.5999 30.1411 46.431 30.4366 46.3466C30.7322 46.2621 31.0066 46.3044 31.26 46.4733C31.5133 46.6421 31.6822 46.8744 31.7666 47.1699C31.8511 47.4655 31.8088 47.7399 31.64 47.9933L29.74 51.2866ZM32.78 52.6799L32.6533 52.9333C32.4844 53.1866 32.2522 53.3555 31.9566 53.4399C31.6611 53.5244 31.3866 53.5033 31.1333 53.3766C30.88 53.2499 30.7111 53.0388 30.6266 52.7433C30.5422 52.4477 30.5844 52.1733 30.7533 51.9199L32.6533 48.4999C32.8222 48.2466 33.0544 48.0988 33.35 48.0566C33.6455 48.0144 33.92 48.0566 34.1733 48.1833C34.4266 48.3099 34.5955 48.521 34.68 48.8166C34.7644 49.1121 34.7222 49.3866 34.5533 49.6399L32.78 52.6799ZM35.6933 54.3266C35.5244 54.5799 35.3133 54.7488 35.06 54.8333C34.8066 54.9177 34.5322 54.8755 34.2366 54.7066C33.9411 54.5377 33.7722 54.3055 33.73 54.0099C33.6877 53.7144 33.7088 53.4399 33.7933 53.1866L35.5666 50.2733C35.7355 50.0199 35.9677 49.851 36.2633 49.7666C36.5588 49.6821 36.8333 49.7033 37.0866 49.8299C37.34 49.9566 37.4877 50.1677 37.53 50.4633C37.5722 50.7588 37.5511 51.0333 37.4666 51.2866L36.0733 53.5666L35.6933 54.3266ZM37.5933 55.5933C37.34 55.4244 37.1711 55.2133 37.0866 54.9599C37.0022 54.7066 37.0022 54.4533 37.0866 54.1999L38.48 51.9199C38.6488 51.6666 38.86 51.4977 39.1133 51.4133C39.3666 51.3288 39.62 51.3499 39.8733 51.4766C40.1266 51.6033 40.2955 51.8144 40.38 52.1099C40.4644 52.4055 40.4222 52.6799 40.2533 52.9333L38.9866 55.2133C38.8177 55.4666 38.6066 55.6355 38.3533 55.7199C38.1 55.8044 37.8466 55.7621 37.5933 55.5933ZM44.4333 55.5933C44.2644 55.8466 43.99 56.0366 43.61 56.1633C43.23 56.2899 42.9133 56.2688 42.66 56.0999L40.6333 54.8333L41.3933 53.5666C41.5622 53.1444 41.6466 52.7221 41.6466 52.2999L43.9266 53.6933C44.2644 53.8621 44.4755 54.1366 44.56 54.5166C44.6444 54.8966 44.6022 55.2555 44.4333 55.5933ZM50.26 45.4599C50.0911 45.7977 49.8377 46.0088 49.5 46.0933C49.1622 46.1777 48.8244 46.1355 48.4866 45.9666L43.5466 43.0533C43.2933 42.9688 43.0822 42.9688 42.9133 43.0533C42.7444 43.1377 42.66 43.3066 42.66 43.5599C42.66 43.8133 42.7444 43.9821 42.9133 44.0666L47.8533 46.9799C48.1911 47.1488 48.4022 47.4021 48.4866 47.7399C48.5711 48.0777 48.5288 48.4155 48.36 48.7533C48.1911 49.091 47.9166 49.3021 47.5366 49.3866C47.1566 49.471 46.7977 49.4288 46.46 49.2599L42.66 47.1066C42.4911 47.0221 42.3011 47.0221 42.09 47.1066C41.8788 47.191 41.7733 47.3599 41.7733 47.6133C41.7733 47.8666 41.9 48.0355 42.1533 48.1199L45.9533 50.2733C46.2066 50.5266 46.3966 50.8221 46.5233 51.1599C46.65 51.4977 46.6077 51.8355 46.3966 52.1733C46.1855 52.511 45.9111 52.7221 45.5733 52.8066C45.2355 52.891 44.8977 52.8488 44.56 52.6799L42.0266 51.1599C41.7733 51.0755 41.52 51.1177 41.2666 51.2866C41.0133 50.8644 40.6544 50.5477 40.19 50.3366C39.7255 50.1255 39.24 50.1044 38.7333 50.2733V50.1466C38.5644 49.5555 38.2055 49.1121 37.6566 48.8166C37.1077 48.521 36.5377 48.4577 35.9466 48.6266H35.82V48.4999C35.6511 47.9088 35.2922 47.4655 34.7433 47.1699C34.1944 46.8744 33.6244 46.7688 33.0333 46.8533L32.9066 46.9799C32.8222 46.4733 32.6111 46.0721 32.2733 45.7766C31.9355 45.481 31.5344 45.291 31.07 45.2066C30.6055 45.1221 30.1622 45.1855 29.74 45.3966C29.3177 45.6077 28.98 45.9244 28.7266 46.3466C28.3888 45.7555 27.9666 45.2488 27.46 44.8266L32.6533 35.8333C34.0044 35.6644 35.5666 35.8755 37.34 36.4666L36.3266 40.1399C36.1577 40.6466 36.1155 41.1533 36.2 41.6599C36.2844 42.1666 36.4955 42.6521 36.8333 43.1166C37.1711 43.581 37.5088 43.8133 37.8466 43.8133C38.1844 43.8133 38.5222 43.5599 38.86 43.0533L38.9866 42.9266C39.4933 42.251 39.9155 41.5333 40.2533 40.7733C40.8444 39.8444 41.2244 39.3377 41.3933 39.2533L42.1533 39.1266L49.7533 43.5599C50.0911 43.7288 50.3233 44.0033 50.45 44.3833C50.5766 44.7633 50.5133 45.1221 50.26 45.4599ZM51.6533 44.1933C51.4 43.4333 50.9777 42.8844 50.3866 42.5466L42.5333 37.9866C42.3644 37.9021 42.1955 37.8599 42.0266 37.8599L41.14 38.1133C40.8022 38.1977 40.5066 38.4088 40.2533 38.7466C40 39.0844 39.6622 39.591 39.24 40.2666C38.9022 40.9421 38.48 41.6177 37.9733 42.2933L37.8466 42.5466C37.5933 42.1244 37.4455 41.7655 37.4033 41.4699C37.3611 41.1744 37.3822 40.8577 37.4666 40.5199L38.3533 37.0999C38.4377 36.931 38.5222 36.7621 38.6066 36.5933H38.7333C38.9022 36.4244 39.0711 36.2977 39.24 36.2133L40.1266 35.9599C41.0555 35.4533 42.28 35.1155 43.8 34.9466C45.0666 34.7777 46.2911 34.6933 47.4733 34.6933L52.4133 43.4333L51.6533 44.1933ZM53.5533 42.9266L48.6133 34.3133L52.16 32.2866L57.1 40.8999L53.5533 42.9266ZM36.58 31.6533C36.7488 31.6533 36.8755 31.5899 36.96 31.4633C37.0444 31.3366 37.0866 31.1888 37.0866 31.0199V27.0933C37.0866 26.9244 37.0444 26.7766 36.96 26.6499C36.8755 26.5233 36.7488 26.4599 36.58 26.4599H32.5266C32.3577 26.4599 32.2311 26.5233 32.1466 26.6499C32.0622 26.7766 32.02 26.9244 32.02 27.0933V31.0199C32.02 31.1888 32.0622 31.3366 32.1466 31.4633C32.2311 31.5899 32.3577 31.6533 32.5266 31.6533H36.58ZM33.16 27.5999H35.9466V30.3866H33.16V27.5999ZM35.6933 28.8666L34.8066 30.0066C34.6377 30.091 34.4688 30.1333 34.3 30.1333C34.1311 30.1333 34.0044 30.091 33.92 30.0066L33.4133 29.4999C33.3288 29.4155 33.2866 29.2888 33.2866 29.1199C33.2866 28.951 33.35 28.8033 33.4766 28.6766C33.6033 28.5499 33.7511 28.4866 33.92 28.4866C34.0888 28.4866 34.2155 28.5288 34.3 28.6133V28.7399L34.8066 28.1066C34.9755 27.9377 35.1655 27.8744 35.3766 27.9166C35.5877 27.9588 35.7355 28.0855 35.82 28.2966C35.9044 28.5077 35.8622 28.6977 35.6933 28.8666ZM38.86 31.2733C38.86 31.1044 38.9233 30.9566 39.05 30.8299C39.1766 30.7033 39.3244 30.6399 39.4933 30.6399H47.4733C47.6422 30.6399 47.7688 30.7033 47.8533 30.8299C47.9377 30.9566 47.98 31.1044 47.98 31.2733C47.98 31.4421 47.9377 31.5899 47.8533 31.7166C47.7688 31.8433 47.6422 31.9066 47.4733 31.9066H39.4933C39.3244 31.9066 39.1766 31.8433 39.05 31.7166C38.9233 31.5899 38.86 31.4421 38.86 31.2733ZM38.86 27.0933C38.86 26.9244 38.9233 26.7766 39.05 26.6499C39.1766 26.5233 39.3244 26.4599 39.4933 26.4599H43.1666C43.3355 26.4599 43.4833 26.5233 43.61 26.6499C43.7366 26.7766 43.8 26.9244 43.8 27.0933C43.8 27.2621 43.7366 27.3888 43.61 27.4733C43.4833 27.5577 43.3355 27.5999 43.1666 27.5999H39.4933C39.3244 27.5999 39.1766 27.5577 39.05 27.4733C38.9233 27.3888 38.86 27.2621 38.86 27.0933ZM38.86 29.1199C38.86 28.951 38.9233 28.8244 39.05 28.7399C39.1766 28.6555 39.3244 28.6133 39.4933 28.6133H44.6866C44.8555 28.6133 45.0033 28.6555 45.13 28.7399C45.2566 28.8244 45.32 28.951 45.32 29.1199C45.32 29.2888 45.2566 29.4366 45.13 29.5633C45.0033 29.6899 44.8555 29.7533 44.6866 29.7533H39.4933C39.3244 29.7533 39.1766 29.6899 39.05 29.5633C38.9233 29.4366 38.86 29.2888 38.86 29.1199Z" fill="#0E2A46"/>
</g>
<defs>
<clipPath id="clip0_1_683">
<rect width="38" height="38" fill="white" transform="matrix(1 0 0 -1 21 58)"/>
</clipPath>
</defs>
</svg>
