<svg width="79" height="79" viewBox="0 0 79 79" fill="none" xmlns="http://www.w3.org/2000/svg">
<rect x="0.5" y="0.470215" width="78" height="78" rx="39" fill="white"/>
<path d="M57.86 26.3331H55.0734V24.9398C55.0734 24.7709 55.01 24.6231 54.8834 24.4964C54.7567 24.3698 54.6089 24.3064 54.44 24.3064C51.6534 24.3064 49.3734 24.4331 47.6 24.6864C46.1645 24.8553 44.5178 25.1931 42.66 25.6998V25.5731C42.66 24.8131 42.4067 24.1798 41.9 23.6731C41.3934 23.1664 40.76 22.9131 40 22.9131C39.24 22.9131 38.6067 23.1664 38.1 23.6731C37.5934 24.1798 37.34 24.8131 37.34 25.5731V25.6998C35.4823 25.1931 33.8356 24.8553 32.4 24.6864C30.6267 24.4331 28.3467 24.3064 25.56 24.3064C25.3911 24.3064 25.2434 24.3698 25.1167 24.4964C24.99 24.6231 24.9267 24.7709 24.9267 24.9398V26.3331H22.14C21.9711 26.3331 21.8445 26.3964 21.76 26.5231C21.6756 26.6498 21.6334 26.7975 21.6334 26.9664V52.5531C21.6334 52.722 21.6756 52.8698 21.76 52.9964C21.8445 53.1231 21.9711 53.1864 22.14 53.1864H36.8334C36.8334 53.7775 37.0234 54.242 37.4034 54.5798C37.7834 54.9175 38.2267 55.0864 38.7334 55.0864H41.2667C41.8578 55.0864 42.3223 54.9175 42.66 54.5798C42.9978 54.242 43.1667 53.7775 43.1667 53.1864H57.86C58.0289 53.1864 58.1556 53.1231 58.24 52.9964C58.3245 52.8698 58.3667 52.722 58.3667 52.5531V26.9664C58.3667 26.7975 58.3245 26.6498 58.24 26.5231C58.1556 26.3964 58.0289 26.3331 57.86 26.3331ZM53.9334 25.4464V49.1331C48.1911 49.1331 43.7578 49.8931 40.6334 51.4131V43.5598H52.16C52.4134 43.5598 52.5823 43.4964 52.6667 43.3698C52.7511 43.2431 52.7934 43.0953 52.7934 42.9264C52.7089 41.9975 52.4134 41.1953 51.9067 40.5198C51.4 39.8442 50.7667 39.3375 50.0067 38.9998C50.5134 38.4931 50.7667 37.8809 50.7667 37.1631C50.7667 36.4453 50.5134 35.812 50.0067 35.2631C49.5 34.7142 48.8667 34.4398 48.1067 34.4398L47.6 34.5664C47.0934 33.9753 46.5023 33.5531 45.8267 33.2998C46.4178 32.7086 46.7134 32.0542 46.7134 31.3364C46.7134 30.6186 46.4389 29.9853 45.89 29.4364C45.3411 28.8875 44.6867 28.6131 43.9267 28.6131L43.5467 28.7398C43.1245 28.1486 42.5756 27.7264 41.9 27.4731L42.28 26.9664C44.3067 26.4598 45.9534 26.0798 47.22 25.8264C48.9934 25.6575 51.2311 25.5309 53.9334 25.4464ZM35.6934 41.0264C35.1867 40.0975 34.4689 39.422 33.54 38.9998C33.8778 38.662 34.0889 38.2398 34.1734 37.7331H37.2134C37.2978 38.2398 37.5511 38.662 37.9734 38.9998C36.96 39.422 36.2 40.0975 35.6934 41.0264ZM30.12 37.0998C30.12 36.6775 30.2678 36.3398 30.5634 36.0864C30.8589 35.8331 31.2178 35.7064 31.64 35.7064C32.0623 35.7064 32.4211 35.8331 32.7167 36.0864C33.0123 36.3398 33.16 36.6775 33.16 37.0998C33.16 37.522 33.0123 37.8809 32.7167 38.1764C32.4211 38.472 32.0623 38.6198 31.64 38.6198C31.2178 38.6198 30.8589 38.472 30.5634 38.1764C30.2678 37.8809 30.12 37.522 30.12 37.0998ZM34.1734 31.3998C34.1734 30.9775 34.3211 30.6186 34.6167 30.3231C34.9123 30.0275 35.2711 29.8798 35.6934 29.8798C36.1156 29.8798 36.4745 30.0275 36.77 30.3231C37.0656 30.6186 37.2134 30.9775 37.2134 31.3998C37.2134 31.822 37.0656 32.1598 36.77 32.4131C36.4745 32.6664 36.1156 32.7931 35.6934 32.7931C35.2711 32.7931 34.9123 32.6664 34.6167 32.4131C34.3211 32.1598 34.1734 31.822 34.1734 31.3998ZM40 28.2331C40.9289 28.2331 41.7311 28.5286 42.4067 29.1198C41.8156 29.542 41.4778 30.0909 41.3934 30.7664H38.3534C38.1845 30.1753 37.8889 29.6686 37.4667 29.2464C38.1423 28.5709 38.9867 28.2331 40 28.2331ZM43.9267 41.0264C43.42 40.0975 42.7022 39.422 41.7734 38.9998C42.1111 38.662 42.3645 38.2398 42.5334 37.7331H45.4467C45.6156 38.2398 45.8689 38.662 46.2067 38.9998C45.1934 39.422 44.4334 40.0975 43.9267 41.0264ZM39.8734 38.6198C39.4511 38.6198 39.0923 38.472 38.7967 38.1764C38.5011 37.8809 38.3534 37.522 38.3534 37.0998C38.3534 36.6775 38.5011 36.3398 38.7967 36.0864C39.0923 35.8331 39.4511 35.7064 39.8734 35.7064C40.2956 35.7064 40.6545 35.8331 40.95 36.0864C41.2456 36.3398 41.3934 36.6775 41.3934 37.0998C41.3934 37.522 41.2456 37.8809 40.95 38.1764C40.6545 38.472 40.2956 38.6198 39.8734 38.6198ZM37.5934 33.2998C38.0156 32.8775 38.2689 32.4131 38.3534 31.9064H39.3667V34.4398V34.5664C38.86 33.9753 38.2689 33.5531 37.5934 33.2998ZM41.3934 31.9064C41.4778 32.4131 41.6889 32.8775 42.0267 33.2998C41.52 33.5531 41.0556 33.8909 40.6334 34.3131V31.9064H41.3934ZM48.1067 39.8864C48.8667 39.8864 49.5634 40.1186 50.1967 40.5831C50.83 41.0475 51.2734 41.6175 51.5267 42.2931H44.6867C44.94 41.6175 45.3834 41.0475 46.0167 40.5831C46.65 40.1186 47.3467 39.8864 48.1067 39.8864ZM48.1067 38.6198C47.6845 38.6198 47.3256 38.472 47.03 38.1764C46.7345 37.8809 46.5867 37.522 46.5867 37.0998C46.5867 36.6775 46.7345 36.3398 47.03 36.0864C47.3256 35.8331 47.6845 35.7064 48.1067 35.7064C48.5289 35.7064 48.8878 35.8331 49.1834 36.0864C49.4789 36.3398 49.6267 36.6775 49.6267 37.0998C49.6267 37.522 49.4789 37.8809 49.1834 38.1764C48.8878 38.472 48.5289 38.6198 48.1067 38.6198ZM45.4467 36.5931H42.5334C42.3645 35.9175 42.0267 35.4109 41.52 35.0731C42.1956 34.3975 43.0189 34.0598 43.99 34.0598C44.9611 34.0598 45.7845 34.3975 46.46 35.0731C45.9534 35.4109 45.6156 35.9175 45.4467 36.5931ZM43.9267 32.7931C43.5045 32.7931 43.1456 32.6664 42.85 32.4131C42.5545 32.1598 42.4067 31.822 42.4067 31.3998C42.4067 30.9775 42.5545 30.6186 42.85 30.3231C43.1456 30.0275 43.5045 29.8798 43.9267 29.8798C44.3489 29.8798 44.7078 30.0275 45.0034 30.3231C45.2989 30.6186 45.4467 30.9775 45.4467 31.3998C45.4467 31.822 45.2989 32.1598 45.0034 32.4131C44.7078 32.6664 44.3489 32.7931 43.9267 32.7931ZM38.2267 35.0731C37.72 35.4109 37.3823 35.9175 37.2134 36.5931H34.1734C34.0889 35.9175 33.7934 35.4109 33.2867 35.0731C33.9623 34.3975 34.7856 34.0598 35.7567 34.0598C36.7278 34.0598 37.5511 34.3975 38.2267 35.0731ZM31.64 39.8864C32.4 39.8864 33.0967 40.1186 33.73 40.5831C34.3634 41.0475 34.8067 41.6175 35.06 42.2931H28.22C28.4734 41.6175 28.8956 41.0475 29.4867 40.5831C30.0778 40.1186 30.7956 39.8864 31.64 39.8864ZM39.8734 39.8864C40.6334 39.8864 41.33 40.1186 41.9634 40.5831C42.5967 41.0475 43.04 41.6175 43.2934 42.2931H36.4534C36.7067 41.6175 37.1289 41.0475 37.72 40.5831C38.3111 40.1186 39.0289 39.8864 39.8734 39.8864ZM40 24.0531C40.4223 24.0531 40.7811 24.2009 41.0767 24.4964C41.3722 24.792 41.52 25.1509 41.52 25.5731C41.52 25.9953 41.3722 26.3542 41.0767 26.6498C40.7811 26.9453 40.4223 27.0931 40 27.0931C39.5778 27.0931 39.2189 26.9453 38.9234 26.6498C38.6278 26.3542 38.48 25.9953 38.48 25.5731C38.48 25.1509 38.6278 24.792 38.9234 24.4964C39.2189 24.2009 39.5778 24.0531 40 24.0531ZM26.0667 25.4464C28.7689 25.5309 31.0067 25.6575 32.78 25.8264C34.0467 26.0798 35.6934 26.4598 37.72 26.9664L38.1 27.4731C37.4245 27.7264 36.8334 28.1486 36.3267 28.7398C36.1578 28.6553 35.9467 28.6131 35.6934 28.6131C34.9334 28.6131 34.3 28.8875 33.7934 29.4364C33.2867 29.9853 33.0334 30.6186 33.0334 31.3364C33.0334 32.0542 33.2867 32.7086 33.7934 33.2998C33.1178 33.5531 32.5689 33.9753 32.1467 34.5664L31.64 34.4398C30.88 34.4398 30.2256 34.7142 29.6767 35.2631C29.1278 35.812 28.8534 36.4453 28.8534 37.1631C28.8534 37.8809 29.1489 38.4931 29.74 38.9998C28.98 39.3375 28.3467 39.8442 27.84 40.5198C27.3334 41.1953 26.9956 41.9975 26.8267 42.9264C26.8267 43.0953 26.89 43.2431 27.0167 43.3698C27.1434 43.4964 27.2911 43.5598 27.46 43.5598H39.3667V51.4131C36.2423 49.8931 31.8089 49.1331 26.0667 49.1331V25.4464ZM57.2267 52.0464H42.66C42.4911 52.0464 42.3434 52.1098 42.2167 52.2364C42.09 52.3631 42.0267 52.4686 42.0267 52.5531V53.1864C42.0267 53.4398 41.9634 53.6298 41.8367 53.7564C41.71 53.8831 41.52 53.9464 41.2667 53.9464H38.7334C38.5645 53.9464 38.3956 53.8831 38.2267 53.7564C38.0578 53.6298 37.9734 53.4398 37.9734 53.1864V52.5531C37.9734 52.4686 37.91 52.3631 37.7834 52.2364C37.6567 52.1098 37.5511 52.0464 37.4667 52.0464H22.7734V27.5998H24.9267V49.6398C24.9267 49.8086 24.99 49.9564 25.1167 50.0831C25.2434 50.2098 25.3911 50.2731 25.56 50.2731C31.8934 50.2731 36.6223 51.1598 39.7467 52.9331C39.8311 53.0175 39.9156 53.0598 40 53.0598C40.0845 53.0598 40.1689 53.0175 40.2534 52.9331C43.3778 51.1598 48.1067 50.2731 54.44 50.2731C54.6089 50.2731 54.7567 50.2098 54.8834 50.0831C55.01 49.9564 55.0734 49.8086 55.0734 49.6398V27.5998H57.2267V52.0464ZM52.0334 45.5864C52.0334 45.7553 51.97 45.9031 51.8434 46.0298C51.7167 46.1564 51.5689 46.2198 51.4 46.2198C48.1911 46.3886 45.4889 46.8109 43.2934 47.4864H43.04C42.7867 47.4864 42.6178 47.3809 42.5334 47.1698C42.4489 46.9586 42.4489 46.7898 42.5334 46.6631C42.6178 46.5364 42.7445 46.4309 42.9134 46.3464C45.2778 45.6709 48.1067 45.2486 51.4 45.0798C51.5689 45.0798 51.6956 45.122 51.78 45.2064C51.8645 45.2909 51.9489 45.4175 52.0334 45.5864ZM37.4667 47.1064C37.3823 47.3598 37.2134 47.4864 36.96 47.4864H36.7067C34.5111 46.8109 31.8089 46.3886 28.6 46.2198C28.4311 46.2198 28.2834 46.1564 28.1567 46.0298C28.03 45.9031 27.9878 45.7553 28.03 45.5864C28.0723 45.4175 28.1356 45.2909 28.22 45.2064C28.3045 45.122 28.4311 45.0798 28.6 45.0798C31.8934 45.2486 34.7223 45.6709 37.0867 46.3464C37.2556 46.4309 37.3823 46.5364 37.4667 46.6631C37.5511 46.7898 37.5511 46.9375 37.4667 47.1064Z" fill="#0E2A46"/>
</svg>
