<svg width="162" height="80" viewBox="0 0 162 80" fill="none" xmlns="http://www.w3.org/2000/svg">
<path d="M12.3613 53.2677V24.5256H34.951V29.1842H18.3674V36.3971H33.6987V41.0557H18.3674V48.6214H35.7778V53.2677H12.3613Z" fill="#008479"/>
<path d="M54.6065 53.2677C54.5488 53.067 54.485 52.5561 54.412 51.7351C54.3391 50.908 54.3026 50.2238 54.3026 49.6795H54.2175C52.9835 52.3493 50.6339 53.6813 47.1658 53.6813C44.5944 53.6813 42.6095 52.6808 41.2084 50.6769C39.8132 48.6669 39.1172 45.8602 39.1172 42.2598C39.1172 38.6047 39.8528 35.7767 41.3299 33.7819C42.8041 31.7871 44.8923 30.7898 47.5913 30.7898C49.1536 30.7898 50.5032 31.1182 51.64 31.7749C52.7737 32.4257 53.6491 33.3927 54.2661 34.6821H54.3026L54.2661 31.0573V23.0052H59.9926V48.451C59.9926 49.8133 60.0443 51.4189 60.1506 53.2677H54.6065ZM54.3391 42.1139C54.3391 39.7298 53.9409 37.8992 53.1476 36.616C52.3513 35.3267 51.181 34.6821 49.6339 34.6821C48.102 34.6821 46.9591 35.3085 46.2053 36.5552C45.4576 37.7959 45.0868 39.6994 45.0868 42.2598C45.0868 47.2651 46.5883 49.7647 49.5974 49.7647C51.105 49.7647 52.2722 49.1048 53.0989 47.782C53.9257 46.4531 54.3391 44.5647 54.3391 42.1139Z" fill="#008479"/>
<path d="M71.2137 31.2034V43.5857C71.2137 47.4537 72.5176 49.3876 75.1286 49.3876C76.5147 49.3876 77.6332 48.7977 78.4842 47.6117C79.3353 46.4198 79.7609 44.8932 79.7609 43.0262V31.2034H85.4873V48.3294C85.4873 50.2116 85.539 51.8568 85.6454 53.2677H80.1864C80.0223 51.3155 79.9432 49.8498 79.9432 48.8767H79.8338C79.0709 50.5553 78.1013 51.7777 76.928 52.5379C75.7517 53.2982 74.3566 53.6813 72.7456 53.6813C70.4022 53.6813 68.6058 52.9636 67.3596 51.5284C66.1104 50.0931 65.4873 47.9888 65.4873 45.2156V31.2034H71.2137Z" fill="#008479"/>
<path d="M89.8511 53.2678V49.2903C90.5956 47.6452 91.6566 46.0396 93.0366 44.4736C94.4227 42.9106 96.1613 41.2807 98.2524 39.5839C100.262 37.954 101.672 36.6099 102.483 35.5456C103.292 34.4844 103.7 33.4414 103.7 32.4196C103.7 29.9231 102.438 28.6733 99.9181 28.6733C98.6932 28.6733 97.7575 29.0018 97.1099 29.6586C96.4683 30.3154 96.0549 31.3067 95.8697 32.6264L90.0947 32.298C90.4163 29.6404 91.4104 27.609 93.0735 26.2042C94.7418 24.8023 97.0121 24.0999 99.882 24.0999C102.976 24.0999 105.353 24.8115 107.006 26.2285C108.666 27.6395 109.499 29.6221 109.499 32.1764C109.499 33.5235 109.235 34.7429 108.709 35.8376C108.18 36.9262 107.499 37.9267 106.666 38.8419C105.839 39.7603 104.919 40.6178 103.906 41.4206C102.891 42.2234 101.912 43.0079 100.964 43.7681C100.016 44.5314 99.1461 45.3007 98.3622 46.0792C97.5842 46.8516 97.0035 47.6787 96.6236 48.5605H109.948V53.2678H89.8511Z" fill="#FF914D"/>
<path d="M134.72 53.2677L132.166 45.921H121.224L118.671 53.2677H112.665L123.133 24.5256H130.233L140.665 53.2677H134.72ZM126.683 28.9531L126.561 29.4032C126.421 29.8988 126.258 30.4583 126.063 31.0817C125.874 31.7081 124.707 35.1443 122.562 41.3963H130.829L127.984 33.1373L127.108 30.3641L126.683 28.9531Z" fill="#008479"/>
<path d="M144.678 53.2677V23.0052H150.404V53.2677H144.678Z" fill="#008479"/>
<path d="M156.274 53.2677V23.0052H162V53.2677H156.274Z" fill="#008479"/>
<mask id="mask0_28_2483" style="mask-type:luminance" maskUnits="userSpaceOnUse" x="3" y="22" width="7" height="10">
<path d="M3.79053 22.5631H9.21606V31.8651H3.79053V22.5631Z" fill="white"/>
</mask>
<g mask="url(#mask0_28_2483)">
<mask id="mask1_28_2483" style="mask-type:luminance" maskUnits="userSpaceOnUse" x="-1" y="-1" width="51" height="33">
<path d="M-0.249023 1.13423L48.815 -0.118599L49.5992 30.5788L0.535174 31.8225L-0.249023 1.13423Z" fill="white"/>
</mask>
<g mask="url(#mask1_28_2483)">
<mask id="mask2_28_2483" style="mask-type:luminance" maskUnits="userSpaceOnUse" x="-1" y="-1" width="51" height="33">
<path d="M-0.249023 1.13423L48.815 -0.118599L49.5992 30.5788L0.535174 31.8225L-0.249023 1.13423Z" fill="white"/>
</mask>
<g mask="url(#mask2_28_2483)">
<path fill-rule="evenodd" clip-rule="evenodd" d="M5.78754 22.8946C4.4775 24.7464 4.09149 27.2399 4.3924 30.2261C6.35593 31.8012 7.80578 31.7039 8.86963 30.3325C8.73891 24.564 7.8149 21.7178 5.78754 22.8946Z" fill="#F28F53"/>
</g>
</g>
</g>
<mask id="mask3_28_2483" style="mask-type:luminance" maskUnits="userSpaceOnUse" x="4" y="24" width="2" height="8">
<path d="M4.73584 24.8985H5.67809V31.1261H4.73584V24.8985Z" fill="white"/>
</mask>
<g mask="url(#mask3_28_2483)">
<mask id="mask4_28_2483" style="mask-type:luminance" maskUnits="userSpaceOnUse" x="-1" y="-1" width="51" height="33">
<path d="M-0.249023 1.13423L48.815 -0.118599L49.5992 30.5788L0.535174 31.8225L-0.249023 1.13423Z" fill="white"/>
</mask>
<g mask="url(#mask4_28_2483)">
<mask id="mask5_28_2483" style="mask-type:luminance" maskUnits="userSpaceOnUse" x="-1" y="-1" width="51" height="33">
<path d="M-0.249023 1.13423L48.815 -0.118599L49.5992 30.5788L0.535174 31.8225L-0.249023 1.13423Z" fill="white"/>
</mask>
<g mask="url(#mask5_28_2483)">
<path fill-rule="evenodd" clip-rule="evenodd" d="M5.66889 31.0623L5.35582 25.1752L4.92725 30.6427C5.19472 30.8038 5.4318 30.9437 5.66889 31.0623Z" fill="#FABB5B"/>
</g>
</g>
</g>
<mask id="mask6_28_2483" style="mask-type:luminance" maskUnits="userSpaceOnUse" x="6" y="26" width="2" height="6">
<path d="M6.10352 26.4554H7.56857V31.865H6.10352V26.4554Z" fill="white"/>
</mask>
<g mask="url(#mask6_28_2483)">
<mask id="mask7_28_2483" style="mask-type:luminance" maskUnits="userSpaceOnUse" x="-1" y="-1" width="51" height="33">
<path d="M-0.249023 1.13422L48.815 -0.118607L49.5992 30.5788L0.535174 31.8225L-0.249023 1.13422Z" fill="white"/>
</mask>
<g mask="url(#mask7_28_2483)">
<mask id="mask8_28_2483" style="mask-type:luminance" maskUnits="userSpaceOnUse" x="-1" y="-1" width="51" height="33">
<path d="M-0.249023 1.13422L48.815 -0.118607L49.5992 30.5788L0.535174 31.8225L-0.249023 1.13422Z" fill="white"/>
</mask>
<g mask="url(#mask8_28_2483)">
<path fill-rule="evenodd" clip-rule="evenodd" d="M6.60189 27.7873L6.67787 30.2899L6.22803 27.0271L6.55021 31.1901C6.78425 31.2539 7.02134 31.2874 7.23714 31.2965H7.25842L6.60189 27.7873Z" fill="#FABB5B"/>
</g>
</g>
</g>
<mask id="mask9_28_2483" style="mask-type:luminance" maskUnits="userSpaceOnUse" x="6" y="25" width="3" height="7">
<path d="M6.88135 25.4732H8.43758V31.865H6.88135V25.4732Z" fill="white"/>
</mask>
<g mask="url(#mask9_28_2483)">
<mask id="mask10_28_2483" style="mask-type:luminance" maskUnits="userSpaceOnUse" x="-1" y="-1" width="51" height="33">
<path d="M-0.249512 1.13422L48.8144 -0.118607L49.5986 30.5788L0.534685 31.8225L-0.249512 1.13422Z" fill="white"/>
</mask>
<g mask="url(#mask10_28_2483)">
<mask id="mask11_28_2483" style="mask-type:luminance" maskUnits="userSpaceOnUse" x="-1" y="-1" width="51" height="33">
<path d="M-0.249512 1.13422L48.8144 -0.118607L49.5986 30.5788L0.534685 31.8225L-0.249512 1.13422Z" fill="white"/>
</mask>
<g mask="url(#mask11_28_2483)">
<path fill-rule="evenodd" clip-rule="evenodd" d="M7.50439 25.6131L7.70804 31.266C7.84786 31.2113 7.98767 31.1353 8.12749 31.0501L8.19132 28.3225L7.81442 28.1492L7.50439 25.6131Z" fill="#FABB5B"/>
</g>
</g>
</g>
<mask id="mask12_28_2483" style="mask-type:luminance" maskUnits="userSpaceOnUse" x="12" y="11" width="25" height="13">
<path d="M12.3281 11.3241H36.9057V23.5909H12.3281V11.3241Z" fill="white"/>
</mask>
<g mask="url(#mask12_28_2483)">
<mask id="mask13_28_2483" style="mask-type:luminance" maskUnits="userSpaceOnUse" x="-1" y="-1" width="51" height="33">
<path d="M-0.249512 1.13423L48.8145 -0.118607L49.5987 30.5788L0.534685 31.8225L-0.249512 1.13423Z" fill="white"/>
</mask>
<g mask="url(#mask13_28_2483)">
<mask id="mask14_28_2483" style="mask-type:luminance" maskUnits="userSpaceOnUse" x="-1" y="-1" width="51" height="33">
<path d="M-0.249512 1.13423L48.8145 -0.118607L49.5987 30.5788L0.534685 31.8225L-0.249512 1.13423Z" fill="white"/>
</mask>
<g mask="url(#mask14_28_2483)">
<path d="M19.3371 19.9206C22.7839 19.4797 26.8872 19.6408 30.334 20.3585C32.3401 20.7751 35.5621 21.6843 36.5924 23.3963C36.5833 23.302 36.5621 23.2047 36.5195 23.1074C36.5408 21.7938 36.5712 20.3676 36.6046 18.9141C36.6259 17.7586 36.6471 16.5787 36.6806 15.414C36.4648 14.1916 34.1669 12.9935 30.6866 12.2668C27.2611 11.5491 23.1699 11.3667 19.7565 11.7863C15.9754 12.2334 13.4009 13.3463 12.4769 14.9093C12.4556 15.0492 12.4009 15.4019 12.4009 15.7455C12.4131 16.5909 12.4222 17.6187 12.4343 18.6677C12.4222 18.6677 12.4222 18.6677 12.4131 18.6556C12.4222 20.3463 12.4222 21.663 12.4131 22.5084C13.486 21.4593 15.5133 20.4102 19.3371 19.9206Z" fill="#04857A"/>
</g>
</g>
</g>
<mask id="mask15_28_2483" style="mask-type:luminance" maskUnits="userSpaceOnUse" x="0" y="0" width="49" height="18">
<path d="M0 0H48.8998V17.8924H0V0Z" fill="white"/>
</mask>
<g mask="url(#mask15_28_2483)">
<mask id="mask16_28_2483" style="mask-type:luminance" maskUnits="userSpaceOnUse" x="-1" y="-1" width="51" height="33">
<path d="M-0.249023 1.13423L48.815 -0.118595L49.5992 30.5788L0.535174 31.8225L-0.249023 1.13423Z" fill="white"/>
</mask>
<g mask="url(#mask16_28_2483)">
<mask id="mask17_28_2483" style="mask-type:luminance" maskUnits="userSpaceOnUse" x="-1" y="-1" width="51" height="33">
<path d="M-0.249023 1.13423L48.815 -0.118595L49.5992 30.5788L0.535174 31.8225L-0.249023 1.13423Z" fill="white"/>
</mask>
<g mask="url(#mask17_28_2483)">
<path d="M48.5993 11.0687L23.9548 0.556466C23.8575 0.513894 23.7512 0.526057 23.6539 0.56863L0.255686 11.9566C0.115868 12.0204 0.0307617 12.1695 0.0307617 12.3306C0.0307617 12.4918 0.128026 12.6317 0.267844 12.6955L11.5961 17.8437C11.5961 17.1474 11.584 16.3993 11.5748 15.5965C11.5627 15.0492 11.6721 14.5262 11.6721 14.5049L11.6813 14.4288L11.7146 14.365C12.435 13.0695 14.3986 11.4001 19.6296 10.7676C23.1281 10.351 27.3165 10.5335 30.8059 11.2603C33.1463 11.7529 37.119 12.9084 37.4412 15.1556L37.4533 15.189V15.2195C37.4321 16.1104 37.4199 16.9983 37.3986 17.8863L48.6206 11.8076C48.7512 11.7316 48.8364 11.5917 48.8242 11.4305C48.8364 11.2725 48.7391 11.1326 48.5993 11.0687Z" fill="#04857A"/>
</g>
</g>
</g>
<mask id="mask18_28_2483" style="mask-type:luminance" maskUnits="userSpaceOnUse" x="5" y="13" width="2" height="10">
<path d="M5.67773 13.2216H6.88138V22.5631H5.67773V13.2216Z" fill="white"/>
</mask>
<g mask="url(#mask18_28_2483)">
<mask id="mask19_28_2483" style="mask-type:luminance" maskUnits="userSpaceOnUse" x="-1" y="-1" width="51" height="33">
<path d="M-0.249512 1.13423L48.8144 -0.118599L49.5986 30.5788L0.534685 31.8225L-0.249512 1.13423Z" fill="white"/>
</mask>
<g mask="url(#mask19_28_2483)">
<mask id="mask20_28_2483" style="mask-type:luminance" maskUnits="userSpaceOnUse" x="-1" y="-1" width="51" height="33">
<path d="M-0.249512 1.13423L48.8144 -0.118599L49.5986 30.5788L0.534685 31.8225L-0.249512 1.13423Z" fill="white"/>
</mask>
<g mask="url(#mask20_28_2483)">
<path d="M6.68975 21.8455L5.93595 21.8576L5.88428 13.4345L6.63503 13.4223L6.68975 21.8455Z" fill="#0B5D56"/>
</g>
</g>
</g>
<mask id="mask21_28_2483" style="mask-type:luminance" maskUnits="userSpaceOnUse" x="4" y="20" width="5" height="4">
<path d="M4.73584 20.2277H8.43797V23.3416H4.73584V20.2277Z" fill="white"/>
</mask>
<g mask="url(#mask21_28_2483)">
<mask id="mask22_28_2483" style="mask-type:luminance" maskUnits="userSpaceOnUse" x="-1" y="-1" width="51" height="33">
<path d="M-0.249023 1.13421L48.815 -0.118622L49.5992 30.5788L0.535174 31.8225L-0.249023 1.13421Z" fill="white"/>
</mask>
<g mask="url(#mask22_28_2483)">
<mask id="mask23_28_2483" style="mask-type:luminance" maskUnits="userSpaceOnUse" x="-1" y="-1" width="51" height="33">
<path d="M-0.249023 1.13421L48.815 -0.118622L49.5992 30.5788L0.535174 31.8225L-0.249023 1.13421Z" fill="white"/>
</mask>
<g mask="url(#mask23_28_2483)">
<path fill-rule="evenodd" clip-rule="evenodd" d="M6.55925 20.626C7.34344 20.6473 7.95438 21.2585 7.93311 21.9944C7.924 22.7334 7.26746 23.3112 6.48326 23.302C5.70211 23.2807 5.08812 22.6695 5.10028 21.9306C5.12155 21.1825 5.77506 20.6048 6.55925 20.626Z" fill="#FABB5B"/>
</g>
</g>
</g>
<path d="M12.3892 22.5083L23.9454 11.5613L36.5199 23.1074" stroke="white" stroke-width="0.183661" stroke-miterlimit="10"/>
<mask id="mask24_28_2483" style="mask-type:luminance" maskUnits="userSpaceOnUse" x="12" y="61" width="150" height="19">
<path d="M12.6475 61.8022H161.937V79.1807H12.6475V61.8022Z" fill="white"/>
</mask>
<g mask="url(#mask24_28_2483)">
<mask id="mask25_28_2483" style="mask-type:luminance" maskUnits="userSpaceOnUse" x="12" y="61" width="150" height="19">
<path d="M21.3344 61.8022H153.222C155.526 61.8022 157.736 62.7175 159.365 64.3475C160.995 65.9773 161.909 68.188 161.909 70.493C161.909 72.7979 160.995 75.0056 159.365 76.6356C157.736 78.2654 155.526 79.1807 153.222 79.1807H21.3344C19.0305 79.1807 16.8208 78.2654 15.1915 76.6356C13.5624 75.0056 12.6475 72.7979 12.6475 70.493C12.6475 68.188 13.5624 65.9773 15.1915 64.3475C16.8208 62.7175 19.0305 61.8022 21.3344 61.8022Z" fill="white"/>
</mask>
<g mask="url(#mask25_28_2483)">
<path d="M12.6475 61.8022H161.937V79.1807H12.6475V61.8022Z" fill="#F28F53"/>
</g>
</g>
<path d="M48.7885 64.6644C49.0559 64.6644 49.3538 64.6736 49.6882 64.6888C50.0286 64.6979 50.3477 64.7192 50.6486 64.7496C50.9465 64.7739 51.1775 64.7983 51.3417 64.8226C51.4389 64.8317 51.4997 64.853 51.524 64.8834C51.5484 64.9169 51.5514 64.9746 51.5362 65.0537L51.4389 65.6497C51.4298 65.7318 51.4055 65.7927 51.366 65.8321C51.3326 65.8656 51.2566 65.8778 51.135 65.8687C50.8341 65.8534 50.4663 65.8382 50.0286 65.82C49.597 65.7957 49.1836 65.7835 48.7885 65.7835C48.4146 65.7835 48.0529 65.8169 47.7064 65.8808C47.3569 65.9477 47.0681 66.0815 46.8432 66.2822C46.6152 66.4859 46.5028 66.787 46.5028 67.1823C46.5028 67.5168 46.594 67.7905 46.7824 68.0094C46.9678 68.2222 47.2839 68.4777 47.7307 68.7757L48.8492 69.5298C49.4875 69.9525 49.9344 70.363 50.1867 70.7583C50.445 71.1567 50.5757 71.6067 50.5757 72.1084C50.5757 72.7501 50.4086 73.2883 50.0772 73.7262C49.7429 74.1641 49.29 74.4925 48.7155 74.7115C48.138 74.9304 47.4875 75.0398 46.758 75.0398C46.3843 75.0398 45.9738 75.0186 45.5301 74.979C45.0833 74.9395 44.7155 74.8939 44.4237 74.8452C44.2596 74.8209 44.1866 74.7418 44.2049 74.602L44.3022 74.0546C44.3173 73.9512 44.3417 73.8813 44.3751 73.8479C44.4146 73.8174 44.4967 73.8113 44.6182 73.8357C44.828 73.8539 45.0681 73.8692 45.3356 73.8843C45.603 73.8934 45.8706 73.9025 46.138 73.9086C46.4115 73.9086 46.6547 73.9086 46.8675 73.9086C47.6031 73.9086 48.1867 73.7718 48.6183 73.4951C49.0469 73.2214 49.2627 72.7592 49.2627 72.1084C49.2627 71.7771 49.1654 71.5003 48.9709 71.2813C48.7763 71.0624 48.4359 70.7887 47.9496 70.4542L46.758 69.6515C46.287 69.3352 45.9192 68.9825 45.6517 68.5933C45.3902 68.198 45.2626 67.7509 45.2626 67.2553C45.2626 66.6167 45.4237 66.1089 45.7489 65.7348C46.0803 65.3548 46.5149 65.0841 47.0498 64.9199C47.5848 64.7496 48.1623 64.6644 48.7885 64.6644Z" fill="white"/>
<path d="M57.9504 68.3622C57.4064 68.3622 56.9443 68.5659 56.5644 68.9703C56.1906 69.3778 55.9474 69.9313 55.8349 70.6367L55.6525 71.7071C55.5948 72.0173 55.5674 72.291 55.5674 72.5342C55.5674 73.0542 55.683 73.4283 55.92 73.6533C56.1632 73.8722 56.5066 73.9816 56.9535 73.9816C57.2939 73.9816 57.5887 73.9786 57.841 73.9695C58.0994 73.9543 58.379 73.9269 58.6799 73.8843C58.8744 73.854 58.9534 73.9209 58.9231 74.0911L58.838 74.5899C58.8136 74.754 58.7043 74.8513 58.5097 74.8818C58.2817 74.9243 58.0142 74.9578 57.7072 74.9913C57.4064 75.0216 57.0933 75.0399 56.7711 75.0399C56.2422 75.0399 55.8015 74.9304 55.4459 74.7115C55.0872 74.4865 54.8197 74.1763 54.6434 73.787C54.4641 73.3917 54.376 72.9478 54.376 72.4613C54.376 72.3335 54.379 72.2058 54.3881 72.0842C54.4033 71.9626 54.4246 71.8379 54.4489 71.7071L54.6191 70.6367C54.8045 69.5268 55.2027 68.6967 55.8106 68.1432C56.4185 67.5837 57.1906 67.304 58.1328 67.304C58.4489 67.304 58.7529 67.3222 59.0447 67.3527C59.3365 67.3769 59.5917 67.4134 59.8106 67.4621C59.9382 67.4803 60.0112 67.5107 60.0294 67.5594C60.0538 67.6019 60.0538 67.6659 60.0294 67.754L59.9565 68.2527C59.9474 68.3257 59.9201 68.3835 59.8714 68.423C59.8288 68.4656 59.7498 68.4777 59.6283 68.4595C59.3365 68.4199 59.069 68.3957 58.8258 68.3865C58.5826 68.3713 58.2908 68.3622 57.9504 68.3622Z" fill="white"/>
<path d="M69.4294 69.5055C69.4294 69.5967 69.4203 69.685 69.4051 69.7731C69.396 69.8643 69.3838 69.9616 69.3686 70.065L68.5662 74.6628C68.5479 74.7357 68.5176 74.8027 68.4689 74.8574C68.4263 74.9152 68.3504 74.9425 68.2379 74.9425H67.5692C67.399 74.9425 67.326 74.8513 67.3504 74.6628L68.165 70.065C68.1802 69.9616 68.1923 69.8643 68.2014 69.7731C68.2075 69.685 68.2136 69.5997 68.2136 69.5177C68.2136 69.098 68.092 68.797 67.8488 68.6176C67.6117 68.4321 67.2227 68.3378 66.6816 68.3378C66.4051 68.3378 66.1224 68.3591 65.8306 68.3987C65.5388 68.4321 65.2835 68.4807 65.0647 68.5446L63.9948 74.6628C63.9856 74.7357 63.9613 74.8027 63.9218 74.8574C63.8792 74.9152 63.7941 74.9425 63.6664 74.9425H63.0099C62.9036 74.9425 62.8397 74.9152 62.8154 74.8574C62.7911 74.7936 62.782 74.7296 62.7911 74.6628L64.5054 64.8956C64.5205 64.8226 64.5449 64.7618 64.5784 64.7131C64.6178 64.6584 64.6938 64.628 64.8093 64.628H65.5024C65.5753 64.628 65.63 64.6493 65.6725 64.6888C65.7121 64.7314 65.7243 64.7983 65.709 64.8956L65.2592 67.4985C65.4932 67.4438 65.7515 67.3982 66.0373 67.3648C66.3199 67.3252 66.5966 67.3039 66.8641 67.3039C67.7455 67.3039 68.396 67.5168 68.8094 67.9364C69.2227 68.3591 69.4294 68.8821 69.4294 69.5055Z" fill="white"/>
<path d="M79.4654 69.8826C79.4654 70.0042 79.4562 70.1319 79.441 70.2597C79.4319 70.3905 79.4198 70.5211 79.4046 70.6489L79.2222 71.6949C79.052 72.7349 78.6751 73.5529 78.0915 74.152C77.5079 74.7449 76.669 75.0399 75.5748 75.0399C74.7542 75.0399 74.131 74.7967 73.7024 74.3101C73.2708 73.8236 73.0581 73.2032 73.0581 72.4491C73.0581 72.3213 73.0611 72.1937 73.0702 72.0721C73.0854 71.9504 73.1067 71.8257 73.131 71.6949L73.3013 70.6489C73.6903 68.4199 74.9 67.304 76.9365 67.304C77.7784 67.304 78.4107 67.5473 78.8332 68.0338C79.2526 68.5142 79.4654 69.1285 79.4654 69.8826ZM78.2618 69.8705C78.2618 69.3778 78.1431 69.0038 77.9092 68.7514C77.6812 68.493 77.2951 68.3622 76.7542 68.3622C76.1614 68.3622 75.666 68.569 75.2708 68.9825C74.8818 69.39 74.6295 69.9434 74.5171 70.6489L74.3346 71.6949C74.2769 71.996 74.2496 72.2636 74.2496 72.4978C74.2496 72.9843 74.3651 73.3552 74.6022 73.6046C74.8453 73.857 75.2283 73.9816 75.7572 73.9816C76.3559 73.9816 76.8514 73.7688 77.2405 73.3371C77.6356 72.9083 77.897 72.3609 78.0186 71.6949L78.201 70.6489C78.2252 70.503 78.2404 70.3692 78.2496 70.2475C78.2557 70.1198 78.2618 69.992 78.2618 69.8705Z" fill="white"/>
<path d="M89.3621 69.8826C89.3621 70.0042 89.3527 70.1319 89.3373 70.2597C89.3287 70.3905 89.3167 70.5211 89.3012 70.6489L89.1185 71.6949C88.9487 72.7349 88.5713 73.5529 87.9881 74.152C87.4048 74.7449 86.5651 75.0399 85.4713 75.0399C84.6506 75.0399 84.0275 74.7967 83.599 74.3101C83.1674 73.8236 82.9546 73.2032 82.9546 72.4491C82.9546 72.3213 82.9576 72.1937 82.9668 72.0721C82.9819 71.9504 83.0032 71.8257 83.0275 71.6949L83.1977 70.6489C83.5868 68.4199 84.7965 67.304 86.8327 67.304C87.675 67.304 88.3072 67.5473 88.73 68.0338C89.1494 68.5142 89.3621 69.1285 89.3621 69.8826ZM88.1579 69.8705C88.1579 69.3778 88.0395 69.0038 87.8054 68.7514C87.5781 68.493 87.1913 68.3622 86.6509 68.3622C86.0582 68.3622 85.5625 68.569 85.1673 68.9825C84.7783 69.39 84.526 69.9434 84.4136 70.6489L84.2312 71.6949C84.1734 71.996 84.146 72.2636 84.146 72.4978C84.146 72.9843 84.2616 73.3552 84.4986 73.6046C84.7418 73.857 85.1248 73.9816 85.6536 73.9816C86.2521 73.9816 86.7478 73.7688 87.1372 73.3371C87.5318 72.9083 87.7934 72.3609 87.9152 71.6949L88.0979 70.6489C88.1219 70.503 88.1373 70.3692 88.1459 70.2475C88.1519 70.1198 88.1579 69.992 88.1579 69.8705Z" fill="white"/>
<path d="M94.7958 64.628H95.5137C95.6741 64.628 95.735 64.7192 95.6955 64.8956L93.9938 74.6628C93.9758 74.7357 93.9484 74.8027 93.9089 74.8574C93.866 74.9152 93.7931 74.9425 93.6893 74.9425H92.9723C92.8994 74.9425 92.8445 74.9152 92.8145 74.8574C92.781 74.7936 92.769 74.7296 92.7776 74.6628L94.4921 64.8956C94.5162 64.8226 94.547 64.7618 94.5891 64.7131C94.6285 64.6584 94.6989 64.628 94.7958 64.628Z" fill="white"/>
<path d="M109.216 65.7835C108.73 65.7835 108.356 65.8321 108.098 65.9294C107.836 66.0206 107.651 66.1697 107.538 66.3795C107.423 66.5924 107.334 66.866 107.271 67.2066L106.942 69.1163H111.149C111.319 69.1163 111.392 69.2105 111.368 69.396L111.282 69.9069C111.274 69.9799 111.246 70.0468 111.197 70.1015C111.155 70.1593 111.076 70.1867 110.955 70.1867H106.748L106.359 72.4856C106.334 72.6011 106.313 72.7015 106.298 72.7896C106.289 72.8808 106.285 72.966 106.285 73.045C106.285 73.3613 106.389 73.5863 106.602 73.714C106.812 73.8448 107.204 73.9086 107.781 73.9086H110.383C110.51 73.9086 110.565 73.9665 110.541 74.079L110.419 74.7479C110.41 74.7905 110.398 74.83 110.383 74.8696C110.374 74.903 110.335 74.9273 110.262 74.9425C110.155 74.9486 109.994 74.9608 109.775 74.979C109.563 74.9943 109.325 75.0064 109.057 75.0156C108.797 75.0216 108.535 75.0277 108.267 75.0277C108.006 75.0337 107.775 75.0398 107.574 75.0398C106.796 75.0398 106.179 74.8787 105.726 74.5533C105.271 74.231 105.046 73.7353 105.046 73.0694C105.046 72.9721 105.048 72.8808 105.058 72.7896C105.073 72.6923 105.088 72.592 105.106 72.4856L106.019 67.2066C106.139 66.5346 106.34 66.0146 106.626 65.6497C106.918 65.2848 107.289 65.0294 107.744 64.8834C108.207 64.7375 108.757 64.6644 109.398 64.6644C110.176 64.6644 110.766 64.6766 111.173 64.701C111.577 64.7192 111.869 64.7466 112.048 64.7861C112.152 64.7952 112.188 64.8591 112.158 64.9807L112.036 65.6254C112.028 65.7318 111.969 65.7835 111.866 65.7835H109.216Z" fill="white"/>
<path d="M122.55 67.0971C122.55 67.2614 122.537 67.4316 122.513 67.608L122.501 67.7053C122.38 68.5081 122.082 69.1406 121.614 69.6028C121.143 70.0589 120.556 70.3508 119.851 70.4786L121.638 74.6871C121.653 74.7205 121.662 74.7601 121.662 74.8088C121.662 74.9 121.614 74.9425 121.517 74.9425H120.568C120.486 74.9425 120.428 74.9395 120.398 74.9304C120.365 74.9152 120.328 74.8574 120.288 74.7601L118.562 70.6854C118.495 70.6854 118.428 70.6854 118.355 70.6854C118.282 70.6854 118.209 70.6854 118.136 70.6854C117.908 70.6854 117.644 70.6823 117.346 70.6732C117.045 70.658 116.805 70.6458 116.629 70.6367L115.936 74.6628C115.927 74.7296 115.899 74.7936 115.851 74.8574C115.802 74.9152 115.729 74.9425 115.632 74.9425H114.89C114.736 74.9425 114.671 74.8513 114.696 74.6628L116.386 65.078C116.425 64.9016 116.556 64.7983 116.774 64.7739C116.969 64.7436 117.215 64.7223 117.516 64.7131C117.814 64.6979 118.115 64.6857 118.416 64.6766C118.714 64.6705 118.975 64.6644 119.194 64.6644C119.851 64.6644 120.428 64.7496 120.933 64.9199C121.444 65.0841 121.838 65.3456 122.124 65.7105C122.407 66.0693 122.55 66.5316 122.55 67.0971ZM121.322 67.158C121.322 66.6167 121.131 66.2518 120.751 66.0633C120.367 65.8778 119.784 65.7835 119 65.7835C118.853 65.7835 118.684 65.7835 118.489 65.7835C118.294 65.7835 118.103 65.7896 117.918 65.7957C117.738 65.7957 117.593 65.8078 117.48 65.8321L116.823 69.5785C117 69.5876 117.219 69.5967 117.48 69.6028C117.738 69.6119 118.021 69.615 118.331 69.615C118.847 69.615 119.316 69.5542 119.729 69.4325C120.149 69.3109 120.495 69.1132 120.763 68.8366C121.03 68.5628 121.194 68.1858 121.261 67.7053L121.273 67.608C121.304 67.4469 121.322 67.2978 121.322 67.158Z" fill="white"/>
<path d="M133.409 67.0728C133.409 67.237 133.397 67.4225 133.372 67.6323L133.336 67.8148C133.214 68.6358 132.941 69.2683 132.521 69.7123C132.108 70.1593 131.592 70.4664 130.977 70.6367C130.369 70.8009 129.694 70.88 128.959 70.88C128.741 70.88 128.5 70.8739 128.241 70.8556C127.981 70.8404 127.768 70.8283 127.597 70.8192L126.928 74.6628C126.92 74.7296 126.895 74.7936 126.855 74.8574C126.813 74.9152 126.737 74.9425 126.625 74.9425H125.883C125.728 74.9425 125.664 74.8513 125.689 74.6628L127.366 65.1145C127.415 64.9138 127.548 64.7983 127.768 64.7739C128.066 64.7344 128.424 64.707 128.837 64.6888C129.251 64.6736 129.655 64.6644 130.053 64.6644C131.074 64.6644 131.889 64.856 132.497 65.2362C133.105 65.6193 133.409 66.2305 133.409 67.0728ZM132.157 67.158C132.157 66.6167 131.968 66.2426 131.598 66.0389C131.232 65.8291 130.655 65.7227 129.871 65.7227C129.652 65.7227 129.409 65.7287 129.141 65.7348C128.873 65.744 128.655 65.7561 128.485 65.7714L127.78 69.7853C127.932 69.7943 128.156 69.8065 128.448 69.8217C128.741 69.84 128.971 69.8461 129.141 69.8461C130.08 69.8461 130.783 69.6728 131.245 69.3231C131.707 68.9764 131.99 68.4716 132.096 67.8148L132.12 67.6323C132.145 67.456 132.157 67.2978 132.157 67.158Z" fill="white"/>
<path d="M138.481 74.8083C138.481 75.1093 138.399 75.3434 138.238 75.5137C138.074 75.6779 137.854 75.757 137.581 75.757H136.828C136.794 75.757 136.779 75.7418 136.779 75.7083V72.3147C136.779 72.2844 136.794 72.2661 136.828 72.2661H137.545C137.827 72.2661 138.049 72.3482 138.214 72.5094C138.374 72.6645 138.457 72.8864 138.457 73.1783C138.457 73.5524 138.317 73.8078 138.043 73.9447C138.034 73.9447 138.031 73.9508 138.031 73.9568C138.031 73.9568 138.034 73.9568 138.043 73.9568C138.335 74.1271 138.481 74.4129 138.481 74.8083ZM137.143 72.5702C137.135 72.5702 137.131 72.5793 137.131 72.5945V73.7987C137.131 73.8169 137.135 73.823 137.143 73.823H137.545C137.721 73.823 137.86 73.7713 137.958 73.6649C138.055 73.5524 138.104 73.3973 138.104 73.2027C138.104 73.0081 138.055 72.856 137.958 72.7404C137.86 72.6279 137.721 72.5702 137.545 72.5702H137.143ZM137.557 75.4408C137.733 75.4408 137.873 75.386 137.97 75.2704C138.074 75.1488 138.128 74.9846 138.128 74.7718C138.128 74.5528 138.074 74.3886 137.97 74.2731C137.873 74.1514 137.733 74.0906 137.557 74.0906H137.143C137.135 74.0906 137.131 74.0967 137.131 74.1027V75.4286C137.131 75.4377 137.135 75.4408 137.143 75.4408H137.557Z" fill="white"/>
<path d="M138.854 76.7544C138.845 76.7544 138.836 76.7483 138.83 76.7422C138.83 76.7331 138.83 76.7209 138.83 76.7058V76.5111C138.83 76.4686 138.845 76.4503 138.879 76.4503C138.976 76.4503 139.052 76.429 139.109 76.3895C139.173 76.3561 139.222 76.2922 139.255 76.1948C139.295 76.1036 139.332 75.9638 139.365 75.7692C139.371 75.7601 139.371 75.757 139.365 75.757C139.365 75.7509 139.365 75.7449 139.365 75.7449L138.733 73.2878V73.2756C138.733 73.2514 138.747 73.2392 138.781 73.2392H139.049C139.079 73.2392 139.1 73.2514 139.109 73.2756L139.547 75.234C139.547 75.2522 139.547 75.2583 139.547 75.2583C139.553 75.2583 139.56 75.2522 139.56 75.234L139.997 73.2756C140.003 73.2514 140.021 73.2392 140.046 73.2392H140.326C140.34 73.2392 140.352 73.2453 140.362 73.2513C140.377 73.2604 140.38 73.2726 140.374 73.2878L139.681 75.976C139.614 76.2009 139.553 76.3682 139.499 76.4747C139.441 76.578 139.365 76.651 139.267 76.6936C139.176 76.7331 139.049 76.7544 138.879 76.7544H138.854Z" fill="white"/>
<path d="M142.497 75.7935C142.255 75.7935 142.054 75.7144 141.902 75.5502C141.747 75.3891 141.67 75.1792 141.67 74.9177V74.7961C141.67 74.7657 141.686 74.7474 141.719 74.7474H141.962C142.001 74.7474 142.023 74.7657 142.023 74.7961V74.8934C142.023 75.0728 142.066 75.2188 142.157 75.3313C142.245 75.4377 142.357 75.4894 142.497 75.4894C142.643 75.4894 142.759 75.4377 142.85 75.3313C142.938 75.2279 142.984 75.0941 142.984 74.9298C142.984 74.8173 142.96 74.72 142.911 74.6379C142.868 74.5498 142.814 74.4768 142.741 74.419C142.674 74.3552 142.558 74.2609 142.388 74.1393C142.224 74.0176 142.096 73.9142 141.999 73.823C141.902 73.7349 141.82 73.6284 141.755 73.5068C141.698 73.3851 141.67 73.2392 141.67 73.0689C141.67 72.8105 141.743 72.6067 141.889 72.4607C142.042 72.3086 142.236 72.2296 142.473 72.2296C142.722 72.2296 142.926 72.3117 143.08 72.4729C143.233 72.6371 143.312 72.856 143.312 73.1297V73.2513C143.312 73.2848 143.294 73.3 143.263 73.3H143.008C142.974 73.3 142.96 73.2848 142.96 73.2513V73.1297C142.96 72.9533 142.914 72.8105 142.826 72.704C142.734 72.5915 142.619 72.5337 142.473 72.5337C142.342 72.5337 142.233 72.5824 142.145 72.6797C142.062 72.777 142.023 72.9108 142.023 73.081C142.023 73.1875 142.038 73.2817 142.072 73.3608C142.111 73.4338 142.169 73.5068 142.242 73.5797C142.321 73.6467 142.436 73.7349 142.582 73.8474C142.783 73.9933 142.935 74.1149 143.032 74.2122C143.129 74.3034 143.202 74.4007 143.251 74.5041C143.306 74.6106 143.336 74.7413 143.336 74.8934C143.336 75.1701 143.257 75.3891 143.105 75.5502C142.95 75.7144 142.747 75.7935 142.497 75.7935Z" fill="white"/>
<path d="M144.556 75.7935C144.32 75.7935 144.134 75.7266 143.997 75.5867C143.857 75.4499 143.791 75.2674 143.791 75.0393V73.9568C143.791 73.7318 143.857 73.5494 143.997 73.4095C144.143 73.2635 144.329 73.1905 144.556 73.1905C144.718 73.1905 144.855 73.224 144.97 73.2878C145.092 73.3547 145.183 73.4399 145.249 73.5433C145.314 73.6497 145.347 73.7622 145.347 73.8838V73.9325C145.347 73.966 145.328 73.9811 145.298 73.9811L145.043 73.9933C145.009 73.9933 144.995 73.9781 144.995 73.9447V73.9081C144.995 73.8048 144.952 73.7105 144.873 73.6284C144.791 73.5494 144.684 73.5068 144.556 73.5068C144.436 73.5068 144.332 73.5524 144.253 73.6406C144.18 73.7227 144.143 73.8352 144.143 73.9811V75.0029C144.143 75.1488 144.18 75.2674 144.253 75.3556C144.332 75.4468 144.436 75.4894 144.556 75.4894C144.684 75.4894 144.791 75.4499 144.873 75.3677C144.952 75.2887 144.995 75.1914 144.995 75.0758V75.0393C144.995 75.009 145.009 74.9907 145.043 74.9907L145.298 75.0029C145.328 75.0029 145.347 75.0212 145.347 75.0515V75.1002C145.347 75.3039 145.274 75.4711 145.129 75.5989C144.989 75.7297 144.8 75.7935 144.556 75.7935Z" fill="white"/>
<path d="M146.692 73.2027C146.772 73.2027 146.845 73.224 146.912 73.2635C146.936 73.2817 146.942 73.3 146.936 73.3243L146.875 73.5919C146.865 73.6162 146.845 73.6254 146.814 73.6162C146.772 73.601 146.723 73.5919 146.668 73.5919C146.635 73.5919 146.613 73.5919 146.607 73.5919C146.485 73.601 146.383 73.6649 146.304 73.7865C146.231 73.902 146.194 74.042 146.194 74.2122V75.7083C146.194 75.7418 146.176 75.757 146.146 75.757H145.89C145.857 75.757 145.841 75.7418 145.841 75.7083V73.2878C145.841 73.2574 145.857 73.2392 145.89 73.2392H146.146C146.176 73.2392 146.194 73.2574 146.194 73.2878V73.5797C146.194 73.5888 146.194 73.5919 146.194 73.5919C146.2 73.5919 146.209 73.5919 146.219 73.5919C146.316 73.3335 146.473 73.2027 146.692 73.2027Z" fill="white"/>
<path d="M147.515 72.777C147.423 72.777 147.356 72.7526 147.308 72.704C147.259 72.6492 147.235 72.5793 147.235 72.4973C147.235 72.4181 147.259 72.3513 147.308 72.3026C147.356 72.2479 147.423 72.2174 147.515 72.2174C147.588 72.2174 147.649 72.2479 147.697 72.3026C147.752 72.3513 147.783 72.4181 147.783 72.4973C147.783 72.5793 147.752 72.6492 147.697 72.704C147.649 72.7526 147.588 72.777 147.515 72.777ZM147.381 75.7571C147.348 75.7571 147.332 75.7418 147.332 75.7084V73.2878C147.332 73.2574 147.348 73.2392 147.381 73.2392H147.636C147.667 73.2392 147.685 73.2574 147.685 73.2878V75.7084C147.685 75.7418 147.667 75.7571 147.636 75.7571H147.381Z" fill="white"/>
<path d="M148.247 75.757C148.213 75.757 148.198 75.7418 148.198 75.7083V75.465C148.198 75.4408 148.201 75.4225 148.211 75.4043L149.231 73.5797C149.231 73.5736 149.231 73.5676 149.231 73.5676C149.231 73.5615 149.225 73.5555 149.219 73.5555H148.259C148.225 73.5555 148.211 73.5402 148.211 73.5068V73.2878C148.211 73.2574 148.225 73.2392 148.259 73.2392H149.609C149.639 73.2392 149.657 73.2574 149.657 73.2878V73.5189C149.657 73.5433 149.651 73.5676 149.645 73.5919L148.611 75.4043C148.611 75.4134 148.611 75.4225 148.611 75.4286C148.611 75.4286 148.615 75.4286 148.623 75.4286H149.621C149.651 75.4286 149.67 75.4469 149.67 75.4772V75.7083C149.67 75.7418 149.651 75.757 149.621 75.757H148.247Z" fill="white"/>
<path d="M150.871 73.1905C151.096 73.1905 151.279 73.2696 151.419 73.4216C151.564 73.5767 151.637 73.7804 151.637 74.0298V75.7083C151.637 75.7418 151.619 75.757 151.588 75.757H151.334C151.3 75.757 151.285 75.7418 151.285 75.7083V75.5623C151.285 75.5563 151.279 75.5502 151.273 75.5502C151.263 75.5442 151.261 75.5442 151.261 75.5502C151.139 75.7144 150.95 75.7935 150.702 75.7935C150.521 75.7935 150.364 75.7418 150.227 75.6354C150.087 75.532 150.021 75.3495 150.021 75.088C150.021 74.8053 150.099 74.5985 150.263 74.4677C150.434 74.3308 150.647 74.2609 150.908 74.2609H151.261C151.275 74.2609 151.285 74.2579 151.285 74.2487V74.0541C151.285 73.8838 151.242 73.7501 151.163 73.6528C151.09 73.5554 150.987 73.5068 150.859 73.5068C150.762 73.5068 150.677 73.5403 150.604 73.6041C150.531 73.671 150.485 73.7562 150.47 73.8595C150.47 73.8929 150.452 73.9081 150.422 73.9081L150.142 73.896C150.123 73.896 150.111 73.8929 150.105 73.8838C150.096 73.8778 150.096 73.8656 150.105 73.8474C150.121 73.6528 150.196 73.4946 150.336 73.3729C150.482 73.2513 150.659 73.1905 150.871 73.1905ZM150.774 75.4894C150.911 75.4894 151.029 75.4468 151.127 75.3556C151.23 75.2674 151.285 75.1458 151.285 74.9907V74.565C151.285 74.5589 151.275 74.5528 151.261 74.5528H150.908C150.744 74.5528 150.616 74.5985 150.519 74.6866C150.428 74.7687 150.385 74.8904 150.385 75.0515C150.385 75.1975 150.422 75.307 150.495 75.3799C150.568 75.4529 150.659 75.4894 150.774 75.4894Z" fill="white"/>
</svg>
