<svg width="71" height="70" viewBox="0 0 71 70" fill="none" xmlns="http://www.w3.org/2000/svg">
<rect x="0.300049" width="70" height="70" rx="35" fill="white" fill-opacity="0.05"/>
<rect x="0.800049" y="0.5" width="69" height="69" rx="34.5" stroke="#F4F4F4" stroke-opacity="0.5"/>
<path d="M47.4118 31.4512C47.5094 31.3535 47.6071 31.3372 47.7047 31.4023C47.8349 31.4674 47.9 31.5651 47.9 31.6953V41.6562C47.9 42.3073 47.6722 42.8607 47.2165 43.3164C46.7607 43.7721 46.2073 44 45.5563 44H25.2438C24.5928 44 24.0394 43.7721 23.5836 43.3164C23.1279 42.8607 22.9 42.3073 22.9 41.6562V31.6953C22.9 31.5651 22.9489 31.4837 23.0465 31.4512C23.1767 31.3861 23.2907 31.3861 23.3883 31.4512C24.4625 32.265 26.9691 34.1042 30.9079 36.9688C30.973 37.0339 31.1846 37.2129 31.5426 37.5059C31.9333 37.7988 32.2425 38.0267 32.4704 38.1895C32.6982 38.3197 32.9912 38.4987 33.3493 38.7266C33.7073 38.9219 34.0491 39.0684 34.3747 39.166C34.7327 39.2637 35.0745 39.3125 35.4 39.3125C35.693 39.3125 35.986 39.2799 36.279 39.2148C36.5719 39.1172 36.8486 39.0195 37.109 38.9219C37.3695 38.7917 37.6461 38.6289 37.9391 38.4336C38.2321 38.2383 38.4762 38.0755 38.6715 37.9453C38.8668 37.7826 39.0947 37.6035 39.3551 37.4082C39.6155 37.2129 39.7946 37.0664 39.8922 36.9688C43.7334 34.2018 46.2399 32.3626 47.4118 31.4512ZM35.4 37.75C35.1396 37.75 34.8141 37.6686 34.4235 37.5059C34.0654 37.3105 33.7724 37.1478 33.5446 37.0176C33.3167 36.8548 32.9749 36.6107 32.5192 36.2852C32.096 35.9271 31.8681 35.748 31.8356 35.748C27.8642 32.8509 25.0322 30.7513 23.3395 29.4492C23.0465 29.2214 22.9 28.9121 22.9 28.5215V27.5938C22.9 26.9427 23.1279 26.3893 23.5836 25.9336C24.0394 25.4779 24.5928 25.25 25.2438 25.25H45.5563C46.2073 25.25 46.7607 25.4779 47.2165 25.9336C47.6722 26.3893 47.9 26.9427 47.9 27.5938V28.5215C47.9 28.9121 47.7536 29.2214 47.4606 29.4492C45.8655 30.6862 43.0335 32.7858 38.9645 35.748C38.932 35.748 38.6878 35.9271 38.2321 36.2852C37.8089 36.6107 37.4834 36.8548 37.2555 37.0176C37.0277 37.1478 36.7184 37.3105 36.3278 37.5059C35.9697 37.6686 35.6605 37.75 35.4 37.75Z" fill="white"/>
</svg>
