<svg width="70" height="70" viewBox="0 0 70 70" fill="none" xmlns="http://www.w3.org/2000/svg">
<rect width="70" height="70" rx="35" fill="white" fill-opacity="0.05"/>
<rect x="0.5" y="0.5" width="69" height="69" rx="34.5" stroke="#F4F4F4" stroke-opacity="0.5"/>
<path d="M34.1284 46.6367C33.3472 45.4974 32.452 44.2116 31.4429 42.7793C30.4663 41.347 29.7665 40.3379 29.3433 39.752C28.9201 39.166 28.4318 38.4499 27.8784 37.6035C27.3251 36.7246 26.9507 36.1061 26.7554 35.748C26.5926 35.39 26.3973 34.9342 26.1695 34.3809C25.9741 33.8275 25.8439 33.3555 25.7788 32.9648C25.7463 32.5417 25.73 32.0534 25.73 31.5C25.73 28.8958 26.6415 26.6823 28.4644 24.8594C30.2873 23.0365 32.5008 22.125 35.105 22.125C37.7092 22.125 39.9227 23.0365 41.7456 24.8594C43.5685 26.6823 44.48 28.8958 44.48 31.5C44.48 32.0534 44.4475 32.5417 44.3823 32.9648C44.3498 33.3555 44.2196 33.8275 43.9917 34.3809C43.7964 34.9342 43.6011 35.39 43.4058 35.748C43.243 36.1061 42.885 36.7246 42.3316 37.6035C41.7782 38.4499 41.2899 39.166 40.8667 39.752C40.4435 40.3379 39.7274 41.347 38.7183 42.7793C37.7417 44.2116 36.8628 45.4974 36.0816 46.6367C35.8537 46.9622 35.5282 47.125 35.105 47.125C34.6818 47.125 34.3563 46.9622 34.1284 46.6367ZM32.3218 34.2832C33.1031 35.0319 34.0308 35.4062 35.105 35.4062C36.1792 35.4062 37.0907 35.0319 37.8394 34.2832C38.6206 33.502 39.0113 32.5742 39.0113 31.5C39.0113 30.4258 38.6206 29.5143 37.8394 28.7656C37.0907 27.9844 36.1792 27.5938 35.105 27.5938C34.0308 27.5938 33.1031 27.9844 32.3218 28.7656C31.5731 29.5143 31.1988 30.4258 31.1988 31.5C31.1988 32.5742 31.5731 33.502 32.3218 34.2832Z" fill="white"/>
</svg>
