<svg width="70" height="70" viewBox="0 0 70 70" fill="none" xmlns="http://www.w3.org/2000/svg">
<rect width="70" height="70" rx="35" fill="white" fill-opacity="0.05"/>
<rect x="0.5" y="0.5" width="69" height="69" rx="34.5" stroke="#F4F4F4" stroke-opacity="0.5"/>
<path d="M46.3573 46.0207C46.2379 46.6413 45.869 46.9571 45.2506 46.9679C39.0015 47.077 33.6252 44.9569 29.1215 40.6078C24.6178 36.2586 22.3114 30.9595 22.2024 24.7105C22.1916 24.0921 22.4942 23.7124 23.1103 23.5714L28.1673 22.3111C28.7828 22.1376 29.2262 22.3577 29.4973 22.9716L31.9362 28.3986C32.1731 28.9154 32.0671 29.373 31.6183 29.7715L28.7308 32.2149C29.6431 34.1198 30.8606 35.7915 32.3833 37.23C33.9066 38.701 35.6198 39.8595 37.5229 40.7053L39.9128 37.7334C40.2629 37.2715 40.7165 37.1497 41.2738 37.3678L46.7826 39.6158C47.373 39.8659 47.5923 40.3016 47.4403 40.9229L46.3573 46.0207Z" fill="white"/>
</svg>
