<svg width="14" height="17" viewBox="0 0 14 17" fill="none" xmlns="http://www.w3.org/2000/svg">
<g clip-path="url(#clip0_3_1251)">
<g clip-path="url(#clip1_3_1251)">
<g clip-path="url(#clip2_3_1251)">
<path d="M13.6114 2.45562C13.6114 2.32619 13.5065 2.22125 13.3771 2.22125C13.2476 2.22125 13.1427 2.32619 13.1427 2.45562V12.9376H2.24829V0.658752H3.37595V3.44206C3.37595 3.53741 3.43373 3.62325 3.52204 3.65919C3.61032 3.69506 3.71163 3.67394 3.7782 3.60563L4.62213 2.73947L5.4661 3.60563C5.5111 3.65181 5.57198 3.67647 5.63401 3.67647C5.6637 3.67647 5.69366 3.67081 5.72226 3.65919C5.81057 3.62328 5.86835 3.53744 5.86835 3.44206V0.658752H13.1427V1.51812C13.1427 1.64756 13.2477 1.7525 13.3771 1.7525C13.5065 1.7525 13.6115 1.64756 13.6115 1.51812V0.424377C13.6115 0.294939 13.5065 0.190002 13.3771 0.190002H2.01395C1.57935 0.190002 1.17088 0.359096 0.863852 0.666158C0.55682 0.973221 0.387695 1.38166 0.387695 1.81625V14.5637L0.387758 14.5649C0.388352 15.4611 1.1176 16.19 2.01391 16.19H13.3772C13.5066 16.19 13.6116 16.0851 13.6116 15.9556L13.6114 2.45562ZM5.39957 0.658752V2.86569L4.78998 2.24006C4.74585 2.19478 4.68532 2.16925 4.6221 2.16925C4.55888 2.16925 4.49835 2.19478 4.45423 2.24006L3.84466 2.86569V0.658752H5.39957ZM1.19529 0.997596C1.35754 0.835377 1.5596 0.727408 1.77954 0.682471V12.9547C1.42076 13.0068 1.09963 13.1762 0.856445 13.423V1.81625C0.856445 1.50684 0.976789 1.21612 1.19529 0.997596ZM2.01391 15.7212C1.3757 15.7212 0.856477 15.202 0.856477 14.5638C0.856477 13.9256 1.3757 13.4063 2.01391 13.4063H13.1428V13.7188H3.70395C3.57451 13.7188 3.46957 13.8237 3.46957 13.9531C3.46957 14.0826 3.57451 14.1875 3.70395 14.1875H13.1427V14.94H2.01395C1.80648 14.94 1.6377 14.7712 1.6377 14.5637C1.6377 14.3563 1.80648 14.1875 2.01395 14.1875H2.76645C2.89588 14.1875 3.00082 14.0826 3.00082 13.9531C3.00082 13.8237 2.89588 13.7188 2.76645 13.7188H2.01395C1.54801 13.7188 1.16895 14.0978 1.16895 14.5637C1.16895 15.0297 1.54801 15.4088 2.01395 15.4088H13.1428V15.7212H2.01391Z" fill="#F28F53"/>
<path d="M4.65043 4.08063C3.98109 4.08063 3.43652 4.6252 3.43652 5.29454V8.28345C3.43652 8.95279 3.98109 9.49735 4.65043 9.49735H10.0461C10.7155 9.49735 11.2601 8.95279 11.2601 8.28345V5.29454C11.2601 4.6252 10.7155 4.08063 10.0461 4.08063H4.65043ZM10.7913 5.29454V8.28345C10.7913 8.69432 10.457 9.0286 10.0461 9.0286H4.65043C4.23955 9.0286 3.90527 8.69432 3.90527 8.28345V5.29454C3.90527 4.88367 4.23955 4.54939 4.65043 4.54939H10.0461C10.4571 4.54939 10.7913 4.88367 10.7913 5.29454Z" fill="#F28F53"/>
<path d="M9.54927 5.93317H5.14648C5.01705 5.93317 4.91211 6.03811 4.91211 6.16755C4.91211 6.29699 5.01705 6.40192 5.14648 6.40192H9.54927C9.6787 6.40192 9.78364 6.29699 9.78364 6.16755C9.78364 6.03811 9.6787 5.93317 9.54927 5.93317Z" fill="#F28F53"/>
<path d="M9.54927 7.17535H5.14648C5.01705 7.17535 4.91211 7.28029 4.91211 7.40973C4.91211 7.53916 5.01705 7.6441 5.14648 7.6441H9.54927C9.6787 7.6441 9.78364 7.53916 9.78364 7.40973C9.78364 7.28029 9.6787 7.17535 9.54927 7.17535Z" fill="#F28F53"/>
</g>
</g>
</g>
<defs>
<clipPath id="clip0_3_1251">
<rect width="14" height="16" fill="white" transform="translate(0 0.190002)"/>
</clipPath>
<clipPath id="clip1_3_1251">
<rect width="14" height="16" fill="white" transform="translate(0 0.190002)"/>
</clipPath>
<clipPath id="clip2_3_1251">
<rect width="14" height="16" fill="white" transform="translate(0 0.190002)"/>
</clipPath>
</defs>
</svg>
