<svg width="295" height="171" viewBox="0 0 295 171" fill="none" xmlns="http://www.w3.org/2000/svg">
<g filter="url(#filter0_d_3_1249)">
<rect x="11" y="10" width="273" height="149" fill="white"/>
<path d="M44.3188 60V56.4C44.3188 55.52 44.4388 54.77 44.6788 54.15C44.9388 53.53 45.3788 52.97 45.9988 52.47C46.6188 51.95 47.4588 51.45 48.5188 50.97L52.6288 49.08C53.6288 48.62 54.4188 48.03 54.9988 47.31C55.5788 46.57 55.8688 45.62 55.8688 44.46C55.8688 43.06 55.4788 41.97 54.6988 41.19C53.9188 40.41 52.8188 40.02 51.3988 40.02C49.9988 40.02 48.8988 40.41 48.0988 41.19C47.2988 41.97 46.8988 43.06 46.8988 44.46H44.0788C44.0788 43.2 44.3388 42.04 44.8588 40.98C45.3988 39.92 46.2088 39.08 47.2888 38.46C48.3688 37.82 49.7388 37.5 51.3988 37.5C53.0588 37.5 54.4188 37.82 55.4788 38.46C56.5588 39.08 57.3588 39.9 57.8788 40.92C58.4188 41.94 58.6888 43.05 58.6888 44.25V44.67C58.6888 46.25 58.2288 47.58 57.3088 48.66C56.4088 49.74 55.1888 50.63 53.6488 51.33L49.5388 53.22C48.6188 53.64 47.9988 54.06 47.6788 54.48C47.3588 54.9 47.1988 55.46 47.1988 56.16V58.92L46.4188 57.54H58.9588V60H44.3188ZM71.7437 60.54C70.1037 60.54 68.7037 60.26 67.5437 59.7C66.4037 59.12 65.4737 58.34 64.7537 57.36C64.0537 56.38 63.5437 55.25 63.2237 53.97C62.9037 52.67 62.7437 51.3 62.7437 49.86V48.24C62.7437 46.22 63.0537 44.4 63.6737 42.78C64.3137 41.16 65.2937 39.88 66.6137 38.94C67.9537 37.98 69.6637 37.5 71.7437 37.5C73.8237 37.5 75.5237 37.98 76.8437 38.94C78.1637 39.88 79.1337 41.16 79.7537 42.78C80.3937 44.4 80.7137 46.22 80.7137 48.24V49.86C80.7137 51.3 80.5537 52.67 80.2337 53.97C79.9137 55.25 79.3937 56.38 78.6737 57.36C77.9737 58.34 77.0537 59.12 75.9137 59.7C74.7737 60.26 73.3837 60.54 71.7437 60.54ZM71.7437 57.9C73.8237 57.9 75.3437 57.2 76.3037 55.8C77.2837 54.38 77.7737 52.14 77.7737 49.08C77.7737 45.88 77.2737 43.59 76.2737 42.21C75.2937 40.83 73.7837 40.14 71.7437 40.14C69.6837 40.14 68.1537 40.83 67.1537 42.21C66.1737 43.59 65.6837 45.86 65.6837 49.02C65.6837 52.1 66.1737 54.35 67.1537 55.77C68.1337 57.19 69.6637 57.9 71.7437 57.9ZM90.4987 56.82V42.54H92.9587V56.82H90.4987ZM84.8587 50.82V48.54H98.5987V50.82H84.8587Z" fill="#704FE6"/>
<path d="M110.58 60V38.1H114.48L120.96 52.71H121.44L127.89 38.1H131.82V60H128.88V41.31L129.09 41.37L122.88 55.47H119.28L113.04 41.37L113.28 41.31V60H110.58ZM145.138 60.54C143.738 60.54 142.508 60.3 141.448 59.82C140.388 59.34 139.488 58.71 138.748 57.93C138.028 57.13 137.478 56.24 137.098 55.26C136.738 54.28 136.558 53.28 136.558 52.26V51.72C136.558 50.7 136.748 49.7 137.128 48.72C137.508 47.72 138.068 46.83 138.808 46.05C139.548 45.25 140.448 44.62 141.508 44.16C142.568 43.68 143.778 43.44 145.138 43.44C146.498 43.44 147.708 43.68 148.768 44.16C149.828 44.62 150.728 45.25 151.468 46.05C152.208 46.83 152.768 47.72 153.148 48.72C153.528 49.7 153.718 50.7 153.718 51.72V52.26C153.718 53.28 153.528 54.28 153.148 55.26C152.788 56.24 152.238 57.13 151.498 57.93C150.778 58.71 149.888 59.34 148.828 59.82C147.768 60.3 146.538 60.54 145.138 60.54ZM145.138 57.96C146.338 57.96 147.358 57.7 148.198 57.18C149.058 56.64 149.708 55.92 150.148 55.02C150.608 54.12 150.838 53.11 150.838 51.99C150.838 50.85 150.608 49.83 150.148 48.93C149.688 48.03 149.028 47.32 148.168 46.8C147.328 46.28 146.318 46.02 145.138 46.02C143.978 46.02 142.968 46.28 142.108 46.8C141.248 47.32 140.588 48.03 140.128 48.93C139.668 49.83 139.438 50.85 139.438 51.99C139.438 53.11 139.658 54.12 140.098 55.02C140.558 55.92 141.208 56.64 142.048 57.18C142.908 57.7 143.938 57.96 145.138 57.96ZM164.721 60.54C163.581 60.54 162.531 60.33 161.571 59.91C160.611 59.49 159.771 58.9 159.051 58.14C158.351 57.38 157.801 56.5 157.401 55.5C157.021 54.5 156.831 53.42 156.831 52.26V51.72C156.831 50.58 157.021 49.51 157.401 48.51C157.781 47.51 158.311 46.63 158.991 45.87C159.691 45.11 160.511 44.52 161.451 44.1C162.411 43.66 163.471 43.44 164.631 43.44C165.851 43.44 166.961 43.7 167.961 44.22C168.961 44.72 169.781 45.51 170.421 46.59C171.061 47.67 171.421 49.07 171.501 50.79L170.301 48.87V38.1H173.181V60H170.901V52.89H171.741C171.661 54.71 171.281 56.19 170.601 57.33C169.921 58.45 169.061 59.27 168.021 59.79C167.001 60.29 165.901 60.54 164.721 60.54ZM165.111 58.02C166.091 58.02 166.981 57.8 167.781 57.36C168.581 56.92 169.221 56.29 169.701 55.47C170.181 54.63 170.421 53.65 170.421 52.53V51.15C170.421 50.05 170.171 49.12 169.671 48.36C169.191 47.58 168.541 46.99 167.721 46.59C166.921 46.17 166.041 45.96 165.081 45.96C164.021 45.96 163.081 46.21 162.261 46.71C161.461 47.21 160.831 47.91 160.371 48.81C159.931 49.71 159.711 50.77 159.711 51.99C159.711 53.21 159.941 54.28 160.401 55.2C160.861 56.1 161.501 56.8 162.321 57.3C163.141 57.78 164.071 58.02 165.111 58.02ZM184.265 60.48C182.365 60.48 180.905 59.86 179.885 58.62C178.865 57.38 178.355 55.59 178.355 53.25V43.95H181.235V53.82C181.235 55.08 181.575 56.07 182.255 56.79C182.935 57.49 183.855 57.84 185.015 57.84C186.215 57.84 187.195 57.46 187.955 56.7C188.715 55.92 189.095 54.86 189.095 53.52V43.95H191.975V60H189.695V53.13H190.055C190.055 54.71 189.845 56.05 189.425 57.15C189.005 58.23 188.375 59.06 187.535 59.64C186.715 60.2 185.665 60.48 184.385 60.48H184.265ZM197.733 60V38.1H200.613V60H197.733ZM195.513 40.38V38.1H200.613V40.38H195.513ZM212.947 60.54C211.547 60.54 210.337 60.3 209.317 59.82C208.297 59.34 207.467 58.71 206.827 57.93C206.187 57.13 205.707 56.24 205.387 55.26C205.087 54.28 204.937 53.28 204.937 52.26V51.72C204.937 50.68 205.087 49.67 205.387 48.69C205.707 47.71 206.187 46.83 206.827 46.05C207.467 45.25 208.277 44.62 209.257 44.16C210.257 43.68 211.427 43.44 212.767 43.44C214.507 43.44 215.937 43.82 217.057 44.58C218.197 45.32 219.037 46.28 219.577 47.46C220.137 48.64 220.417 49.9 220.417 51.24V52.53H206.197V50.37H218.317L217.657 51.54C217.657 50.4 217.477 49.42 217.117 48.6C216.757 47.76 216.217 47.11 215.497 46.65C214.777 46.19 213.867 45.96 212.767 45.96C211.627 45.96 210.677 46.22 209.917 46.74C209.177 47.26 208.617 47.97 208.237 48.87C207.877 49.77 207.697 50.81 207.697 51.99C207.697 53.13 207.877 54.16 208.237 55.08C208.617 55.98 209.197 56.7 209.977 57.24C210.757 57.76 211.747 58.02 212.947 58.02C214.207 58.02 215.227 57.74 216.007 57.18C216.807 56.62 217.287 55.97 217.447 55.23H220.147C219.927 56.33 219.487 57.28 218.827 58.08C218.167 58.88 217.337 59.49 216.337 59.91C215.337 60.33 214.207 60.54 212.947 60.54ZM229.756 60.48C227.656 60.48 226.026 60.03 224.866 59.13C223.726 58.23 223.136 57 223.096 55.44H225.796C225.836 56.06 226.146 56.65 226.726 57.21C227.326 57.75 228.336 58.02 229.756 58.02C231.036 58.02 232.016 57.77 232.696 57.27C233.376 56.75 233.716 56.12 233.716 55.38C233.716 54.72 233.466 54.21 232.966 53.85C232.466 53.47 231.656 53.22 230.536 53.1L228.796 52.92C227.276 52.76 226.036 52.31 225.076 51.57C224.116 50.81 223.636 49.75 223.636 48.39C223.636 47.37 223.896 46.5 224.416 45.78C224.936 45.04 225.656 44.48 226.576 44.1C227.496 43.7 228.556 43.5 229.756 43.5C231.556 43.5 233.016 43.9 234.136 44.7C235.256 45.5 235.836 46.69 235.876 48.27H233.176C233.156 47.63 232.856 47.09 232.276 46.65C231.716 46.19 230.876 45.96 229.756 45.96C228.636 45.96 227.786 46.19 227.206 46.65C226.626 47.11 226.336 47.69 226.336 48.39C226.336 48.99 226.536 49.47 226.936 49.83C227.356 50.19 228.036 50.42 228.976 50.52L230.716 50.7C232.436 50.88 233.816 51.36 234.856 52.14C235.896 52.9 236.416 53.98 236.416 55.38C236.416 56.38 236.126 57.27 235.546 58.05C234.986 58.81 234.206 59.41 233.206 59.85C232.206 60.27 231.056 60.48 229.756 60.48Z" fill="#17254E"/>
<path d="M67.1202 132.8C80.9937 132.8 92.2403 121.607 92.2403 107.8C92.2403 93.9929 80.9937 82.8 67.1202 82.8C53.2467 82.8 42 93.9929 42 107.8C42 121.607 53.2467 132.8 67.1202 132.8Z" fill="#A2D4DE"/>
<path d="M81.6736 122.541C81.6736 122.89 81.3892 123.173 81.0389 123.173H53.2726C52.9224 123.173 52.6379 122.89 52.6379 122.541V122.19C52.6379 121.842 52.9224 121.559 53.2726 121.559H81.0393C81.3896 121.559 81.674 121.842 81.674 122.19V122.541H81.6736Z" fill="#6F8284"/>
<path d="M80.2102 120.568C80.2102 120.916 79.9258 121.199 79.5756 121.199H54.6624C54.3122 121.199 54.0278 120.916 54.0278 120.568V120.217C54.0278 119.868 54.3122 119.586 54.6624 119.586H79.576C79.9262 119.586 80.2107 119.868 80.2107 120.217V120.568H80.2102Z" fill="#6F8284"/>
<path d="M80.2102 99.5137C80.2102 99.8622 79.9258 100.145 79.5756 100.145H54.6624C54.3122 100.145 54.0278 99.8622 54.0278 99.5137V99.1628C54.0278 98.8142 54.3122 98.5316 54.6624 98.5316H79.576C79.9262 98.5316 80.2107 98.8142 80.2107 99.1628V99.5137H80.2102Z" fill="#526B70"/>
<path d="M82.3919 97.3856C82.3919 97.7922 82.0603 98.1222 81.6521 98.1222H52.586C52.1778 98.1222 51.8463 97.7922 51.8463 97.3856L66.8875 89.1422L82.3919 97.3856Z" fill="#526B70"/>
<path d="M59.5088 118.193C59.5088 118.727 59.0733 119.16 58.5366 119.16H55.1341C54.597 119.16 54.1619 118.727 54.1619 118.193V101.475C54.1619 100.941 54.5973 100.508 55.1341 100.508H58.5366C59.0736 100.508 59.5088 100.941 59.5088 101.475V118.193Z" fill="#809598"/>
<path d="M80.1349 118.193C80.1349 118.727 79.6994 119.16 79.1627 119.16H75.7602C75.2231 119.16 74.788 118.727 74.788 118.193V101.475C74.788 100.941 75.2234 100.508 75.7602 100.508H79.1627C79.6997 100.508 80.1349 100.941 80.1349 101.475V118.193Z" fill="#809598"/>
<path d="M69.8218 118.193C69.8218 118.727 69.3863 119.16 68.8496 119.16H65.4471C64.9101 119.16 64.4749 118.727 64.4749 118.193V101.475C64.4749 100.941 64.9104 100.508 65.4471 100.508H68.8496C69.3866 100.508 69.8218 100.941 69.8218 101.475V118.193Z" fill="#809598"/>
<path d="M107.312 134.8C121.186 134.8 132.433 123.607 132.433 109.8C132.433 95.9929 121.186 84.8 107.312 84.8C93.4389 84.8 82.1923 95.9929 82.1923 109.8C82.1923 123.607 93.4389 134.8 107.312 134.8Z" fill="#D1AFD2"/>
<path d="M107.84 113.451L105.729 110.956H107.84H110.325L107.84 113.451Z" fill="#A480B1"/>
<path d="M116.395 125.49C116.395 127.655 114.789 129.41 112.809 129.41H103.023C101.043 129.41 99.437 127.655 99.437 125.49C99.437 125.49 100.258 116.999 100.932 114.875C101.603 112.753 102.537 110.955 104.518 110.955H105.729L107.84 113.14L110.325 110.955H111.614C113.594 110.955 114.677 112.262 115.2 114.875C115.722 117.489 116.395 125.49 116.395 125.49Z" fill="#2A3633"/>
<path d="M112.281 125.492L112.809 129.41C114.789 129.41 116.395 127.655 116.395 125.49L112.281 125.492Z" fill="#242D2B"/>
<path d="M111.614 110.956H110.325L112.285 125.491L116.395 125.49C116.395 125.49 115.722 117.488 115.199 114.875C114.676 112.262 113.594 110.956 111.614 110.956Z" fill="#242D2B"/>
<path d="M115.054 102.816C115.054 106.79 111.819 110.01 107.828 110.01C103.836 110.01 100.601 106.79 100.601 102.816C100.601 98.8446 103.835 95.6246 107.828 95.6246C111.819 95.6246 115.054 98.8446 115.054 102.816Z" fill="#BF8A67"/>
<path d="M115.054 102.816L110.127 98.404C110.127 98.404 109.078 100.134 106.28 101.393C103.581 102.607 100.602 102.816 100.602 102.816C100.602 98.8442 103.836 95.6242 107.828 95.6242C111.819 95.6246 115.054 98.8446 115.054 102.816Z" fill="#8C5228"/>
<path d="M105.662 104.927C106.209 104.927 106.652 104.461 106.652 103.886C106.652 103.312 106.209 102.846 105.662 102.846C105.116 102.846 104.672 103.312 104.672 103.886C104.672 104.461 105.116 104.927 105.662 104.927Z" fill="#343433"/>
<path d="M109.954 104.927C110.501 104.927 110.944 104.461 110.944 103.886C110.944 103.312 110.501 102.846 109.954 102.846C109.407 102.846 108.964 103.312 108.964 103.886C108.964 104.461 109.407 104.927 109.954 104.927Z" fill="#343433"/>
<path d="M110.262 103.908C110.48 103.908 110.657 103.722 110.657 103.492C110.657 103.262 110.48 103.075 110.262 103.075C110.043 103.075 109.866 103.262 109.866 103.492C109.866 103.722 110.043 103.908 110.262 103.908Z" fill="white"/>
<path d="M105.96 103.908C106.178 103.908 106.356 103.722 106.356 103.492C106.356 103.262 106.178 103.075 105.96 103.075C105.741 103.075 105.564 103.262 105.564 103.492C105.564 103.722 105.741 103.908 105.96 103.908Z" fill="white"/>
<path d="M104.517 110.956C102.537 110.956 101.603 112.753 100.931 114.875C100.258 116.999 99.4368 125.491 99.4368 125.491C99.4368 127.655 101.043 129.411 103.023 129.411L103.763 125.503L105.728 110.952L104.517 110.956Z" fill="#242D2B"/>
<path d="M108.038 113.049H107.642V129.423H108.038V113.049Z" fill="#242D2B"/>
<path d="M102.85 96.1915L102.187 98.1143C102.187 98.1143 103.316 100.746 107.697 100.746C112.078 100.746 113.235 98.1147 113.235 98.1147L112.572 96.1915H102.85Z" fill="#242D2B"/>
<path d="M102.85 96.1915L102.187 98.1143C102.187 98.1143 103.316 100.746 107.697 100.746L107.665 96.1915H102.85Z" fill="#2A3633"/>
<path d="M102.85 96.1915L102.644 96.9029L107.127 98.2056C107.47 98.3098 108.026 98.3098 108.37 98.2056L112.778 96.9257L112.572 96.1919H102.85L102.85 96.1915Z" fill="#181E1D"/>
<path d="M108.369 97.9509C108.026 98.0548 107.47 98.0548 107.127 97.9509L99.5359 95.6392C99.1928 95.5343 99.1928 95.3657 99.5359 95.261L107.127 92.9493C107.47 92.8446 108.026 92.8446 108.369 92.9493L115.96 95.261C116.303 95.3657 116.303 95.5341 115.96 95.6392L108.369 97.9509Z" fill="#2A3633"/>
<path d="M112.043 96.8259C111.987 96.8259 111.94 96.8721 111.94 96.9285V101.081C111.94 101.138 111.987 101.184 112.043 101.184C112.1 101.184 112.147 101.138 112.147 101.081V96.9285C112.146 96.8721 112.1 96.8259 112.043 96.8259Z" fill="#BC992F"/>
<path d="M112.07 96.8295L107.763 95.4912C107.709 95.4742 107.652 95.5042 107.634 95.5583C107.617 95.6124 107.648 95.6696 107.702 95.6866L112.009 97.0249C112.064 97.0418 112.121 97.0119 112.138 96.9582C112.155 96.9036 112.125 96.846 112.07 96.8295Z" fill="#BC992F"/>
<path d="M112.037 99.4447C112.195 99.4447 112.324 99.3001 112.324 99.1218C112.324 98.9434 112.195 98.7988 112.037 98.7988C111.878 98.7988 111.749 98.9434 111.749 99.1218C111.749 99.3001 111.878 99.4447 112.037 99.4447Z" fill="#BC992F"/>
<path d="M111.943 99.3863C111.943 99.3863 111.658 99.712 111.658 99.9098C111.658 99.9919 111.655 100.45 111.653 100.784C111.652 100.986 111.501 101.143 111.501 101.143C111.501 101.256 112.57 101.256 112.57 101.143C112.57 101.143 112.419 100.991 112.418 100.793C112.415 100.468 112.412 100.017 112.412 99.9249C112.412 99.7121 112.129 99.3864 112.129 99.3864H111.943V99.3863Z" fill="#BC992F"/>
<path d="M107.769 95.9428C108.066 95.9428 108.307 95.7944 108.307 95.6113C108.307 95.4281 108.066 95.2797 107.769 95.2797C107.471 95.2797 107.23 95.4281 107.23 95.6113C107.23 95.7944 107.471 95.9428 107.769 95.9428Z" fill="#2B2B2A"/>
<path d="M147.505 132.8C161.378 132.8 172.625 121.607 172.625 107.8C172.625 93.9929 161.378 82.8 147.505 82.8C133.631 82.8 122.385 93.9929 122.385 107.8C122.385 121.607 133.631 132.8 147.505 132.8Z" fill="#4ABC96"/>
<path d="M135.851 105.256L134.27 111.131C134.27 111.131 136.966 117.702 147.427 117.702C157.886 117.702 160.649 111.132 160.649 111.132L159.068 105.256H135.851Z" fill="#242D2B"/>
<path d="M135.851 105.256L134.27 111.131C134.27 111.131 136.966 117.702 147.427 117.702L147.348 105.256H135.851V105.256Z" fill="#2A3633"/>
<path d="M135.851 105.256L135.362 106.954L146.065 110.064C146.885 110.313 148.212 110.313 149.032 110.064L159.557 107.008L159.068 105.256H135.851V105.256Z" fill="#181E1D"/>
<path d="M149.031 109.456C148.212 109.705 146.885 109.705 146.065 109.456L127.94 103.936C127.121 103.686 127.121 103.283 127.94 103.033L146.065 97.5138C146.884 97.2639 148.212 97.2639 149.03 97.5138L167.155 103.033C167.975 103.283 167.975 103.686 167.155 103.936L149.031 109.456Z" fill="#2A3633"/>
<path d="M157.803 106.771C157.668 106.771 157.557 106.881 157.557 107.016V116.931C157.557 117.065 157.667 117.175 157.803 117.175C157.939 117.175 158.049 117.065 158.049 116.931V107.016C158.049 106.881 157.939 106.771 157.803 106.771Z" fill="#BC992F"/>
<path d="M157.869 106.779L147.584 103.584C147.454 103.543 147.316 103.615 147.275 103.744C147.235 103.873 147.307 104.01 147.437 104.051L157.721 107.245C157.851 107.286 157.989 107.214 158.03 107.086C158.07 106.957 157.998 106.819 157.869 106.779Z" fill="#BC992F"/>
<path d="M158.471 112.25C158.471 112.675 158.164 113.021 157.786 113.021C157.407 113.021 157.101 112.675 157.101 112.25C157.101 111.823 157.407 111.478 157.786 111.478C158.164 111.478 158.471 111.823 158.471 112.25Z" fill="#BC992F"/>
<path d="M157.563 112.884C157.563 112.884 156.885 113.662 156.885 114.133C156.885 114.329 156.878 115.424 156.872 116.221C156.869 116.704 156.509 117.077 156.509 117.077C156.509 117.349 159.062 117.349 159.062 117.077C159.062 117.077 158.702 116.714 158.698 116.243C158.692 115.465 158.684 114.391 158.684 114.169C158.684 113.662 158.008 112.883 158.008 112.883L157.563 112.884Z" fill="#BC992F"/>
<path d="M147.596 104.662C148.306 104.662 148.881 104.308 148.881 103.872C148.881 103.436 148.306 103.083 147.596 103.083C146.886 103.083 146.31 103.436 146.31 103.872C146.31 104.308 146.886 104.662 147.596 104.662Z" fill="#2B2B2A"/>
<path d="M187.697 132.8C201.571 132.8 212.817 121.607 212.817 107.8C212.817 93.9929 201.571 82.8 187.697 82.8C173.824 82.8 162.577 93.9929 162.577 107.8C162.577 121.607 173.824 132.8 187.697 132.8Z" fill="#D7DABA"/>
<path d="M200.12 120.705C200.12 121.087 199.809 121.395 199.427 121.395H176.136C175.754 121.395 175.443 121.087 175.443 120.705V93.5544C175.443 93.1734 175.754 92.8643 176.136 92.8643H199.427C199.809 92.8643 200.12 93.1734 200.12 93.5544V120.705Z" fill="#327477"/>
<path d="M200.12 122.57C200.12 122.951 199.809 123.26 199.427 123.26H177.448V97.6286H199.426C199.809 97.6286 200.119 97.9377 200.119 98.3187V122.57H200.12Z" fill="#3B7F89"/>
<path d="M177.589 97.2703H177.167V123.26H177.589V97.2703Z" fill="#4699A1"/>
<path d="M177.237 92.8643H176.136C175.754 92.8643 175.443 93.1734 175.443 93.5544V122.57C175.443 122.951 175.754 123.26 176.136 123.26H177.237V92.8643Z" fill="#2A646E"/>
<path d="M198.871 97.6199H177.811C177.093 97.6199 176.511 97.04 176.511 96.3256V95.4757C176.511 94.7611 177.093 94.182 177.811 94.182H197.571C198.289 94.182 198.871 94.7615 198.871 95.4757V97.6199Z" fill="#E9E9EA"/>
<path d="M192.732 109.341H184.94C184.02 109.341 183.272 108.596 183.272 107.681V103.657C183.272 102.742 184.02 101.997 184.94 101.997H192.732C193.651 101.997 194.4 102.742 194.4 103.657V107.681C194.399 108.596 193.651 109.341 192.732 109.341Z" fill="#2A646E"/>
<path d="M195.406 113.484C195.406 113.781 195.173 114.023 194.885 114.023H182.553C182.266 114.023 182.032 113.781 182.032 113.484C182.032 113.185 182.266 112.944 182.553 112.944H194.885C195.173 112.944 195.406 113.185 195.406 113.484Z" fill="#2A646E"/>
<path d="M195.406 115.485C195.406 115.783 195.173 116.024 194.885 116.024H182.553C182.266 116.024 182.032 115.783 182.032 115.485C182.032 115.187 182.266 114.946 182.553 114.946H194.885C195.173 114.946 195.406 115.187 195.406 115.485Z" fill="#2A646E"/>
<path d="M193.215 118.462C193.215 118.662 193.058 118.825 192.865 118.825H184.574C184.38 118.825 184.224 118.662 184.224 118.462C184.224 118.262 184.381 118.1 184.574 118.1H192.865C193.058 118.1 193.215 118.262 193.215 118.462Z" fill="#2A646E"/>
<path d="M227.889 132.8C241.763 132.8 253.009 121.607 253.009 107.8C253.009 93.9929 241.763 82.8 227.889 82.8C214.016 82.8 202.769 93.9929 202.769 107.8C202.769 121.607 214.016 132.8 227.889 132.8Z" fill="#17254E"/>
</g>
<defs>
<filter id="filter0_d_3_1249" x="0" y="0" width="295" height="171" filterUnits="userSpaceOnUse" color-interpolation-filters="sRGB">
<feFlood flood-opacity="0" result="BackgroundImageFix"/>
<feColorMatrix in="SourceAlpha" type="matrix" values="0 0 0 0 0 0 0 0 0 0 0 0 0 0 0 0 0 0 127 0" result="hardAlpha"/>
<feOffset dy="1"/>
<feGaussianBlur stdDeviation="5.5"/>
<feComposite in2="hardAlpha" operator="out"/>
<feColorMatrix type="matrix" values="0 0 0 0 0 0 0 0 0 0 0 0 0 0 0 0 0 0 0.07 0"/>
<feBlend mode="normal" in2="BackgroundImageFix" result="effect1_dropShadow_3_1249"/>
<feBlend mode="normal" in="SourceGraphic" in2="effect1_dropShadow_3_1249" result="shape"/>
</filter>
</defs>
</svg>
