<svg width="36" height="36" viewBox="0 0 36 36" fill="none" xmlns="http://www.w3.org/2000/svg">
<rect x="0.5" y="0.590088" width="35" height="35" rx="17.5" fill="white"/>
<path d="M18.1868 13.3967C20.2786 13.3967 22.0052 15.1233 22.0052 17.2151C22.0052 19.3401 20.2786 21.0334 18.1868 21.0334C16.0618 21.0334 14.3684 19.3401 14.3684 17.2151C14.3684 15.1233 16.0618 13.3967 18.1868 13.3967ZM18.1868 19.7053C19.5481 19.7053 20.6438 18.6096 20.6438 17.2151C20.6438 15.8538 19.5481 14.7581 18.1868 14.7581C16.7923 14.7581 15.6966 15.8538 15.6966 17.2151C15.6966 18.6096 16.8255 19.7053 18.1868 19.7053ZM23.0345 13.2639C23.0345 13.762 22.636 14.1604 22.138 14.1604C21.6399 14.1604 21.2415 13.762 21.2415 13.2639C21.2415 12.7659 21.6399 12.3674 22.138 12.3674C22.636 12.3674 23.0345 12.7659 23.0345 13.2639ZM25.5579 14.1604C25.6243 15.3889 25.6243 19.0745 25.5579 20.303C25.4915 21.4983 25.2259 22.5276 24.3626 23.4241C23.4993 24.2874 22.4368 24.553 21.2415 24.6194C20.013 24.6858 16.3274 24.6858 15.0989 24.6194C13.9036 24.553 12.8743 24.2874 11.9778 23.4241C11.1145 22.5276 10.8489 21.4983 10.7825 20.303C10.7161 19.0745 10.7161 15.3889 10.7825 14.1604C10.8489 12.9651 11.1145 11.9026 11.9778 11.0393C12.8743 10.176 13.9036 9.9104 15.0989 9.84399C16.3274 9.77759 20.013 9.77759 21.2415 9.84399C22.4368 9.9104 23.4993 10.176 24.3626 11.0393C25.2259 11.9026 25.4915 12.9651 25.5579 14.1604ZM23.9642 21.5979C24.3626 20.635 24.263 18.3108 24.263 17.2151C24.263 16.1526 24.3626 13.8284 23.9642 12.8323C23.6985 12.2014 23.2005 11.6702 22.5696 11.4377C21.5735 11.0393 19.2493 11.1389 18.1868 11.1389C17.0911 11.1389 14.7669 11.0393 13.804 11.4377C13.1399 11.7034 12.6419 12.2014 12.3763 12.8323C11.9778 13.8284 12.0774 16.1526 12.0774 17.2151C12.0774 18.3108 11.9778 20.635 12.3763 21.5979C12.6419 22.262 13.1399 22.76 13.804 23.0256C14.7669 23.4241 17.0911 23.3245 18.1868 23.3245C19.2493 23.3245 21.5735 23.4241 22.5696 23.0256C23.2005 22.76 23.7317 22.262 23.9642 21.5979Z" fill="#FC6441"/>
<a href="https://www.figma.com/design/fjuI2Q9GSEVxjkQcULgl1E?node-id=7-413">
<rect fill="black" fill-opacity="0" x="0.18925" y="-1.275" width="14.875" height="19.55"/>
</a>
</svg>
