<svg width="54" height="55" viewBox="0 0 54 55" fill="none" xmlns="http://www.w3.org/2000/svg">
<rect y="0.589966" width="54" height="54" rx="27" fill="#FC6341" fill-opacity="0.1"/>
<path d="M33.2761 36.348C33.1064 36.7703 32.8023 36.9428 32.3638 36.8654C27.9321 36.084 24.4235 33.847 21.8379 30.1544C19.2524 26.4619 18.3503 22.3998 19.1317 17.9681C19.209 17.5296 19.4751 17.3028 19.9299 17.2878L23.6772 17.0918C24.1361 17.0537 24.4192 17.2702 24.5265 17.7413L25.5046 21.912C25.6011 22.3098 25.4633 22.6187 25.0913 22.8387L22.7149 24.1689C23.0979 25.6406 23.7288 26.9894 24.6074 28.2153C25.4819 29.4642 26.5336 30.5183 27.7624 31.3776L29.8598 29.6055C30.1707 29.3271 30.5081 29.3033 30.872 29.5341L34.4566 31.8797C34.8395 32.1376 34.9346 32.4756 34.7419 32.8938L33.2761 36.348Z" fill="#F28F53"/>
</svg>
