<svg width="54" height="55" viewBox="0 0 54 55" fill="none" xmlns="http://www.w3.org/2000/svg">
<rect y="0.589966" width="54" height="54" rx="27" fill="#FC6341" fill-opacity="0.1"/>
<path d="M26.475 35.4884C25.9125 34.6681 25.268 33.7423 24.5414 32.7111C23.8383 31.6798 23.3344 30.9532 23.0297 30.5314C22.725 30.1095 22.3734 29.5939 21.975 28.9845C21.5766 28.3517 21.307 27.9064 21.1664 27.6486C21.0492 27.3907 20.9086 27.0626 20.7445 26.6642C20.6039 26.2657 20.5102 25.9259 20.4633 25.6447C20.4398 25.34 20.4281 24.9884 20.4281 24.59C20.4281 22.715 21.0844 21.1212 22.3969 19.8087C23.7094 18.4962 25.3031 17.84 27.1781 17.84C29.0531 17.84 30.6469 18.4962 31.9594 19.8087C33.2719 21.1212 33.9281 22.715 33.9281 24.59C33.9281 24.9884 33.9047 25.34 33.8578 25.6447C33.8344 25.9259 33.7406 26.2657 33.5766 26.6642C33.4359 27.0626 33.2953 27.3907 33.1547 27.6486C33.0375 27.9064 32.7797 28.3517 32.3812 28.9845C31.9828 29.5939 31.6312 30.1095 31.3266 30.5314C31.0219 30.9532 30.5062 31.6798 29.7797 32.7111C29.0766 33.7423 28.4437 34.6681 27.8812 35.4884C27.7172 35.7228 27.4828 35.84 27.1781 35.84C26.8734 35.84 26.6391 35.7228 26.475 35.4884ZM25.1742 26.5939C25.7367 27.1329 26.4047 27.4025 27.1781 27.4025C27.9516 27.4025 28.6078 27.1329 29.1469 26.5939C29.7094 26.0314 29.9906 25.3634 29.9906 24.59C29.9906 23.8165 29.7094 23.1603 29.1469 22.6212C28.6078 22.0587 27.9516 21.7775 27.1781 21.7775C26.4047 21.7775 25.7367 22.0587 25.1742 22.6212C24.6352 23.1603 24.3656 23.8165 24.3656 24.59C24.3656 25.3634 24.6352 26.0314 25.1742 26.5939Z" fill="#F28F53"/>
</svg>
