<svg width="14" height="17" viewBox="0 0 14 17" fill="none" xmlns="http://www.w3.org/2000/svg">
<g clip-path="url(#clip0_28_1004)">
<g clip-path="url(#clip1_28_1004)">
<path d="M13.6104 2.45562C13.6104 2.32619 13.5055 2.22125 13.3761 2.22125C13.2466 2.22125 13.1417 2.32619 13.1417 2.45562V12.9376H2.24731V0.658752H3.37497V3.44206C3.37497 3.53741 3.43275 3.62325 3.52106 3.65919C3.60934 3.69506 3.71065 3.67394 3.77722 3.60563L4.62115 2.73947L5.46512 3.60563C5.51012 3.65181 5.571 3.67647 5.63303 3.67647C5.66272 3.67647 5.69268 3.67081 5.72128 3.65919C5.80959 3.62328 5.86737 3.53744 5.86737 3.44206V0.658752H13.1417V1.51812C13.1417 1.64756 13.2467 1.7525 13.3761 1.7525C13.5055 1.7525 13.6105 1.64756 13.6105 1.51812V0.424377C13.6105 0.294939 13.5055 0.190002 13.3761 0.190002H2.01297C1.57837 0.190002 1.1699 0.359096 0.862876 0.666158C0.555844 0.973221 0.386719 1.38166 0.386719 1.81625V14.5637L0.386782 14.5649C0.387376 15.4611 1.11662 16.19 2.01293 16.19H13.3762C13.5056 16.19 13.6106 16.0851 13.6106 15.9556L13.6104 2.45562ZM5.39859 0.658752V2.86569L4.789 2.24006C4.74487 2.19478 4.68434 2.16925 4.62112 2.16925C4.5579 2.16925 4.49737 2.19478 4.45325 2.24006L3.84368 2.86569V0.658752H5.39859ZM1.19431 0.997596C1.35656 0.835377 1.55862 0.727408 1.77856 0.682471V12.9547C1.41978 13.0068 1.09865 13.1762 0.855469 13.423V1.81625C0.855469 1.50684 0.975813 1.21612 1.19431 0.997596ZM2.01293 15.7212C1.37472 15.7212 0.855501 15.202 0.855501 14.5638C0.855501 13.9256 1.37472 13.4063 2.01293 13.4063H13.1418V13.7188H3.70297C3.57353 13.7188 3.46859 13.8237 3.46859 13.9531C3.46859 14.0826 3.57353 14.1875 3.70297 14.1875H13.1417V14.94H2.01297C1.8055 14.94 1.63672 14.7712 1.63672 14.5637C1.63672 14.3563 1.8055 14.1875 2.01297 14.1875H2.76547C2.8949 14.1875 2.99984 14.0826 2.99984 13.9531C2.99984 13.8237 2.8949 13.7188 2.76547 13.7188H2.01297C1.54703 13.7188 1.16797 14.0978 1.16797 14.5637C1.16797 15.0297 1.54703 15.4088 2.01297 15.4088H13.1418V15.7212H2.01293Z" fill="#F28F53"/>
<path d="M4.64946 4.08063C3.98012 4.08063 3.43555 4.6252 3.43555 5.29454V8.28345C3.43555 8.95279 3.98012 9.49735 4.64946 9.49735H10.0451C10.7145 9.49735 11.2591 8.95279 11.2591 8.28345V5.29454C11.2591 4.6252 10.7145 4.08063 10.0451 4.08063H4.64946ZM10.7903 5.29454V8.28345C10.7903 8.69432 10.456 9.0286 10.0451 9.0286H4.64946C4.23858 9.0286 3.9043 8.69432 3.9043 8.28345V5.29454C3.9043 4.88367 4.23858 4.54939 4.64946 4.54939H10.0451C10.4561 4.54939 10.7903 4.88367 10.7903 5.29454Z" fill="#F28F53"/>
<path d="M9.54927 5.93317H5.14648C5.01705 5.93317 4.91211 6.03811 4.91211 6.16755C4.91211 6.29699 5.01705 6.40192 5.14648 6.40192H9.54927C9.6787 6.40192 9.78364 6.29699 9.78364 6.16755C9.78364 6.03811 9.6787 5.93317 9.54927 5.93317Z" fill="#F28F53"/>
<path d="M9.54927 7.17535H5.14648C5.01705 7.17535 4.91211 7.28029 4.91211 7.40973C4.91211 7.53916 5.01705 7.6441 5.14648 7.6441H9.54927C9.6787 7.6441 9.78364 7.53916 9.78364 7.40973C9.78364 7.28029 9.6787 7.17535 9.54927 7.17535Z" fill="#F28F53"/>
</g>
</g>
<defs>
<clipPath id="clip0_28_1004">
<rect width="14" height="16" fill="white" transform="translate(0 0.190002)"/>
</clipPath>
<clipPath id="clip1_28_1004">
<rect width="14" height="16" fill="white" transform="translate(0 0.190002)"/>
</clipPath>
</defs>
</svg>
