<svg width="36" height="36" viewBox="0 0 36 36" fill="none" xmlns="http://www.w3.org/2000/svg">
<rect x="0.5" y="0.590088" width="35" height="35" rx="17.5" fill="white"/>
<path d="M18.5768 8.94751C21.6979 8.94751 24.5533 11.1057 24.5533 14.3928C24.5533 17.4807 22.9596 20.9338 19.44 20.9338C18.5768 20.9338 17.5475 20.5022 17.1158 19.7385C16.3854 22.7268 16.4186 23.1917 14.7584 25.4827C14.5924 25.5491 14.6256 25.5491 14.526 25.4163C14.4596 24.7854 14.3932 24.1877 14.3932 23.5569C14.3932 21.5315 15.3229 18.5764 15.7877 16.6174C15.5221 16.0862 15.4557 15.4885 15.4557 14.9241C15.4557 12.2678 18.5768 11.8694 18.5768 14.0608C18.5768 15.3557 17.6803 16.5842 17.6803 17.8459C17.6803 18.676 18.4107 19.2737 19.2408 19.2737C21.5318 19.2737 22.2291 15.9866 22.2291 14.2268C22.2291 11.8694 20.5689 10.5745 18.2779 10.5745C15.6549 10.5745 13.6295 12.467 13.6295 15.1233C13.6295 16.4182 14.4264 17.0823 14.4264 17.3811C14.4264 17.6467 14.2271 18.5432 13.8951 18.5432C13.0982 18.5432 11.8033 17.2151 11.8033 14.8909C11.8033 11.2053 15.1568 8.94751 18.5768 8.94751Z" fill="#FC6441"/>
<a href="https://www.figma.com/design/fjuI2Q9GSEVxjkQcULgl1E?node-id=7-413">
<rect fill="black" fill-opacity="0" x="0.173438" y="-1.275" width="12.75" height="19.55"/>
</a>
</svg>
