<svg width="54" height="55" viewBox="0 0 54 55" fill="none" xmlns="http://www.w3.org/2000/svg">
<rect y="0.589966" width="54" height="54" rx="27" fill="#FC6341" fill-opacity="0.1"/>
<path d="M20.9656 20.6876C22.6766 18.9767 24.7391 18.1212 27.1531 18.1212C29.5672 18.1212 31.618 18.9767 33.3055 20.6876C35.0164 22.3751 35.8719 24.4259 35.8719 26.84C35.8719 29.254 35.0164 31.3165 33.3055 33.0275C31.618 34.715 29.5672 35.5587 27.1531 35.5587C24.7391 35.5587 22.6766 34.715 20.9656 33.0275C19.2781 31.3165 18.4344 29.254 18.4344 26.84C18.4344 24.4259 19.2781 22.3751 20.9656 20.6876ZM29.157 30.4259C29.3914 30.59 29.5906 30.5665 29.7547 30.3556L30.7391 28.9845C30.9031 28.7501 30.8797 28.5509 30.6688 28.3868L28.4188 26.7697V21.9181C28.4188 21.6368 28.2781 21.4962 27.9969 21.4962H26.3094C26.0281 21.4962 25.8875 21.6368 25.8875 21.9181V27.8243C25.8875 27.965 25.9461 28.0822 26.0633 28.1759L29.157 30.4259Z" fill="#F28F53"/>
</svg>
