<svg width="36" height="36" viewBox="0 0 36 36" fill="none" xmlns="http://www.w3.org/2000/svg">
<rect x="0.5" y="0.590088" width="35" height="35" rx="17.5" fill="white"/>
<path d="M24.9402 13.762C24.9402 13.928 24.9402 14.0608 24.9402 14.2268C24.9402 18.842 21.4539 24.1213 15.0457 24.1213C13.0535 24.1213 11.2273 23.5569 9.7 22.5608C9.96563 22.594 10.2313 22.6272 10.5301 22.6272C12.157 22.6272 13.6512 22.0627 14.8465 21.1331C13.3191 21.0999 12.0242 20.1038 11.5926 18.7092C11.825 18.7424 12.0242 18.7756 12.2566 18.7756C12.5555 18.7756 12.8875 18.7092 13.1531 18.6428C11.5594 18.3108 10.3641 16.9163 10.3641 15.2229V15.1897C10.8289 15.4553 11.3934 15.5881 11.9578 15.6213C10.9949 14.9905 10.3973 13.928 10.3973 12.7327C10.3973 12.0686 10.5633 11.4709 10.8621 10.9729C12.5887 13.0647 15.1785 14.4592 18.0672 14.6252C18.0008 14.3596 17.9676 14.094 17.9676 13.8284C17.9676 11.9026 19.5281 10.342 21.4539 10.342C22.45 10.342 23.3465 10.7405 24.0105 11.4377C24.7742 11.2717 25.5379 10.9729 26.202 10.5745C25.9363 11.4045 25.4051 12.0686 24.6746 12.5002C25.3719 12.4338 26.0691 12.2346 26.6668 11.969C26.202 12.6663 25.6043 13.2639 24.9402 13.762Z" fill="#FC6441"/>
<a href="https://www.figma.com/design/fjuI2Q9GSEVxjkQcULgl1E?node-id=7-413">
<rect fill="black" fill-opacity="0" x="0.200001" y="-1.275" width="17" height="19.55"/>
</a>
</svg>
