<svg width="31" height="37" viewBox="0 0 31 37" fill="none" xmlns="http://www.w3.org/2000/svg">
<path d="M28.5909 3.36364H25.2273V1.68182C25.2273 1.23577 25.0501 0.807995 24.7347 0.492593C24.4193 0.177191 23.9915 0 23.5455 0H5.88636C5.44032 0 5.01254 0.177191 4.69714 0.492593C4.38174 0.807995 4.20455 1.23577 4.20455 1.68182V3.36364H1.68182C1.23577 3.36364 0.807995 3.54083 0.492593 3.85623C0.177191 4.17163 0 4.59941 0 5.04545V35.3182C0 35.7642 0.177191 36.192 0.492593 36.5074C0.807995 36.8228 1.23577 37 1.68182 37H28.5909C29.037 37 29.4647 36.8228 29.7801 36.5074C30.0955 36.192 30.2727 35.7642 30.2727 35.3182V5.04545C30.2727 4.59941 30.0955 4.17163 29.7801 3.85623C29.4647 3.54083 29.037 3.36364 28.5909 3.36364ZM16.3136 28.0864C16.0031 28.4032 15.58 28.5846 15.1364 28.5909H8.40909C7.96305 28.5909 7.53527 28.4137 7.21987 28.0983C6.90446 27.7829 6.72727 27.3551 6.72727 26.9091C6.74775 26.4696 6.93151 26.0537 7.24258 25.7426C7.55366 25.4315 7.96964 25.2477 8.40909 25.2273H15.1364C15.5824 25.2273 16.0102 25.4045 16.3256 25.7199C16.641 26.0353 16.8182 26.463 16.8182 26.9091C16.8119 27.3527 16.6305 27.7758 16.3136 28.0864ZM23.0409 21.3591C22.7304 21.676 22.3072 21.8573 21.8636 21.8636H8.40909C7.96305 21.8636 7.53527 21.6864 7.21987 21.371C6.90446 21.0556 6.72727 20.6279 6.72727 20.1818C6.74775 19.7424 6.93151 19.3264 7.24258 19.0153C7.55366 18.7042 7.96964 18.5205 8.40909 18.5H21.8636C22.3097 18.5 22.7375 18.6772 23.0529 18.9926C23.3683 19.308 23.5455 19.7358 23.5455 20.1818C23.5391 20.6254 23.3578 21.0486 23.0409 21.3591ZM23.0409 14.6318C22.7304 14.9487 22.3072 15.13 21.8636 15.1364H8.40909C7.96305 15.1364 7.53527 14.9592 7.21987 14.6438C6.90446 14.3284 6.72727 13.9006 6.72727 13.4545C6.74775 13.0151 6.93151 12.5991 7.24258 12.288C7.55366 11.977 7.96964 11.7932 8.40909 11.7727H21.8636C22.3097 11.7727 22.7375 11.9499 23.0529 12.2653C23.3683 12.5807 23.5455 13.0085 23.5455 13.4545C23.5391 13.8982 23.3578 14.3213 23.0409 14.6318Z" fill="white"/>
</svg>
