<svg width="34" height="36" viewBox="0 0 34 36" fill="none" xmlns="http://www.w3.org/2000/svg">
<path fill-rule="evenodd" clip-rule="evenodd" d="M7.55556 0C7.05459 0 6.57414 0.199623 6.21991 0.554955C5.86567 0.910288 5.66667 1.39222 5.66667 1.89474V3.79137C3.85144 3.81789 3.13556 4.03579 2.41589 4.42232C1.65539 4.82615 1.03348 5.44999 0.630889 6.21284C0.219111 6.984 0 7.74947 0 9.86211V29.9274C0 32.0381 0.219111 32.8055 0.630889 33.5766C1.04267 34.3478 1.64711 34.9541 2.41589 35.3672C3.18467 35.7802 3.94778 36 6.05389 36H27.9461C30.0503 36 30.8153 35.7802 31.5841 35.3672C32.3529 34.9541 32.9573 34.3478 33.3691 33.5766C33.7809 32.8055 34 32.04 34 29.9274V9.86211C34 7.74947 33.7809 6.984 33.3691 6.21284C32.9665 5.44999 32.3446 4.82615 31.5841 4.42232C30.8644 4.03579 30.1486 3.81789 28.3333 3.78947V1.89474C28.3333 1.39222 28.1343 0.910288 27.7801 0.554955C27.4259 0.199623 26.9454 0 26.4444 0C25.9435 0 25.463 0.199623 25.1088 0.554955C24.7546 0.910288 24.5556 1.39222 24.5556 1.89474V3.78947H9.44444V1.89474C9.44444 1.39222 9.24544 0.910288 8.8912 0.554955C8.53697 0.199623 8.05652 0 7.55556 0ZM3.77778 13.2632V29.9274C3.77778 30.7364 3.81367 31.2423 3.87033 31.536C3.893 31.6497 3.90244 31.6762 3.96289 31.7899C4.01298 31.8925 4.09527 31.9757 4.19711 32.0267C4.31044 32.0855 4.335 32.0949 4.45022 32.1177C4.743 32.1745 5.24733 32.2105 6.05389 32.2105H27.9461C28.7527 32.2105 29.257 32.1745 29.5498 32.1177C29.6396 32.1043 29.7257 32.0728 29.8029 32.0248C29.9051 31.9746 29.9881 31.8921 30.039 31.7899C30.0861 31.7123 30.1169 31.6259 30.1297 31.536C30.1863 31.2423 30.2222 30.7364 30.2222 29.9274L30.2298 13.2632H3.77778ZM20.3056 20.8421C19.9298 20.8421 19.5695 20.9918 19.3038 21.2583C19.0381 21.5248 18.8889 21.8863 18.8889 22.2632V27C18.8889 27.7844 19.5236 28.4211 20.3056 28.4211H25.0278C25.4035 28.4211 25.7638 28.2713 26.0295 28.0048C26.2952 27.7383 26.4444 27.3769 26.4444 27V22.2632C26.4444 21.8863 26.2952 21.5248 26.0295 21.2583C25.7638 20.9918 25.4035 20.8421 25.0278 20.8421H20.3056Z" fill="#04857A"/>
</svg>
