<svg width="41" height="41" viewBox="0 0 41 41" fill="none" xmlns="http://www.w3.org/2000/svg">
<path d="M29.0895 0H11.9105C4.4485 0 0 4.4485 0 11.9105V29.0895C0 36.5515 4.4485 41 11.9105 41H29.0895C36.5515 41 41 36.5515 41 29.0895V11.9105C41 4.4485 36.5515 0 29.0895 0ZM16.3385 26.445L11.726 31.0575C11.4185 31.365 11.029 31.5085 10.6395 31.5085C10.25 31.5085 9.84 31.365 9.553 31.0575L8.0155 29.52C7.4005 28.9255 7.4005 27.9415 8.0155 27.347C8.61 26.7525 9.5735 26.7525 10.1885 27.347L10.6395 27.798L14.1655 24.272C14.76 23.6775 15.7235 23.6775 16.3385 24.272C16.933 24.8665 16.933 25.8505 16.3385 26.445ZM16.3385 12.095L11.726 16.7075C11.4185 17.015 11.029 17.1585 10.6395 17.1585C10.25 17.1585 9.84 17.015 9.553 16.7075L8.0155 15.17C7.4005 14.5755 7.4005 13.5915 8.0155 12.997C8.61 12.4025 9.5735 12.4025 10.1885 12.997L10.6395 13.448L14.1655 9.922C14.76 9.3275 15.7235 9.3275 16.3385 9.922C16.933 10.5165 16.933 11.5005 16.3385 12.095ZM31.898 29.971H21.1355C20.295 29.971 19.598 29.274 19.598 28.4335C19.598 27.593 20.295 26.896 21.1355 26.896H31.898C32.759 26.896 33.4355 27.593 33.4355 28.4335C33.4355 29.274 32.759 29.971 31.898 29.971ZM31.898 15.621H21.1355C20.295 15.621 19.598 14.924 19.598 14.0835C19.598 13.243 20.295 12.546 21.1355 12.546H31.898C32.759 12.546 33.4355 13.243 33.4355 14.0835C33.4355 14.924 32.759 15.621 31.898 15.621Z" fill="white"/>
</svg>
