<svg width="56" height="56" viewBox="0 0 56 56" fill="none" xmlns="http://www.w3.org/2000/svg">
<path fill-rule="evenodd" clip-rule="evenodd" d="M32.3048 29.0117L39.4921 33.1613C40.1937 33.5663 40.4207 34.4867 40.0256 35.171C39.6187 35.8758 38.7404 36.1306 38.0184 35.7138L30.7093 31.4939C29.961 32.075 29.0209 32.4211 28 32.4211C25.5583 32.4211 23.5789 30.4417 23.5789 28C23.5789 26.075 24.8092 24.4374 26.5263 23.8305V10.3259C26.5263 9.5064 27.2099 8.8421 28 8.8421C28.8139 8.8421 29.4737 9.52854 29.4737 10.3259V23.8305C31.1908 24.4374 32.4211 26.075 32.4211 28C32.4211 28.3481 32.3808 28.6868 32.3048 29.0117ZM28 56C43.464 56 56 43.464 56 28C56 12.536 43.464 0 28 0C12.536 0 0 12.536 0 28C0 43.464 12.536 56 28 56Z" fill="white"/>
</svg>
