<svg width="51" height="48" viewBox="0 0 51 48" fill="none" xmlns="http://www.w3.org/2000/svg">
<path d="M17.5453 39.4324C22.5848 39.4324 26.0492 38.7672 26.1022 38.1259C26.3208 35.4502 22.9103 34.0537 21.5356 33.5308C21.3925 33.4759 21.2371 33.4 21.0782 33.3125L18.4356 37.0332L18.2472 34.596H16.8422L16.654 37.0332L14.0105 33.3125C13.8474 33.4053 13.6894 33.4813 13.5539 33.5308C12.1689 34.0263 8.76871 35.453 8.98656 38.1259C9.04042 38.7672 12.5049 39.4324 17.5453 39.4324Z" fill="white"/>
<path d="M14.5326 28.1533C14.7194 29.2144 15.0301 30.152 15.4413 30.6125C15.4413 31.1657 15.4413 31.5696 15.4413 31.8922C15.4413 31.9244 15.4354 31.9581 15.4262 31.9936L16.8674 32.693V33.7203H18.2232V32.6939L19.6636 31.9945C19.6544 31.9599 19.6486 31.9244 19.6486 31.8923C19.6486 31.5696 19.6486 31.1658 19.6486 30.6126C20.0598 30.1521 20.3722 29.2145 20.558 28.1534C20.9909 27.998 21.2388 27.7479 21.547 26.6556C21.8761 25.4924 21.0529 25.5312 21.0529 25.5312C21.7195 23.3062 20.841 21.2162 19.3731 21.37C18.3598 19.5807 14.9658 21.778 13.9022 21.6251C13.9022 22.2366 14.1551 22.6988 14.1551 22.6988C13.7849 23.4067 13.9281 24.8174 14.032 25.5312C13.9708 25.5312 13.2263 25.5389 13.543 26.6556C13.8518 27.7477 14.0988 27.9979 14.5326 28.1533Z" fill="white"/>
<path d="M31.8245 4.6365C31.8245 2.2263 29.798 0.265137 27.3074 0.265137H23.6938C21.2033 0.265137 19.1768 2.2263 19.1768 4.6365V12.5049H31.8245V4.6365ZM28.2109 6.38512C28.2109 6.86843 27.8068 7.25943 27.3074 7.25943H23.6938C23.1945 7.25943 22.7904 6.86843 22.7904 6.38512V4.6365C22.7904 4.15329 23.1945 3.76218 23.6938 3.76218H27.3074C27.8068 3.76218 28.2109 4.15329 28.2109 4.6365V6.38512Z" fill="white"/>
<path d="M46.0144 10.8728H33.414V12.5527C33.414 13.5248 32.6224 14.3207 31.6555 14.3207H19.3454C18.3785 14.3207 17.5868 13.5248 17.5868 12.5527V10.8728H4.98652C2.23437 10.8728 0.000976562 13.1182 0.000976562 15.8849V42.988C0.000976562 45.7548 2.23437 48.0001 4.98652 48.0001H46.0145C48.7666 48.0001 51 45.7548 51 42.988V15.8849C50.9999 13.1182 48.7665 10.8728 46.0144 10.8728ZM45.7241 43.9341H5.27678V17.4146H45.7242V43.9341H45.7241Z" fill="white"/>
<path d="M40.3918 25.1526H29.376V27.6005H40.3918V25.1526Z" fill="white"/>
<path d="M37.1278 32.9045H29.376V35.3525H37.1278V32.9045Z" fill="white"/>
</svg>
