<svg width="56" height="56" viewBox="0 0 56 56" fill="none" xmlns="http://www.w3.org/2000/svg">
<path fill-rule="evenodd" clip-rule="evenodd" d="M0 27.9165C0 28.9921 0.872 29.8642 1.94765 29.8642H7.23152C8.1538 39.7835 16.0496 47.6792 25.9688 48.6015V53.8853C25.9688 54.9609 26.8409 55.833 27.9165 55.833C28.9921 55.833 29.8642 54.9609 29.8642 53.8853V48.6015C39.7835 47.6792 47.6792 39.7835 48.6015 29.8642H53.8853C54.9609 29.8642 55.833 28.9921 55.833 27.9165C55.833 26.8409 54.9609 25.9688 53.8853 25.9688H48.6015C47.6792 16.0496 39.7835 8.1538 29.8642 7.23152V1.94765C29.8642 0.872 28.9921 0 27.9165 0C26.8409 0 25.9688 0.872 25.9688 1.94765V7.23152C16.0496 8.1538 8.1538 16.0496 7.23152 25.9688H1.94765C0.872 25.9688 0 26.8409 0 27.9165ZM18.1782 27.9165C18.1782 22.5381 22.5381 18.1782 27.9165 18.1782C33.2949 18.1782 37.6549 22.5381 37.6549 27.9165C37.6549 33.2949 33.2949 37.6549 27.9165 37.6549C22.5381 37.6549 18.1782 33.2949 18.1782 27.9165Z" fill="white"/>
<path d="M22.0732 27.9165C22.0732 24.6896 24.6894 22.0735 27.9162 22.0735C31.1431 22.0735 33.7591 24.6896 33.7591 27.9165C33.7591 31.1433 31.1431 33.7594 27.9162 33.7594C24.6894 33.7594 22.0732 31.1433 22.0732 27.9165Z" fill="white"/>
</svg>
