<svg width="42" height="46" viewBox="0 0 42 46" fill="none" xmlns="http://www.w3.org/2000/svg">
<path fill-rule="evenodd" clip-rule="evenodd" d="M42 0V46H2.79999V35.4771H1.40001C0.62721 35.4771 0 34.871 0 34.1242C0 33.3774 0.62721 32.7713 1.40001 32.7713H2.79999V24.6536H1.40001C0.62721 24.6536 0 24.0475 0 23.3007C0 22.5538 0.62721 21.9477 1.40001 21.9477H2.79999V13.83H1.40001C0.62721 13.83 0 13.2239 0 12.4771C0 11.7303 0.62721 11.1242 1.40001 11.1242H2.79999V0H42ZM29.0759 33.295H13.2355V36.0009H29.0759V33.295ZM31.7804 28.1481H13.2355V30.8539H31.7804V28.1481ZM29.0759 15.3341H13.2355V18.0399H29.0759V15.3341ZM31.7804 10.1871H13.2355V12.893H31.7804V10.1871Z" fill="#04857A"/>
</svg>
