<svg width="49" height="43" viewBox="0 0 49 43" fill="none" xmlns="http://www.w3.org/2000/svg">
<path d="M49 35.7292V29.6018H0V35.7292H15.3125V40.8334H11.2292V42.875H37.7709V40.8334H33.6875V35.7292H49Z" fill="white"/>
<path d="M0 0V27.5601H49V0H0ZM15.3125 12.2477C18.1267 12.2477 20.4167 14.0795 20.4167 16.3311C20.4167 18.303 18.6602 19.9523 16.3333 20.3318V21.4353H14.2917V20.3318C11.9649 19.9523 10.2083 18.303 10.2083 16.3311H12.2499C12.2499 17.4377 13.6526 18.3728 15.3125 18.3728C16.9724 18.3728 18.3749 17.4377 18.3749 16.3311C18.3749 15.2246 16.9723 14.2895 15.3125 14.2895C12.4982 14.2895 10.2083 12.4576 10.2083 10.2061C10.2083 8.23425 11.9648 6.58483 14.2917 6.20536V5.10191H16.3333V6.20536C18.6601 6.58483 20.4167 8.23425 20.4167 10.2061H18.375C18.375 9.09955 16.9724 8.16447 15.3126 8.16447C13.6527 8.16447 12.25 9.09955 12.25 10.2061C12.25 11.3127 13.6526 12.2477 15.3125 12.2477ZM40.4321 21.632L38.9887 23.0755L35.7295 19.8164L32.397 23.1488L29.3565 12L40.5054 15.0405L37.173 18.373L40.4321 21.632Z" fill="white"/>
</svg>
