<svg width="49" height="49" viewBox="0 0 49 49" fill="none" xmlns="http://www.w3.org/2000/svg">
<path d="M49 41.8541V35.7261H0V41.8541H15.3125V46.9583H11.2292V48.9999H37.7709V46.9583H33.6875V41.8541H49Z" fill="white"/>
<path d="M34.7083 8.16357H27.5625V25.5178H34.7083V8.16357Z" fill="white"/>
<path d="M31.1355 0.643311L27.5625 4.3183V6.1221H34.7083V4.3183L31.1355 0.643311Z" fill="white"/>
<path d="M0 7.14575V33.6844H10.3539V28.5802H12.25V7.14575H0Z" fill="white"/>
<path d="M36.75 7.14575V8.16356V25.5177V27.5594V28.5802H38.6461V33.6844H48.9999V7.14575H36.75Z" fill="white"/>
<path d="M34.7073 30.622V27.5595H27.5615V30.622H24.499V0H14.2906V2.54904H19.3948V4.59068H14.2906V8.67405H18.374V10.7157H14.2906V14.7991H19.2492V16.8407H14.2906V20.9241H18.374V22.9657H14.2906V27.0491H19.2492V29.0907H14.2906V30.622H12.3945V32.6636H14.2906V32.6667H24.499V32.6636H27.5615V32.6667H34.7073V32.6636H36.6034V30.622H34.7073Z" fill="white"/>
</svg>
