<svg width="47" height="47" viewBox="0 0 47 47" fill="none" xmlns="http://www.w3.org/2000/svg">
<path fill-rule="evenodd" clip-rule="evenodd" d="M23.5 47C12.422 47 6.88299 47 3.4415 43.5584C-2.80142e-07 40.1171 0 34.5779 0 23.5C0 12.422 -2.80142e-07 6.88299 3.4415 3.4415C6.88299 -2.80142e-07 12.422 0 23.5 0C34.5779 0 40.1171 -2.80142e-07 43.5584 3.4415C47 6.88299 47 12.422 47 23.5C47 34.5779 47 40.1171 43.5584 43.5584C40.1171 47 34.5779 47 23.5 47ZM15.8625 10.575C15.8625 9.60154 15.0734 8.81245 14.1 8.81245C13.1266 8.81245 12.3375 9.60154 12.3375 10.575V13.5125H9.4C8.42661 13.5125 7.6375 14.3016 7.6375 15.275C7.6375 16.2484 8.42661 17.0375 9.4 17.0375H12.3375V19.975C12.3375 20.9484 13.1266 21.7375 14.1 21.7375C15.0734 21.7375 15.8625 20.9484 15.8625 19.975V17.0375H18.8C19.7734 17.0375 20.5625 16.2484 20.5625 15.275C20.5625 14.3016 19.7734 13.5125 18.8 13.5125H15.8625V10.575ZM28.2 13.5125C27.2266 13.5125 26.4375 14.3015 26.4375 15.275C26.4375 16.2483 27.2266 17.0375 28.2 17.0375H37.6C38.5734 17.0375 39.3625 16.2483 39.3625 15.275C39.3625 14.3015 38.5734 13.5125 37.6 13.5125H28.2ZM28.2 27.6125C27.2266 27.6125 26.4375 28.4016 26.4375 29.375C26.4375 30.3484 27.2266 31.1375 28.2 31.1375H37.6C38.5734 31.1375 39.3625 30.3484 39.3625 29.375C39.3625 28.4016 38.5734 27.6125 37.6 27.6125H28.2ZM11.8213 28.1288C11.133 27.4405 10.017 27.4405 9.32872 28.1288C8.64043 28.8171 8.64043 29.9329 9.32872 30.6212L11.6075 32.9L9.32875 35.1788C8.64046 35.8671 8.64046 36.9829 9.32875 37.6712C10.0171 38.3595 11.133 38.3595 11.8213 37.6712L14.1 35.3926L16.3787 37.6712C17.067 38.3595 18.1829 38.3595 18.8712 37.6712C19.5595 36.9829 19.5595 35.8671 18.8712 35.1788L16.5926 32.9L18.8712 30.6212C19.5595 29.9329 19.5595 28.8171 18.8712 28.1288C18.183 27.4405 17.067 27.4405 16.3787 28.1288L14.1 30.4074L11.8213 28.1288ZM28.2 34.6625C27.2266 34.6625 26.4375 35.4516 26.4375 36.425C26.4375 37.3984 27.2266 38.1875 28.2 38.1875H37.6C38.5734 38.1875 39.3625 37.3984 39.3625 36.425C39.3625 35.4516 38.5734 34.6625 37.6 34.6625H28.2Z" fill="white"/>
</svg>
