<svg width="50" height="51" viewBox="0 0 50 51" fill="none" xmlns="http://www.w3.org/2000/svg">
<path d="M40.2324 12.3333H43.2324C42.8133 11.9826 42.3721 11.6579 41.9089 11.3333L40.2324 12.3333Z" fill="white"/>
<path d="M39.2324 8.65678C38.5831 8.19355 37.9337 7.75237 37.2324 7.33325V10.3333L39.2324 8.65678Z" fill="white"/>
<path d="M41.7398 11.3333L48.7179 3.65732C49.4039 2.90274 49.4039 1.65377 48.7179 0.899189C48.0319 0.144606 46.8965 0.144606 46.2105 0.899189L39.2324 8.57512C40.1313 9.43378 40.9592 10.3705 41.7398 11.3333Z" fill="white"/>
<path d="M37.2324 5.24408C37.2324 4.19949 36.5479 3.33325 35.7224 3.33325C34.917 3.33325 34.2727 4.14854 34.2324 5.14217C35.2794 5.77911 36.2861 6.49249 37.2324 7.33325V5.24408Z" fill="white"/>
<path d="M47.2324 14.3467C47.2324 13.246 46.5869 12.3333 45.8084 12.3333H44.2324C44.859 13.595 45.4096 14.9373 45.8653 16.3333C46.6248 16.2796 47.2324 15.4205 47.2324 14.3467Z" fill="white"/>
<path d="M25.2324 33.3333H26.1324C27.3024 33.3333 28.2324 32.5097 28.2324 31.498C28.2324 30.2274 27.7824 30.0391 26.7624 29.7568L25.2324 29.3333V33.3333Z" fill="white"/>
<path d="M44.9764 16.1093C44.9529 16.1093 44.9294 16.1333 44.8824 16.1333H35.4824C35.2474 16.1333 35.0359 16.0853 34.8009 15.9893C34.3779 15.7973 34.0254 15.4613 33.8374 15.0053C33.7669 14.7893 33.7199 14.5733 33.7199 14.3333V4.73325C33.7199 4.70925 33.7434 4.68525 33.7434 4.63725C30.6884 3.17325 27.3044 2.33325 23.7324 2.33325C10.7604 2.33325 0.232422 13.0853 0.232422 26.3333C0.232422 39.5813 10.7604 50.3333 23.7324 50.3333C36.7044 50.3333 47.2324 39.5813 47.2324 26.3333C47.2324 22.6853 46.4099 19.2293 44.9764 16.1093ZM27.8449 25.9013C29.3489 26.4293 31.3699 27.5573 31.3699 31.0853C31.3699 34.0853 29.0434 36.5573 26.1999 36.5573H25.4949V37.1573C25.4949 38.1413 24.6959 38.9573 23.7324 38.9573C22.7689 38.9573 21.9699 38.1413 21.9699 37.1573V36.5573H21.7819C18.6564 36.5573 16.0949 33.8693 16.0949 30.5573C16.0949 29.5493 16.8939 28.7333 17.8574 28.7333C18.8209 28.7333 19.6199 29.5493 19.6199 30.5333C19.6199 31.8533 20.5834 32.9333 21.7819 32.9333H21.9699V27.6053L19.6199 26.7653C18.1159 26.2373 16.0949 25.1093 16.0949 21.5813C16.0949 18.5813 18.4214 16.1093 21.2649 16.1093H21.9699V15.5333C21.9699 14.5493 22.7689 13.7333 23.7324 13.7333C24.6959 13.7333 25.4949 14.5493 25.4949 15.5333V16.1333H25.6829C28.8084 16.1333 31.3699 18.8213 31.3699 22.1333C31.3699 23.1173 30.5709 23.9333 29.6074 23.9333C28.6439 23.9333 27.8449 23.1173 27.8449 22.1333C27.8449 20.8133 26.8814 19.7333 25.6829 19.7333H25.4949V25.0613L27.8449 25.9013Z" fill="white"/>
<path d="M19.2324 21.6274C19.2324 23.2156 19.6824 23.4509 20.7024 23.8038L22.2324 24.3333V19.3333H21.3324C20.1924 19.3333 19.2324 20.3627 19.2324 21.6274Z" fill="white"/>
</svg>
