<svg width="43" height="43" viewBox="0 0 43 43" fill="none" xmlns="http://www.w3.org/2000/svg">
<path d="M42.6426 38.9435C42.6426 40.9828 40.9747 42.6509 38.9355 42.6509H4.35344C2.31428 42.6509 0.646386 40.9828 0.646386 38.9435V4.35828C0.646386 2.31892 2.31428 0.650879 4.35344 0.650879H38.9355C40.9747 0.650879 42.6426 2.31892 42.6426 4.35828V38.9435ZM42.6426 13.8467L38.8498 11.2913C38.926 10.9638 38.9717 10.623 38.9717 10.2707C38.9717 7.8067 36.9744 5.80734 34.5088 5.80734C32.0431 5.80734 30.0458 7.8048 30.0458 10.2707C30.0458 11.2399 30.3581 12.1349 30.8836 12.868L22.6831 25.4087C22.3499 25.3287 22.0015 25.2811 21.6435 25.2811C20.545 25.2811 19.5415 25.6791 18.7628 26.3379L13.2736 23.179C13.3022 22.9771 13.3212 22.7734 13.3212 22.5639C13.3212 20.0999 11.3239 18.1006 8.85827 18.1006C6.39261 18.1006 4.39533 20.098 4.39533 22.5639C4.39533 23.1752 4.51909 23.7578 4.74186 24.2891L0.642578 28.0917V32.138L6.73152 26.4884C7.36364 26.8311 8.08716 27.0254 8.85637 27.0254C10.0368 27.0254 11.1069 26.5646 11.9046 25.8143L17.2606 28.8971C17.2072 29.1714 17.1787 29.4532 17.1787 29.7426C17.1787 32.2066 19.176 34.204 21.6416 34.204C24.1073 34.204 26.1046 32.2066 26.1046 29.7426C26.1046 28.7163 25.7542 27.7737 25.1716 27.0197L33.315 14.5665C33.6958 14.6712 34.0937 14.7321 34.5069 14.7321C35.5407 14.7321 36.4889 14.378 37.2467 13.7877L42.6407 17.4227L42.6426 13.8467Z" fill="white"/>
</svg>
