<svg width="51" height="53" viewBox="0 0 51 53" fill="none" xmlns="http://www.w3.org/2000/svg">
<path d="M50.7854 37.8934C49.4552 37.5549 48.3395 37.1529 47.4384 36.6874C45.9365 35.9257 45.1855 35.0371 45.1855 34.0216C45.1855 33.7677 45.0782 33.5455 44.8637 33.3551C44.6491 33.1647 44.3917 33.0906 44.0913 33.1329C42.8469 33.3022 41.5166 32.6463 40.1005 31.1653C39.2423 30.2343 38.4485 29.113 37.719 27.8012C37.6761 27.6743 37.5902 27.6108 37.4615 27.6108C37.3328 27.6108 37.2469 27.6743 37.204 27.8012C36.4745 29.113 35.6807 30.2343 34.8225 31.1653C33.4064 32.6463 32.0761 33.3022 30.8317 33.1329C30.5313 33.0906 30.2739 33.1647 30.0593 33.3551C29.8448 33.5455 29.7375 33.7677 29.7375 34.0216C29.7804 35.0371 29.0509 35.9257 27.549 36.6874C26.605 37.1529 25.4893 37.5549 24.2019 37.8934C24.0732 37.8934 23.9874 37.9463 23.9445 38.0521C23.9016 38.1579 23.923 38.2531 24.0088 38.3377C24.9529 39.4379 25.7038 40.4958 26.2617 41.5114C27.2057 43.2463 27.5061 44.6216 27.1628 45.6371C27.077 45.8487 27.0877 46.0709 27.195 46.3036C27.3023 46.5363 27.4632 46.695 27.6777 46.7796C28.4501 47.1182 28.9865 48.0068 29.2869 49.4455C29.5015 50.3341 29.6087 51.3285 29.6087 52.4287C29.6087 52.5557 29.6624 52.6509 29.7697 52.7144C29.8769 52.7778 29.9735 52.7884 30.0593 52.7461C31.175 52.196 32.2478 51.8575 33.2777 51.7305C34.8654 51.4766 36.024 51.794 36.7535 52.6826C36.9251 52.8942 37.1611 53 37.4615 53C37.7619 53 37.9979 52.8942 38.1695 52.6826C38.899 51.794 40.0791 51.4766 41.7097 51.7305C42.6967 51.8575 43.748 52.1749 44.8637 52.6826C44.9924 52.7673 45.0997 52.7778 45.1855 52.7144C45.2714 52.6509 45.3143 52.5557 45.3143 52.4287C45.3143 51.3285 45.4215 50.313 45.6361 49.382C45.9794 47.9856 46.5158 47.1182 47.2453 46.7796C47.4598 46.695 47.6207 46.5469 47.728 46.3353C47.8353 46.1238 47.846 45.9122 47.7602 45.7006C47.4169 44.6427 47.7173 43.2675 48.6613 41.5748C49.2192 40.517 49.9701 39.4379 50.9142 38.3377C51 38.2531 51.0215 38.1579 50.9785 38.0521C50.9356 37.9463 50.8713 37.8934 50.7854 37.8934ZM44.5419 40.0515L44.22 40.4958C42.804 42.2731 42.1174 44.283 42.1603 46.5257V46.7796C42.1603 46.9489 42.0959 47.0864 41.9672 47.1922C41.8385 47.298 41.6883 47.3509 41.5166 47.3509H41.3879L40.6798 47.1605C38.5343 46.5257 36.3887 46.5257 34.2432 47.1605L33.5351 47.3509H33.4064C33.2347 47.3509 33.0846 47.298 32.9558 47.1922C32.8271 47.0864 32.7627 46.9489 32.7627 46.7796V46.5257C32.8056 44.283 32.1191 42.2731 30.703 40.4958L30.3812 40.0515C30.2524 39.9245 30.2202 39.7659 30.2846 39.5754C30.349 39.385 30.4884 39.2687 30.703 39.2263C31.9474 38.8878 33.106 38.38 34.1788 37.703C35.2516 37.0259 36.1527 36.1796 36.8822 35.1641L36.9466 35.1006C37.0753 34.9313 37.2469 34.8467 37.4615 34.8467C37.6761 34.8467 37.8477 34.9313 37.9764 35.1006L38.0408 35.1641C38.7703 36.1796 39.6607 37.0259 40.712 37.703C41.7634 38.38 42.9327 38.8878 44.22 39.2263C44.4346 39.2687 44.574 39.385 44.6384 39.5754C44.7028 39.7659 44.6706 39.9245 44.5419 40.0515ZM25.5536 50.4611C25.5107 50.2918 25.4035 50.1649 25.2318 50.0802C24.3307 49.6571 23.6763 48.9906 23.2686 48.0808C22.861 47.1711 22.8073 46.2507 23.1077 45.3198C23.2793 44.7273 23.2364 44.1561 22.979 43.606C22.4211 42.5904 21.756 41.6383 20.9836 40.7497C20.5545 40.2419 20.2648 39.6495 20.1146 38.9725C19.9645 38.2954 19.9859 37.6184 20.179 36.9413C20.3721 36.2643 20.7369 35.6824 21.2732 35.1958C21.8096 34.7092 22.4533 34.3812 23.2042 34.212C23.9552 34.0427 24.6954 33.81 25.4249 33.5138C25.5965 33.3868 25.7038 33.2176 25.7467 33.006C25.7467 32.8367 25.6824 32.6886 25.5536 32.5617L23.3652 29.2611C23.1077 28.9226 22.8073 28.6052 22.464 28.309C22.3782 28.2244 22.346 28.1397 22.3675 28.0551C22.3889 27.9705 22.4426 27.8858 22.5284 27.8012C25.1031 26.6164 27.2057 24.8603 28.8363 22.5329C30.5099 20.0786 31.3467 17.4551 31.3467 14.6623C31.3467 11.9964 30.6815 9.54212 29.3513 7.2994C28.021 5.05669 26.2188 3.27944 23.9445 1.96766C21.6702 0.655888 19.192 0 16.5101 0C13.8281 0 11.35 0.655888 9.07573 1.96766C6.80143 3.27944 4.99916 5.05669 3.66891 7.2994C2.33866 9.54212 1.67354 11.9964 1.67354 14.6623C1.67354 17.4551 2.51031 20.0786 4.18385 22.5329C5.81447 24.818 7.91712 26.5741 10.4918 27.8012C10.5776 27.8435 10.6205 27.9176 10.6205 28.0234C10.6205 28.1291 10.5991 28.2244 10.5562 28.309C10.2129 28.6052 9.91249 28.9226 9.65503 29.2611C5.87884 34.8044 3.0467 39.1417 1.1586 42.2731C0.386201 43.6271 0 44.7273 0 45.5737C0 46.7585 0.740219 47.8481 2.22066 48.8425C3.70109 49.8369 5.70719 50.6198 8.23896 51.191C10.7707 51.7623 13.5385 52.0479 16.5423 52.0479C19.6319 52.0479 22.5069 51.7305 25.1674 51.0958C25.2962 51.0535 25.3927 50.9794 25.4571 50.8737C25.5215 50.7679 25.5536 50.6303 25.5536 50.4611Z" fill="white"/>
</svg>
