<svg width="47" height="41" viewBox="0 0 47 41" fill="none" xmlns="http://www.w3.org/2000/svg">
<path fill-rule="evenodd" clip-rule="evenodd" d="M8.8125 0L4.89584 11.7143H0V20.5H2.9375V41H8.8125V35.1429H38.1875V41H44.0625V20.5H47V11.7143H42.1041L38.1875 0H8.8125ZM11.75 23.4286C10.1277 23.4286 8.8125 24.7398 8.8125 26.3571C8.8125 27.9746 10.1277 29.2857 11.75 29.2857C13.3723 29.2857 14.6875 27.9746 14.6875 26.3571C14.6875 24.7398 13.3723 23.4286 11.75 23.4286ZM33.9531 5.85714H13.047L9.13031 17.5714H37.8697L33.9531 5.85714ZM35.25 23.4286C33.6276 23.4286 32.3125 24.7398 32.3125 26.3571C32.3125 27.9746 33.6276 29.2857 35.25 29.2857C36.8724 29.2857 38.1875 27.9746 38.1875 26.3571C38.1875 24.7398 36.8724 23.4286 35.25 23.4286Z" fill="white"/>
</svg>
