<svg width="44" height="44" viewBox="0 0 44 44" fill="none" xmlns="http://www.w3.org/2000/svg">
<path d="M13 6.5C13 10.0899 10.0899 13 6.5 13C2.91015 13 0 10.0899 0 6.5C0 2.91015 2.91015 0 6.5 0C10.0899 0 13 2.91015 13 6.5Z" fill="white"/>
<path d="M44 37.5C44 41.0899 41.0899 44 37.5 44C33.9101 44 31 41.0899 31 37.5C31 33.9101 33.9101 31 37.5 31C41.0899 31 44 33.9101 44 37.5Z" fill="white"/>
<path d="M25.1667 11C25.1667 8.39636 27.2933 6.28571 29.9167 6.28571C32.5399 6.28571 34.6667 8.39636 34.6667 11V25.1429H41V11C41 4.92486 36.0378 0 29.9167 0C23.7955 0 18.8333 4.92486 18.8333 11V33C18.8333 35.6035 16.7067 37.7143 14.0833 37.7143C11.46 37.7143 9.33333 35.6035 9.33333 33V18.8571H3V33C3 39.0751 7.96217 44 14.0833 44C20.2045 44 25.1667 39.0751 25.1667 33V11Z" fill="white"/>
</svg>
