<svg width="47" height="50" viewBox="0 0 47 50" fill="none" xmlns="http://www.w3.org/2000/svg">
<path d="M45.354 22.9832L23.6559 1.2829C22.801 0.427999 21.6809 0 20.5609 0C19.4408 0 18.3197 0.427999 17.4659 1.2829L5.58313 13.1634C3.87333 14.8732 3.87333 17.6987 5.58313 19.4085L7.55258 21.4318H12.0955L7.85515 17.1365C7.55808 16.8383 7.51407 16.4653 7.51407 16.2849C7.51407 16.1044 7.55808 15.7446 7.85515 15.4476L9.42411 13.927L16.8805 21.4318H24.0333L12.9999 10.3435L19.7368 3.58023C20.0339 3.28316 20.3804 3.22704 20.5609 3.22704C20.7413 3.22704 21.0879 3.26445 21.385 3.56042L43.0842 25.2574C43.3823 25.5556 43.4275 25.8989 43.4275 26.0804C43.4275 26.2609 43.3504 26.6063 43.0523 26.9045L41.8222 28.1049V32.6478L45.3254 29.1765C47.0341 27.4634 47.0649 24.693 45.354 22.9832Z" fill="white"/>
<path d="M35.174 23.4663H4.48463C2.06738 23.4663 0 25.4138 0 27.831V39.4387H39.4969V27.831C39.4969 25.4138 37.5913 23.4663 35.174 23.4663ZM10.7253 35.4866C9.86818 35.4866 9.0925 35.1455 8.52037 34.5954C7.94823 35.1455 7.17145 35.4866 6.31656 35.4866C4.55835 35.4866 3.13132 34.0618 3.13132 32.3002C3.13132 30.5409 4.55725 29.115 6.31656 29.115C7.17255 29.115 7.94933 29.455 8.52037 30.0051C9.0925 29.455 9.86818 29.115 10.7253 29.115C12.4846 29.115 13.9105 30.5409 13.9105 32.3002C13.9105 34.0618 12.4846 35.4866 10.7253 35.4866Z" fill="white"/>
<path d="M0 44.6329C0 47.0502 2.06628 49.023 4.48463 49.023H35.174C37.5913 49.023 39.498 47.0502 39.498 44.6329V44.3755H0V44.6329Z" fill="white"/>
</svg>
