<svg width="45" height="42" viewBox="0 0 45 42" fill="none" xmlns="http://www.w3.org/2000/svg">
<path d="M0 30.794V5.60299C0 4.64674 0.224986 3.76521 0.674958 2.95838C1.12493 2.15155 1.72489 1.47919 2.47485 0.941302C3.43479 0.313767 4.48472 0 5.62465 0C6.31461 0 7.00456 0.11953 7.69452 0.358591L21.7786 5.96158C21.8386 5.99146 22.0786 6.14087 22.4986 6.40982C22.9186 6.14087 23.1586 5.99146 23.2185 5.96158L37.3027 0.358591C37.9926 0.11953 38.6826 0 39.3725 0C40.5425 0 41.5924 0.313767 42.5223 0.941302C43.3023 1.47919 43.9173 2.15155 44.3672 2.95838C44.8172 3.76521 45.0272 4.64674 44.9972 5.60299V30.794C44.9972 31.9594 44.6822 33.0053 44.0522 33.9317C43.4223 34.8581 42.5523 35.5454 41.4424 35.9936L27.4033 41.5966C26.7133 41.8655 26.0234 42 25.3334 42C24.3735 42 23.4285 41.7311 22.4986 41.1932C21.5687 41.7311 20.6387 42 19.7088 42C18.9888 42 18.2839 41.8655 17.5939 41.5966L3.55478 35.9936C2.47485 35.5752 1.6199 34.8879 0.989938 33.9317C0.359977 32.9755 0.0299981 31.9296 0 30.794ZM5.62465 30.794L19.7088 36.397V11.206L5.62465 5.60299V30.794ZM8.45947 29.1355V26.3116L16.8739 29.6734V32.4973L8.45947 29.1355ZM8.45947 23.5325V20.7086L16.8739 24.0704V26.8943L8.45947 23.5325ZM8.45947 17.9296V15.1057L16.8739 18.4674V21.2914L8.45947 17.9296ZM8.45947 12.3266V9.50267L16.8739 12.8645V15.6884L8.45947 12.3266ZM25.3334 36.397L39.3725 30.794V5.60299L25.3334 11.206V36.397ZM28.1232 32.4973V29.6734L36.5827 26.3116V29.1355L28.1232 32.4973ZM28.1232 26.8943V24.0704L36.5827 20.7086V23.5325L28.1232 26.8943ZM28.1232 21.2914V18.4674L36.5827 15.1057V17.9296L28.1232 21.2914ZM28.1232 15.6884V12.8645L36.5827 9.50267V12.3266L28.1232 15.6884Z" fill="white"/>
</svg>
