<svg width="46" height="46" viewBox="0 0 46 46" fill="none" xmlns="http://www.w3.org/2000/svg">
<path fill-rule="evenodd" clip-rule="evenodd" d="M32.167 45.6665H5.16699C2.68171 45.6665 0.666992 43.6517 0.666992 41.1665V5.1665C0.666992 2.68122 2.68171 0.666504 5.16699 0.666504H32.167C34.6522 0.666504 36.667 2.68122 36.667 5.1665V41.1665C36.667 43.6517 34.6522 45.6665 32.167 45.6665ZM16.417 10.7915C16.417 10.1702 16.9207 9.6665 17.542 9.6665H31.042C31.6633 9.6665 32.167 10.1702 32.167 10.7915C32.167 11.4128 31.6633 11.9165 31.042 11.9165H17.542C16.9207 11.9165 16.417 11.4128 16.417 10.7915ZM17.542 14.1665C16.9207 14.1665 16.417 14.6702 16.417 15.2915C16.417 15.9128 16.9207 16.4165 17.542 16.4165H31.042C31.6633 16.4165 32.167 15.9128 32.167 15.2915C32.167 14.6702 31.6633 14.1665 31.042 14.1665H17.542ZM13.8375 9.99602C14.2768 10.4353 14.2768 11.1477 13.8375 11.587L8.54199 16.8825L5.49649 13.837C5.05716 13.3977 5.05716 12.6853 5.49649 12.246C5.93584 11.8067 6.64815 11.8067 7.08749 12.246L8.54199 13.7005L12.2465 9.99602C12.6858 9.5567 13.3982 9.5567 13.8375 9.99602ZM17.542 23.1665C16.9207 23.1665 16.417 23.6702 16.417 24.2915C16.417 24.9128 16.9207 25.4165 17.542 25.4165H31.042C31.6633 25.4165 32.167 24.9128 32.167 24.2915C32.167 23.6702 31.6633 23.1665 31.042 23.1665H17.542ZM16.417 28.7915C16.417 28.1702 16.9207 27.6665 17.542 27.6665H31.042C31.6633 27.6665 32.167 28.1702 32.167 28.7915C32.167 29.4128 31.6633 29.9165 31.042 29.9165H17.542C16.9207 29.9165 16.417 29.4128 16.417 28.7915ZM11.917 23.1665H6.29199C5.67068 23.1665 5.16699 23.6702 5.16699 24.2915V29.9165C5.16699 30.5378 5.67068 31.0415 6.29199 31.0415H11.917C12.5383 31.0415 13.042 30.5378 13.042 29.9165V24.2915C13.042 23.6702 12.5383 23.1665 11.917 23.1665Z" fill="white"/>
<path fill-rule="evenodd" clip-rule="evenodd" d="M45.667 40.9392L41.667 45.6665L37.667 40.9392V19.6665H45.667V40.9392Z" fill="white"/>
<path fill-rule="evenodd" clip-rule="evenodd" d="M40.3337 12.6665H43.0003C44.4731 12.6665 45.667 13.7111 45.667 14.9998V19.6665H37.667V14.9998C37.667 13.7111 38.8609 12.6665 40.3337 12.6665Z" fill="white"/>
</svg>
