<svg width="36" height="44" viewBox="0 0 36 44" fill="none" xmlns="http://www.w3.org/2000/svg">
<path d="M34.65 0H1.35901C0.998954 0.00122007 0.653993 0.144793 0.399393 0.399393C0.144793 0.653992 0.00122007 0.998954 0 1.35901V41.85C0.00159265 42.2091 0.145572 42.5529 0.40035 42.806C0.655127 43.0591 0.999894 43.2008 1.35901 43.2H34.65C34.8274 43.2002 35.003 43.1655 35.1669 43.0977C35.3308 43.03 35.4797 42.9305 35.6051 42.8051C35.7305 42.6797 35.83 42.5308 35.8977 42.3669C35.9655 42.203 36.0002 42.0273 36 41.85V1.35901C36.0009 0.999877 35.8592 0.655076 35.6061 0.400286C35.353 0.145497 35.0091 0.00153564 34.65 0ZM16.2 36.0359H7.2C6.84196 36.0359 6.49858 35.8937 6.24541 35.6405C5.99223 35.3873 5.85 35.044 5.85 34.6859C5.85 34.3279 5.99223 33.9845 6.24541 33.7313C6.49858 33.4782 6.84196 33.3359 7.2 33.3359H16.2C17.9723 33.3635 17.9769 36.0076 16.2 36.0359ZM16.2 26.1359H7.2C6.84196 26.1359 6.49858 25.9937 6.24541 25.7405C5.99223 25.4873 5.85 25.144 5.85 24.7859C5.85 24.4279 5.99223 24.0845 6.24541 23.8313C6.49858 23.5782 6.84196 23.4359 7.2 23.4359H16.2C17.9723 23.4635 17.9769 26.1076 16.2 26.1359ZM19.836 15.3C19.8096 17.0728 17.1635 17.0761 17.136 15.2999V8.30698C17.1378 7.1791 17.587 6.09802 18.3852 5.30111C19.1833 4.5042 20.2651 4.05661 21.393 4.05661C22.5209 4.05661 23.6026 4.5042 24.4008 5.30111C25.1989 6.09802 25.6482 7.1791 25.65 8.30698V15.3C25.621 17.0739 22.979 17.0758 22.95 15.2999V13.4009H19.836V15.3ZM29.754 33.4259L25.3261 37.8539C25.2024 37.9813 25.0539 38.0822 24.8899 38.1503C24.7258 38.2184 24.5496 38.2523 24.372 38.25C24.1947 38.2506 24.019 38.2159 23.8552 38.1479C23.6914 38.0799 23.5428 37.9799 23.418 37.8539L21.5459 35.9819C20.3201 34.7119 22.184 32.8308 23.454 34.0739L24.372 34.9918L27.8459 31.5179C29.1296 30.2915 30.992 32.1592 29.754 33.4259ZM29.754 23.5259L25.3261 27.9539C25.2024 28.0813 25.0539 28.1822 24.8899 28.2503C24.7258 28.3184 24.5496 28.3523 24.372 28.35C24.1947 28.3506 24.019 28.3159 23.8552 28.2479C23.6914 28.1799 23.5428 28.08 23.418 27.9539L21.5459 26.0819C20.3201 24.8119 22.184 22.9308 23.454 24.1739L24.372 25.0918L27.8459 21.6179C29.1296 20.3915 30.992 22.2592 29.754 23.5259Z" fill="white"/>
<path d="M22.9499 8.30689C22.9488 7.89465 22.7843 7.49965 22.4925 7.20852C22.2006 6.9174 21.8052 6.75391 21.3929 6.75391C20.9807 6.75391 20.5853 6.9174 20.2934 7.20852C20.0015 7.49965 19.837 7.89465 19.8359 8.30689V10.7008H22.9499V8.30689Z" fill="white"/>
</svg>
