<svg width="35" height="46" viewBox="0 0 35 46" fill="none" xmlns="http://www.w3.org/2000/svg">
<path d="M25.8947 35.4784H31.578L25.4323 42.0226V35.9402C25.4323 35.6854 25.6398 35.4784 25.8947 35.4784ZM19.0363 10.069L20.7883 9.84265L19.6946 8.27481L19.0363 10.069ZM35 1.12745V33.2235H25.8947C24.3947 33.2235 23.1748 34.4423 23.1748 35.9402V46H1.12877C0.505237 46 0 45.4951 0 44.8726V1.12745C0 0.504873 0.505237 0 1.12877 0H33.871C34.4945 0 35 0.504873 35 1.12745ZM16.0881 14.8282C16.2164 14.8751 16.3473 14.8975 16.4767 14.8975C16.9367 14.8975 17.3691 14.6142 17.5363 14.1576L18.1606 12.4561L22.2431 11.9284L23.2804 13.4153C23.5001 13.7299 23.8507 13.8983 24.2074 13.8983C24.4302 13.8983 24.6553 13.8325 24.8517 13.6958C25.3632 13.3398 25.4888 12.6371 25.1325 12.1264L20.3066 5.20905C20.3048 5.20657 20.3023 5.20454 20.3005 5.20206C20.2693 5.15786 20.2321 5.11818 20.1944 5.07872C20.1806 5.06428 20.1689 5.04692 20.1544 5.03339C20.1246 5.00543 20.0898 4.98243 20.0569 4.95763C20.0305 4.93778 20.0061 4.91501 19.9783 4.89765C19.9571 4.88434 19.9327 4.87555 19.9104 4.8636C19.8668 4.84037 19.8237 4.81647 19.7776 4.79933C19.7745 4.79821 19.772 4.79618 19.7688 4.79505C19.7424 4.78535 19.7153 4.7822 19.6889 4.77453C19.6476 4.7628 19.6067 4.74973 19.5643 4.74274C19.5268 4.73642 19.4898 4.73597 19.4523 4.73372C19.4169 4.73146 19.3817 4.7274 19.346 4.7283C19.3078 4.72943 19.2708 4.73597 19.2331 4.74093C19.1981 4.74544 19.1631 4.74837 19.1284 4.75626C19.0909 4.76483 19.0552 4.77859 19.0186 4.79099C18.9859 4.80204 18.9527 4.81106 18.9207 4.82549C18.8773 4.84488 18.8374 4.86991 18.7967 4.89449C18.7764 4.90689 18.755 4.91501 18.7351 4.92876C18.7328 4.93034 18.731 4.9326 18.7288 4.93418C18.6834 4.9662 18.6425 5.00408 18.6021 5.04264C18.5884 5.05572 18.5723 5.06676 18.5592 5.08029C18.5319 5.10916 18.5098 5.14298 18.4856 5.17477C18.4649 5.20206 18.4412 5.22754 18.4233 5.2564C18.4116 5.27512 18.4039 5.29699 18.3931 5.31661C18.368 5.36283 18.343 5.40883 18.3247 5.45777C18.3235 5.4607 18.3217 5.46295 18.3208 5.46588L15.4167 13.3817C15.2023 13.9664 15.5028 14.614 16.0881 14.8282ZM19.0575 34.351C19.0575 33.7284 18.5522 33.2235 17.9287 33.2235H6.49449C5.87096 33.2235 5.36572 33.7284 5.36572 34.351C5.36572 34.9735 5.87096 35.4784 6.49449 35.4784H17.9289C18.5522 35.4784 19.0575 34.9735 19.0575 34.351ZM23.8566 27.4735C23.8566 26.8509 23.3513 26.3461 22.7278 26.3461H6.49449C5.87096 26.3461 5.36572 26.8509 5.36572 27.4735C5.36572 28.0961 5.87096 28.601 6.49449 28.601H22.7278C23.3513 28.601 23.8566 28.0961 23.8566 27.4735ZM27.3767 20.5961C27.3767 19.9735 26.8715 19.4686 26.248 19.4686H6.49449C5.87096 19.4686 5.36572 19.9735 5.36572 20.5961C5.36572 21.2186 5.87096 21.7235 6.49449 21.7235H26.248C26.8715 21.7235 27.3767 21.2186 27.3767 20.5961ZM31.6767 7.21997C31.5968 6.6028 31.0328 6.16648 30.4122 6.24653L28.904 6.44158L28.7087 4.93508C28.6288 4.31769 28.0651 3.88136 27.4442 3.96164C26.8261 4.04146 26.3895 4.60699 26.4697 5.22438L26.6649 6.73088L25.1567 6.92593C24.5386 7.00576 24.1019 7.57106 24.1821 8.18868C24.2557 8.75714 24.7413 9.17159 25.3003 9.17159C25.3483 9.17159 25.3973 9.16843 25.4465 9.16212L26.9548 8.96707L27.1501 10.4736C27.2237 11.042 27.7093 11.4565 28.2682 11.4565C28.3163 11.4565 28.3653 11.4533 28.4143 11.447C29.0324 11.3672 29.469 10.8017 29.3889 10.1843L29.1936 8.67776L30.7019 8.48272C31.3202 8.40289 31.7566 7.83759 31.6767 7.21997Z" fill="white"/>
</svg>
