<svg width="48" height="46" viewBox="0 0 48 46" fill="none" xmlns="http://www.w3.org/2000/svg">
<path d="M47.9998 20.7272C48.009 18.8109 47.6267 16.9129 46.8764 15.1496C46.126 13.3863 45.0234 11.7948 43.6362 10.4727V2.18181C43.6362 1.60316 43.4063 1.04821 42.9972 0.639037C42.588 0.229869 42.0331 0 41.4544 0H2.18181C1.60316 0 1.04821 0.229869 0.639037 0.639037C0.229869 1.04821 0 1.60316 0 2.18181V39.2726C0 39.8512 0.229869 40.4062 0.639037 40.8154C1.04821 41.2245 1.60316 41.4544 2.18181 41.4544H26.1817V43.1999C26.1817 45.3817 28.3635 46.5817 29.7817 45.1635L33.8181 41.4544L37.8544 45.1635C39.2726 46.5817 41.4544 45.3817 41.4544 43.1999V32.6181C43.4595 31.3487 45.1111 29.5929 46.2555 27.5139C47.3999 25.435 47.9999 23.1003 47.9998 20.7272ZM33.8181 10.9091C35.7599 10.9091 37.6582 11.4849 39.2727 12.5637C40.8873 13.6425 42.1457 15.1759 42.8889 16.97C43.632 18.764 43.8264 20.7381 43.4476 22.6426C43.0687 24.5472 42.1336 26.2966 40.7605 27.6697C39.3875 29.0428 37.638 29.9779 35.7335 30.3567C33.829 30.7355 31.8549 30.5411 30.0608 29.798C28.2668 29.0549 26.7334 27.7965 25.6546 26.1819C24.5757 24.5673 23.9999 22.6691 23.9999 20.7272C23.9999 18.1233 25.0343 15.626 26.8756 13.7847C28.7169 11.9435 31.2141 10.9091 33.8181 10.9091ZM10.9091 9.81815H24.7636L22.909 11.6727C22.2645 12.4401 21.715 13.2825 21.2727 14.1818H10.9091C10.3304 14.1818 9.77545 13.9519 9.36628 13.5427C8.95711 13.1336 8.72724 12.5786 8.72724 12C8.72724 11.4213 8.95711 10.8664 9.36628 10.4572C9.77545 10.048 10.3304 9.81815 10.9091 9.81815ZM10.9091 18.5454H19.8545C19.6691 19.257 19.5955 19.993 19.6363 20.7272C19.6005 21.4613 19.6741 22.1966 19.8545 22.909H10.9091C10.3304 22.909 9.77545 22.6791 9.36628 22.27C8.95711 21.8608 8.72724 21.3059 8.72724 20.7272C8.72724 20.1486 8.95711 19.5936 9.36628 19.1844C9.77545 18.7753 10.3304 18.5454 10.9091 18.5454ZM10.9091 31.6363C10.3304 31.6363 9.77545 31.4064 9.36628 30.9972C8.95711 30.5881 8.72724 30.0331 8.72724 29.4544C8.72724 28.8758 8.95711 28.3208 9.36628 27.9117C9.77545 27.5025 10.3304 27.2726 10.9091 27.2726H21.2727C21.715 28.1719 22.2645 29.0143 22.909 29.7817C23.4717 30.453 24.0922 31.0736 24.7636 31.6363H10.9091Z" fill="white"/>
<path d="M33.8178 26.1818C36.8303 26.1818 39.2723 23.7397 39.2723 20.7272C39.2723 17.7148 36.8303 15.2727 33.8178 15.2727C30.8054 15.2727 28.3633 17.7148 28.3633 20.7272C28.3633 23.7397 30.8054 26.1818 33.8178 26.1818Z" fill="white"/>
</svg>
